<svg width="20" height="12" viewBox="0 0 20 12" fill="none" xmlns="http://www.w3.org/2000/svg">
<path fill-rule="evenodd" clip-rule="evenodd" d="M8.58553 0.586616C8.96053 0.212081 9.46886 0.00170898 9.99886 0.00170898C10.5289 0.00170898 11.0372 0.212081 11.4122 0.586616L18.9562 8.12795C19.1419 8.31373 19.2892 8.53426 19.3896 8.77695C19.4901 9.01965 19.5418 9.27976 19.5417 9.54242C19.5416 9.80509 19.4898 10.0652 19.3893 10.3078C19.2887 10.5505 19.1413 10.7709 18.9555 10.9566C18.7698 11.1423 18.5492 11.2896 18.3065 11.39C18.0638 11.4905 17.8037 11.5422 17.5411 11.5421C17.2784 11.5421 17.0183 11.4903 16.7757 11.3897C16.533 11.2891 16.3126 11.1417 16.1269 10.956L9.99886 4.82928L3.87086 10.9573C3.68646 11.1484 3.46584 11.3009 3.22188 11.4058C2.97793 11.5107 2.71551 11.566 2.44996 11.5684C2.1844 11.5709 1.92102 11.5204 1.67518 11.42C1.42934 11.3195 1.20597 11.1711 1.01809 10.9834C0.830221 10.7957 0.68161 10.5725 0.580933 10.3267C0.480255 10.081 0.429527 9.81766 0.431708 9.5521C0.43389 9.28654 0.488937 9.02408 0.593639 8.78002C0.69834 8.53596 0.850599 8.3152 1.04153 8.13062L8.58553 0.586616Z" fill="white"/>
</svg>
