<svg width="56" height="56" viewBox="0 0 56 56" fill="none" xmlns="http://www.w3.org/2000/svg">
<rect width="56" height="56" rx="28" fill="#0057FF"/>
<g clip-path="url(#clip0_550_83798)">
<path d="M32 19C33.3261 19 34.5979 19.5268 35.5355 20.4645C36.4732 21.4021 37 22.6739 37 24V32C37 33.3261 36.4732 34.5979 35.5355 35.5355C34.5979 36.4732 33.3261 37 32 37H24C22.6739 37 21.4021 36.4732 20.4645 35.5355C19.5268 34.5979 19 33.3261 19 32V24C19 22.6739 19.5268 21.4021 20.4645 20.4645C21.4021 19.5268 22.6739 19 24 19H32ZM28 24C26.9391 24 25.9217 24.4214 25.1716 25.1716C24.4214 25.9217 24 26.9391 24 28C24 29.0609 24.4214 30.0783 25.1716 30.8284C25.9217 31.5786 26.9391 32 28 32C29.0609 32 30.0783 31.5786 30.8284 30.8284C31.5786 30.0783 32 29.0609 32 28C32 26.9391 31.5786 25.9217 30.8284 25.1716C30.0783 24.4214 29.0609 24 28 24ZM28 26C28.5304 26 29.0391 26.2107 29.4142 26.5858C29.7893 26.9609 30 27.4696 30 28C30 28.5304 29.7893 29.0391 29.4142 29.4142C29.0391 29.7893 28.5304 30 28 30C27.4696 30 26.9609 29.7893 26.5858 29.4142C26.2107 29.0391 26 28.5304 26 28C26 27.4696 26.2107 26.9609 26.5858 26.5858C26.9609 26.2107 27.4696 26 28 26ZM32.5 22.5C32.2348 22.5 31.9804 22.6054 31.7929 22.7929C31.6054 22.9804 31.5 23.2348 31.5 23.5C31.5 23.7652 31.6054 24.0196 31.7929 24.2071C31.9804 24.3946 32.2348 24.5 32.5 24.5C32.7652 24.5 33.0196 24.3946 33.2071 24.2071C33.3946 24.0196 33.5 23.7652 33.5 23.5C33.5 23.2348 33.3946 22.9804 33.2071 22.7929C33.0196 22.6054 32.7652 22.5 32.5 22.5Z" fill="white"/>
</g>
<defs>
<clipPath id="clip0_550_83798">
<rect width="24" height="24" fill="white" transform="translate(16 16)"/>
</clipPath>
</defs>
</svg>
