<svg width="78" height="78" viewBox="0 0 78 78" fill="none" xmlns="http://www.w3.org/2000/svg">
<path d="M47.5239 5.26299L55.8246 9.85882L63.9552 14.7496C69.1497 17.8743 72.3703 23.4525 72.479 29.5134L72.6493 39L72.479 48.4866C72.3703 54.5475 69.1497 60.1257 63.9552 63.2504L55.8247 68.1412L47.5239 72.737C42.2206 75.6732 35.7794 75.6732 30.4761 72.737L22.1753 68.1411L14.0448 63.2504C8.85034 60.1257 5.62975 54.5475 5.52096 48.4866L5.35069 39L5.52096 29.5134C5.62975 23.4525 8.85033 17.8743 14.0448 14.7496L22.1753 9.85884L30.4761 5.26299C35.7794 2.32676 42.2206 2.32676 47.5239 5.26299Z" fill="#272A33" stroke="url(#paint0_linear_2737_39236)" stroke-width="0.951219"/>
<path d="M42.3282 50.8903C42.3282 51.4157 41.9023 51.8415 41.377 51.8415C40.8517 51.8415 40.4258 51.4157 40.4258 50.8903C40.4258 50.365 40.8517 49.9391 41.377 49.9391C41.9023 49.9391 42.3282 50.365 42.3282 50.8903Z" fill="url(#paint1_linear_2737_39236)"/>
<circle cx="42.2093" cy="41.7348" r="0.832317" fill="url(#paint2_linear_2737_39236)"/>
<path d="M33.2923 26.6345L33.2923 27.1101L33.2923 26.6345ZM44.7069 26.6345L44.7742 26.1637L44.7069 26.1589V26.6345ZM43.9933 30.2016H44.4689C44.4689 30.0519 44.3985 29.911 44.2787 29.8211L43.9933 30.2016ZM38.7618 41.854L38.5885 41.4111C38.4062 41.4825 38.2862 41.6583 38.2862 41.854H38.7618ZM38.7618 58.2626L39.2174 58.3992L39.2374 58.2626H38.7618ZM34.4813 58.7382L34.0057 58.7343V58.7382H34.4813ZM43.0423 30.2016H42.5667L42.5667 30.2071L43.0423 30.2016ZM43.2799 50.8906L43.7463 50.9839L43.7555 50.8852L43.2799 50.8906ZM39.4752 50.8906H38.9996L39.0138 51.006L39.4752 50.8906ZM39.4752 42.0918L39.3036 41.6483L38.9996 42.0918H39.4752ZM43.1625 40.665L43.3341 41.1086L43.6381 40.6595L43.1625 40.665ZM39.2374 52.0796L39.6179 51.7943C39.4951 51.6305 39.2812 51.5637 39.087 51.6284C38.8928 51.6932 38.7618 51.8749 38.7618 52.0796H39.2374ZM43.2799 51.8418H43.7555C43.7555 51.6086 43.5864 51.4097 43.3561 51.3724C43.1258 51.335 42.9025 51.4701 42.8287 51.6914L43.2799 51.8418ZM43.0423 29.4882L43.3277 29.1077C43.1836 28.9996 42.9908 28.9822 42.8296 29.0628C42.6685 29.1433 42.5667 29.308 42.5667 29.4882H43.0423ZM34.0055 30.2016L33.6692 29.8653L33.5299 30.2016H34.0055ZM34.7189 29.4882L35.1945 29.492C35.1961 29.299 35.0808 29.1241 34.9027 29.0495C34.7247 28.9749 34.5192 29.0154 34.3826 29.1519L34.7189 29.4882ZM33.5299 42.8052C33.5299 43.0984 33.4576 43.4129 33.3049 43.6387C33.1683 43.8406 32.9563 43.9943 32.5787 43.9943V44.9455C33.2859 44.9455 33.7872 44.6235 34.0929 44.1715C34.3824 43.7434 34.4811 43.2255 34.4811 42.8052H33.5299ZM32.5787 43.9943C32.268 43.9943 31.9719 43.8385 31.7416 43.5852C31.5055 43.3255 31.3897 43.0189 31.3897 42.8053H30.4385C30.4385 43.3051 30.6793 43.8307 31.0378 44.225C31.402 44.6257 31.9381 44.9455 32.5787 44.9455V43.9943ZM31.3897 42.8053V29.5692H30.4385V42.8053H31.3897ZM31.3897 29.5692C31.3897 29.2052 31.3952 28.5713 31.6433 28.0335C31.7628 27.7745 31.9331 27.5513 32.1783 27.3904C32.4226 27.2302 32.7741 27.1101 33.2923 27.1101L33.2923 26.1589C32.6215 26.1589 32.0812 26.3165 31.6566 26.5951C31.233 26.8729 30.9574 27.2496 30.7795 27.6351C30.433 28.3863 30.4385 29.2197 30.4385 29.5692H31.3897ZM33.2923 27.1101C34.8143 27.1101 41.5362 27.1101 44.7069 27.1101V26.1589C41.5362 26.1589 34.8143 26.1589 33.2923 26.1589L33.2923 27.1101ZM44.6397 27.1054C46.0675 27.3093 46.8472 28.3906 46.8472 29.4882H47.7984C47.7984 27.9223 46.6756 26.4353 44.7742 26.1637L44.6397 27.1054ZM46.8472 29.4882C46.8472 29.4908 46.8472 29.4934 46.8472 29.4961C46.8472 29.4987 46.8472 29.5014 46.8472 29.5041C46.8472 29.5068 46.8472 29.5095 46.8472 29.5123C46.8472 29.515 46.8472 29.5178 46.8472 29.5206C46.8472 29.5234 46.8472 29.5262 46.8472 29.5291C46.8472 29.5319 46.8472 29.5348 46.8472 29.5377C46.8472 29.5406 46.8472 29.5435 46.8472 29.5465C46.8472 29.5494 46.8472 29.5524 46.8472 29.5554C46.8472 29.5584 46.8472 29.5614 46.8472 29.5645C46.8472 29.5675 46.8472 29.5706 46.8472 29.5737C46.8472 29.5768 46.8472 29.5799 46.8472 29.5831C46.8472 29.5862 46.8472 29.5894 46.8472 29.5926C46.8472 29.5958 46.8472 29.599 46.8472 29.6022C46.8472 29.6055 46.8472 29.6087 46.8472 29.612C46.8472 29.6153 46.8472 29.6186 46.8472 29.622C46.8472 29.6253 46.8472 29.6287 46.8472 29.6321C46.8472 29.6355 46.8472 29.6389 46.8472 29.6423C46.8472 29.6457 46.8472 29.6492 46.8472 29.6527C46.8472 29.6562 46.8472 29.6597 46.8472 29.6632C46.8472 29.6667 46.8472 29.6703 46.8472 29.6739C46.8472 29.6775 46.8472 29.6811 46.8472 29.6847C46.8472 29.6883 46.8472 29.692 46.8472 29.6956C46.8472 29.6993 46.8472 29.703 46.8472 29.7067C46.8472 29.7104 46.8472 29.7142 46.8472 29.7179C46.8472 29.7217 46.8472 29.7255 46.8472 29.7293C46.8472 29.7331 46.8472 29.737 46.8472 29.7408C46.8472 29.7447 46.8472 29.7486 46.8472 29.7525C46.8472 29.7564 46.8472 29.7603 46.8472 29.7643C46.8472 29.7682 46.8472 29.7722 46.8472 29.7762C46.8472 29.7802 46.8472 29.7842 46.8472 29.7882C46.8472 29.7923 46.8472 29.7964 46.8472 29.8004C46.8472 29.8045 46.8472 29.8086 46.8472 29.8128C46.8472 29.8169 46.8472 29.8211 46.8472 29.8253C46.8472 29.8294 46.8472 29.8336 46.8472 29.8379C46.8472 29.8421 46.8472 29.8463 46.8472 29.8506C46.8472 29.8549 46.8472 29.8592 46.8472 29.8635C46.8472 29.8678 46.8472 29.8721 46.8472 29.8765C46.8472 29.8809 46.8472 29.8852 46.8472 29.8896C46.8472 29.894 46.8472 29.8985 46.8472 29.9029C46.8472 29.9074 46.8472 29.9118 46.8472 29.9163C46.8472 29.9208 46.8472 29.9253 46.8472 29.9299C46.8472 29.9344 46.8472 29.939 46.8472 29.9436C46.8472 29.9481 46.8472 29.9527 46.8472 29.9574C46.8472 29.962 46.8472 29.9666 46.8472 29.9713C46.8472 29.976 46.8472 29.9807 46.8472 29.9854C46.8472 29.9901 46.8472 29.9948 46.8472 29.9996C46.8472 30.0043 46.8472 30.0091 46.8472 30.0139C46.8472 30.0187 46.8472 30.0235 46.8472 30.0284C46.8472 30.0332 46.8472 30.0381 46.8472 30.043C46.8472 30.0478 46.8472 30.0528 46.8472 30.0577C46.8472 30.0626 46.8472 30.0676 46.8472 30.0725C46.8472 30.0775 46.8472 30.0825 46.8472 30.0875C46.8472 30.0925 46.8472 30.0975 46.8472 30.1026C46.8472 30.1077 46.8472 30.1127 46.8472 30.1178C46.8472 30.1229 46.8472 30.128 46.8472 30.1332C46.8472 30.1383 46.8472 30.1435 46.8472 30.1487C46.8472 30.1538 46.8472 30.159 46.8472 30.1643C46.8472 30.1695 46.8472 30.1747 46.8472 30.18C46.8472 30.1852 46.8472 30.1905 46.8472 30.1958C46.8472 30.2011 46.8472 30.2065 46.8472 30.2118C46.8472 30.2172 46.8472 30.2225 46.8472 30.2279C46.8472 30.2333 46.8472 30.2387 46.8472 30.2441C46.8472 30.2496 46.8472 30.255 46.8472 30.2605C46.8472 30.2659 46.8472 30.2714 46.8472 30.2769C46.8472 30.2824 46.8472 30.288 46.8472 30.2935C46.8472 30.2991 46.8472 30.3046 46.8472 30.3102C46.8472 30.3158 46.8472 30.3214 46.8472 30.327C46.8472 30.3327 46.8472 30.3383 46.8472 30.344C46.8472 30.3497 46.8472 30.3554 46.8472 30.3611C46.8472 30.3668 46.8472 30.3725 46.8472 30.3782C46.8472 30.384 46.8472 30.3898 46.8472 30.3955C46.8472 30.4013 46.8472 30.4071 46.8472 30.413C46.8472 30.4188 46.8472 30.4246 46.8472 30.4305C46.8472 30.4364 46.8472 30.4423 46.8472 30.4482C46.8472 30.4541 46.8472 30.46 46.8472 30.4659C46.8472 30.4719 46.8472 30.4778 46.8472 30.4838C46.8472 30.4898 46.8472 30.4958 46.8472 30.5018C46.8472 30.5078 46.8472 30.5139 46.8472 30.5199C46.8472 30.526 46.8472 30.5321 46.8472 30.5382C46.8472 30.5443 46.8472 30.5504 46.8472 30.5565C46.8472 30.5627 46.8472 30.5688 46.8472 30.575C46.8472 30.5812 46.8472 30.5873 46.8472 30.5936C46.8472 30.5998 46.8472 30.606 46.8472 30.6122C46.8472 30.6185 46.8472 30.6248 46.8472 30.631C46.8472 30.6373 46.8472 30.6436 46.8472 30.65C46.8472 30.6563 46.8472 30.6626 46.8472 30.669C46.8472 30.6753 46.8472 30.6817 46.8472 30.6881C46.8472 30.6945 46.8472 30.7009 46.8472 30.7074C46.8472 30.7138 46.8472 30.7202 46.8472 30.7267C46.8472 30.7332 46.8472 30.7397 46.8472 30.7462C46.8472 30.7527 46.8472 30.7592 46.8472 30.7657C46.8472 30.7723 46.8472 30.7789 46.8472 30.7854C46.8472 30.792 46.8472 30.7986 46.8472 30.8052C46.8472 30.8118 46.8472 30.8185 46.8472 30.8251C46.8472 30.8318 46.8472 30.8384 46.8472 30.8451C46.8472 30.8518 46.8472 30.8585 46.8472 30.8652C46.8472 30.872 46.8472 30.8787 46.8472 30.8854C46.8472 30.8922 46.8472 30.899 46.8472 30.9058C46.8472 30.9126 46.8472 30.9194 46.8472 30.9262C46.8472 30.933 46.8472 30.9399 46.8472 30.9467C46.8472 30.9536 46.8472 30.9605 46.8472 30.9674C46.8472 30.9743 46.8472 30.9812 46.8472 30.9881C46.8472 30.995 46.8472 31.002 46.8472 31.009C46.8472 31.0159 46.8472 31.0229 46.8472 31.0299C46.8472 31.0369 46.8472 31.0439 46.8472 31.0509C46.8472 31.058 46.8472 31.065 46.8472 31.0721C46.8472 31.0792 46.8472 31.0863 46.8472 31.0934C46.8472 31.1005 46.8472 31.1076 46.8472 31.1147C46.8472 31.1218 46.8472 31.129 46.8472 31.1362C46.8472 31.1433 46.8472 31.1505 46.8472 31.1577C46.8472 31.1649 46.8472 31.1721 46.8472 31.1794C46.8472 31.1866 46.8472 31.1939 46.8472 31.2011C46.8472 31.2084 46.8472 31.2157 46.8472 31.223C46.8472 31.2303 46.8472 31.2376 46.8472 31.2449C46.8472 31.2523 46.8472 31.2596 46.8472 31.267C46.8472 31.2743 46.8472 31.2817 46.8472 31.2891C46.8472 31.2965 46.8472 31.3039 46.8472 31.3114C46.8472 31.3188 46.8472 31.3262 46.8472 31.3337C46.8472 31.3412 46.8472 31.3486 46.8472 31.3561C46.8472 31.3636 46.8472 31.3711 46.8472 31.3787C46.8472 31.3862 46.8472 31.3937 46.8472 31.4013C46.8472 31.4088 46.8472 31.4164 46.8472 31.424C46.8472 31.4316 46.8472 31.4392 46.8472 31.4468C46.8472 31.4544 46.8472 31.4621 46.8472 31.4697C46.8472 31.4774 46.8472 31.485 46.8472 31.4927C46.8472 31.5004 46.8472 31.5081 46.8472 31.5158C46.8472 31.5235 46.8472 31.5313 46.8472 31.539C46.8472 31.5467 46.8472 31.5545 46.8472 31.5623C46.8472 31.5701 46.8472 31.5778 46.8472 31.5856C46.8472 31.5935 46.8472 31.6013 46.8472 31.6091C46.8472 31.6169 46.8472 31.6248 46.8472 31.6327C46.8472 31.6405 46.8472 31.6484 46.8472 31.6563C46.8472 31.6642 46.8472 31.6721 46.8472 31.68C46.8472 31.6879 46.8472 31.6959 46.8472 31.7038C46.8472 31.7118 46.8472 31.7198 46.8472 31.7277C46.8472 31.7357 46.8472 31.7437 46.8472 31.7517C46.8472 31.7597 46.8472 31.7678 46.8472 31.7758C46.8472 31.7839 46.8472 31.7919 46.8472 31.8C46.8472 31.8081 46.8472 31.8161 46.8472 31.8242C46.8472 31.8323 46.8472 31.8404 46.8472 31.8486C46.8472 31.8567 46.8472 31.8648 46.8472 31.873C46.8472 31.8812 46.8472 31.8893 46.8472 31.8975C46.8472 31.9057 46.8472 31.9139 46.8472 31.9221C46.8472 31.9303 46.8472 31.9385 46.8472 31.9468C46.8472 31.955 46.8472 31.9633 46.8472 31.9715C46.8472 31.9798 46.8472 31.9881 46.8472 31.9964C46.8472 32.0047 46.8472 32.013 46.8472 32.0213C46.8472 32.0296 46.8472 32.038 46.8472 32.0463C46.8472 32.0547 46.8472 32.063 46.8472 32.0714C46.8472 32.0798 46.8472 32.0882 46.8472 32.0966C46.8472 32.105 46.8472 32.1134 46.8472 32.1218C46.8472 32.1303 46.8472 32.1387 46.8472 32.1472C46.8472 32.1556 46.8472 32.1641 46.8472 32.1726C46.8472 32.1811 46.8472 32.1896 46.8472 32.1981C46.8472 32.2066 46.8472 32.2151 46.8472 32.2237C46.8472 32.2322 46.8472 32.2407 46.8472 32.2493C46.8472 32.2579 46.8472 32.2665 46.8472 32.275C46.8472 32.2836 46.8472 32.2922 46.8472 32.3008C46.8472 32.3095 46.8472 32.3181 46.8472 32.3267C46.8472 32.3354 46.8472 32.344 46.8472 32.3527C46.8472 32.3614 46.8472 32.37 46.8472 32.3787C46.8472 32.3874 46.8472 32.3961 46.8472 32.4048C46.8472 32.4136 46.8472 32.4223 46.8472 32.431C46.8472 32.4398 46.8472 32.4485 46.8472 32.4573C46.8472 32.4661 46.8472 32.4748 46.8472 32.4836C46.8472 32.4924 46.8472 32.5012 46.8472 32.51C46.8472 32.5189 46.8472 32.5277 46.8472 32.5365C46.8472 32.5454 46.8472 32.5542 46.8472 32.5631C46.8472 32.5719 46.8472 32.5808 46.8472 32.5897C46.8472 32.5986 46.8472 32.6075 46.8472 32.6164C46.8472 32.6253 46.8472 32.6342 46.8472 32.6432C46.8472 32.6521 46.8472 32.6611 46.8472 32.67C46.8472 32.679 46.8472 32.688 46.8472 32.6969C46.8472 32.7059 46.8472 32.7149 46.8472 32.7239C46.8472 32.7329 46.8472 32.7419 46.8472 32.751C46.8472 32.76 46.8472 32.769 46.8472 32.7781C46.8472 32.7871 46.8472 32.7962 46.8472 32.8053C46.8472 32.8144 46.8472 32.8234 46.8472 32.8325C46.8472 32.8416 46.8472 32.8508 46.8472 32.8599C46.8472 32.869 46.8472 32.8781 46.8472 32.8873C46.8472 32.8964 46.8472 32.9056 46.8472 32.9147C46.8472 32.9239 46.8472 32.9331 46.8472 32.9423C46.8472 32.9514 46.8472 32.9606 46.8472 32.9698C46.8472 32.9791 46.8472 32.9883 46.8472 32.9975C46.8472 33.0067 46.8472 33.016 46.8472 33.0252C46.8472 33.0345 46.8472 33.0437 46.8472 33.053C46.8472 33.0623 46.8472 33.0716 46.8472 33.0809C46.8472 33.0902 46.8472 33.0995 46.8472 33.1088C46.8472 33.1181 46.8472 33.1274 46.8472 33.1368C46.8472 33.1461 46.8472 33.1554 46.8472 33.1648C46.8472 33.1742 46.8472 33.1835 46.8472 33.1929C46.8472 33.2023 46.8472 33.2117 46.8472 33.2211C46.8472 33.2305 46.8472 33.2399 46.8472 33.2493C46.8472 33.2587 46.8472 33.2681 46.8472 33.2776C46.8472 33.287 46.8472 33.2965 46.8472 33.3059C46.8472 33.3154 46.8472 33.3248 46.8472 33.3343C46.8472 33.3438 46.8472 33.3533 46.8472 33.3628C46.8472 33.3723 46.8472 33.3818 46.8472 33.3913C46.8472 33.4008 46.8472 33.4104 46.8472 33.4199C46.8472 33.4294 46.8472 33.439 46.8472 33.4485C46.8472 33.4581 46.8472 33.4677 46.8472 33.4772C46.8472 33.4868 46.8472 33.4964 46.8472 33.506C46.8472 33.5156 46.8472 33.5252 46.8472 33.5348C46.8472 33.5444 46.8472 33.554 46.8472 33.5637C46.8472 33.5733 46.8472 33.5829 46.8472 33.5926C46.8472 33.6022 46.8472 33.6119 46.8472 33.6216C46.8472 33.6312 46.8472 33.6409 46.8472 33.6506C46.8472 33.6603 46.8472 33.67 46.8472 33.6797C46.8472 33.6894 46.8472 33.6991 46.8472 33.7088C46.8472 33.7185 46.8472 33.7283 46.8472 33.738C46.8472 33.7477 46.8472 33.7575 46.8472 33.7672C46.8472 33.777 46.8472 33.7868 46.8472 33.7965C46.8472 33.8063 46.8472 33.8161 46.8472 33.8259C46.8472 33.8357 46.8472 33.8455 46.8472 33.8553C46.8472 33.8651 46.8472 33.8749 46.8472 33.8847C46.8472 33.8946 46.8472 33.9044 46.8472 33.9142C46.8472 33.9241 46.8472 33.9339 46.8472 33.9438C46.8472 33.9536 46.8472 33.9635 46.8472 33.9734C46.8472 33.9833 46.8472 33.9931 46.8472 34.003C46.8472 34.0129 46.8472 34.0228 46.8472 34.0327C46.8472 34.0426 46.8472 34.0526 46.8472 34.0625C46.8472 34.0724 46.8472 34.0823 46.8472 34.0923C46.8472 34.1022 46.8472 34.1122 46.8472 34.1221C46.8472 34.1321 46.8472 34.142 46.8472 34.152C46.8472 34.162 46.8472 34.1719 46.8472 34.1819C46.8472 34.1919 46.8472 34.2019 46.8472 34.2119C46.8472 34.2219 46.8472 34.2319 46.8472 34.2419C46.8472 34.2519 46.8472 34.262 46.8472 34.272C46.8472 34.282 46.8472 34.2921 46.8472 34.3021C46.8472 34.3122 46.8472 34.3222 46.8472 34.3323C46.8472 34.3423 46.8472 34.3524 46.8472 34.3625C46.8472 34.3725 46.8472 34.3826 46.8472 34.3927C46.8472 34.4028 46.8472 34.4129 46.8472 34.423C46.8472 34.4331 46.8472 34.4432 46.8472 34.4533C46.8472 34.4634 46.8472 34.4735 46.8472 34.4837C46.8472 34.4938 46.8472 34.5039 46.8472 34.5141C46.8472 34.5242 46.8472 34.5344 46.8472 34.5445C46.8472 34.5547 46.8472 34.5648 46.8472 34.575C46.8472 34.5852 46.8472 34.5954 46.8472 34.6055C46.8472 34.6157 46.8472 34.6259 46.8472 34.6361C46.8472 34.6463 46.8472 34.6565 46.8472 34.6667C46.8472 34.6769 46.8472 34.6871 46.8472 34.6974C46.8472 34.7076 46.8472 34.7178 46.8472 34.728C46.8472 34.7383 46.8472 34.7485 46.8472 34.7588C46.8472 34.769 46.8472 34.7793 46.8472 34.7895C46.8472 34.7998 46.8472 34.81 46.8472 34.8203C46.8472 34.8306 46.8472 34.8408 46.8472 34.8511C46.8472 34.8614 46.8472 34.8717 46.8472 34.882C46.8472 34.8923 46.8472 34.9026 46.8472 34.9129C46.8472 34.9232 46.8472 34.9335 46.8472 34.9438C46.8472 34.9541 46.8472 34.9645 46.8472 34.9748C46.8472 34.9851 46.8472 34.9954 46.8472 35.0058C46.8472 35.0161 46.8472 35.0265 46.8472 35.0368C46.8472 35.0472 46.8472 35.0575 46.8472 35.0679C46.8472 35.0782 46.8472 35.0886 46.8472 35.099C46.8472 35.1093 46.8472 35.1197 46.8472 35.1301C46.8472 35.1405 46.8472 35.1509 46.8472 35.1613C46.8472 35.1716 46.8472 35.182 46.8472 35.1924C46.8472 35.2028 46.8472 35.2132 46.8472 35.2237C46.8472 35.2341 46.8472 35.2445 46.8472 35.2549C46.8472 35.2653 46.8472 35.2758 46.8472 35.2862C46.8472 35.2966 46.8472 35.307 46.8472 35.3175C46.8472 35.3279 46.8472 35.3384 46.8472 35.3488C46.8472 35.3593 46.8472 35.3697 46.8472 35.3802C46.8472 35.3906 46.8472 35.4011 46.8472 35.4116C46.8472 35.422 46.8472 35.4325 46.8472 35.443C46.8472 35.4535 46.8472 35.4639 46.8472 35.4744C46.8472 35.4849 46.8472 35.4954 46.8472 35.5059C46.8472 35.5164 46.8472 35.5269 46.8472 35.5374C46.8472 35.5479 46.8472 35.5584 46.8472 35.5689C46.8472 35.5794 46.8472 35.5899 46.8472 35.6005C46.8472 35.611 46.8472 35.6215 46.8472 35.632C46.8472 35.6425 46.8472 35.6531 46.8472 35.6636C46.8472 35.6741 46.8472 35.6847 46.8472 35.6952C46.8472 35.7058 46.8472 35.7163 46.8472 35.7269C46.8472 35.7374 46.8472 35.748 46.8472 35.7585C46.8472 35.7691 46.8472 35.7796 46.8472 35.7902C46.8472 35.8008 46.8472 35.8113 46.8472 35.8219C46.8472 35.8325 46.8472 35.843 46.8472 35.8536C46.8472 35.8642 46.8472 35.8748 46.8472 35.8854C46.8472 35.8959 46.8472 35.9065 46.8472 35.9171C46.8472 35.9277 46.8472 35.9383 46.8472 35.9489C46.8472 35.9595 46.8472 35.9701 46.8472 35.9807C46.8472 35.9913 46.8472 36.0019 46.8472 36.0125C46.8472 36.0231 46.8472 36.0337 46.8472 36.0444C46.8472 36.055 46.8472 36.0656 46.8472 36.0762C46.8472 36.0868 46.8472 36.0975 46.8472 36.1081C46.8472 36.1187 46.8472 36.1293 46.8472 36.14C46.8472 36.1506 46.8472 36.1612 46.8472 36.1719C46.8472 36.1825 46.8472 36.1931 46.8472 36.2038C46.8472 36.2144 46.8472 36.2251 46.8472 36.2357C46.8472 36.2464 46.8472 36.257 46.8472 36.2677C46.8472 36.2783 46.8472 36.289 46.8472 36.2996C46.8472 36.3103 46.8472 36.3209 46.8472 36.3316C46.8472 36.3423 46.8472 36.3529 46.8472 36.3636C46.8472 36.3743 46.8472 36.3849 46.8472 36.3956C46.8472 36.4063 46.8472 36.4169 46.8472 36.4276C46.8472 36.4383 46.8472 36.449 46.8472 36.4596C46.8472 36.4703 46.8472 36.481 46.8472 36.4917C46.8472 36.5023 46.8472 36.513 46.8472 36.5237C46.8472 36.5344 46.8472 36.5451 46.8472 36.5558C46.8472 36.5665 46.8472 36.5771 46.8472 36.5878C46.8472 36.5985 46.8472 36.6092 46.8472 36.6199C46.8472 36.6306 46.8472 36.6413 46.8472 36.652C46.8472 36.6627 46.8472 36.6734 46.8472 36.6841C46.8472 36.6948 46.8472 36.7055 46.8472 36.7162C46.8472 36.7269 46.8472 36.7376 46.8472 36.7483C46.8472 36.759 46.8472 36.7697 46.8472 36.7804C46.8472 36.7911 46.8472 36.8018 46.8472 36.8125C46.8472 36.8233 46.8472 36.834 46.8472 36.8447C46.8472 36.8554 46.8472 36.8661 46.8472 36.8768C46.8472 36.8875 46.8472 36.8982 46.8472 36.909C46.8472 36.9197 46.8472 36.9304 46.8472 36.9411C46.8472 36.9518 46.8472 36.9625 46.8472 36.9732C46.8472 36.984 46.8472 36.9947 46.8472 37.0054C46.8472 37.0161 46.8472 37.0268 46.8472 37.0376C46.8472 37.0483 46.8472 37.059 46.8472 37.0697C46.8472 37.0804 46.8472 37.0912 46.8472 37.1019C46.8472 37.1126 46.8472 37.1233 46.8472 37.134C46.8472 37.1448 46.8472 37.1555 46.8472 37.1662C46.8472 37.1769 46.8472 37.1876 46.8472 37.1984C46.8472 37.2091 46.8472 37.2198 46.8472 37.2305C46.8472 37.2413 46.8472 37.252 46.8472 37.2627C46.8472 37.2734 46.8472 37.2841 46.8472 37.2949C46.8472 37.3056 46.8472 37.3163 46.8472 37.327C46.8472 37.3378 46.8472 37.3485 46.8472 37.3592C46.8472 37.3699 46.8472 37.3806 46.8472 37.3914C46.8472 37.4021 46.8472 37.4128 46.8472 37.4235C46.8472 37.4342 46.8472 37.445 46.8472 37.4557C46.8472 37.4664 46.8472 37.4771 46.8472 37.4878C46.8472 37.4985 46.8472 37.5093 46.8472 37.52C46.8472 37.5307 46.8472 37.5414 46.8472 37.5521C46.8472 37.5628 46.8472 37.5736 46.8472 37.5843C46.8472 37.595 46.8472 37.6057 46.8472 37.6164C46.8472 37.6271 46.8472 37.6378 46.8472 37.6485C46.8472 37.6592 46.8472 37.6699 46.8472 37.6807C46.8472 37.6914 46.8472 37.7021 46.8472 37.7128C46.8472 37.7235 46.8472 37.7342 46.8472 37.7449C46.8472 37.7556 46.8472 37.7663 46.8472 37.777C46.8472 37.7877 46.8472 37.7984 46.8472 37.8091C46.8472 37.8198 46.8472 37.8305 46.8472 37.8412C46.8472 37.8519 46.8472 37.8625 46.8472 37.8732C46.8472 37.8839 46.8472 37.8946 46.8472 37.9053C46.8472 37.916 46.8472 37.9267 46.8472 37.9374C46.8472 37.9481 46.8472 37.9587 46.8472 37.9694C46.8472 37.9801 46.8472 37.9908 46.8472 38.0015C46.8472 38.0121 46.8472 38.0228 46.8472 38.0335C46.8472 38.0442 46.8472 38.0548 46.8472 38.0655C46.8472 38.0762 46.8472 38.0868 46.8472 38.0975C46.8472 38.1082 46.8472 38.1188 46.8472 38.1295C46.8472 38.1401 46.8472 38.1508 46.8472 38.1615C46.8472 38.1721 46.8472 38.1828 46.8472 38.1934C46.8472 38.2041 46.8472 38.2147 46.8472 38.2254C46.8472 38.236 46.8472 38.2467 46.8472 38.2573C46.8472 38.2679 46.8472 38.2786 46.8472 38.2892C46.8472 38.2999 46.8472 38.3105 46.8472 38.3211C46.8472 38.3318 46.8472 38.3424 46.8472 38.353C46.8472 38.3636 46.8472 38.3743 46.8472 38.3849C46.8472 38.3955 46.8472 38.4061 46.8472 38.4167C46.8472 38.4274 46.8472 38.438 46.8472 38.4486C46.8472 38.4592 46.8472 38.4698 46.8472 38.4804C46.8472 38.491 46.8472 38.5016 46.8472 38.5122C46.8472 38.5228 46.8472 38.5334 46.8472 38.544C46.8472 38.5546 46.8472 38.5652 46.8472 38.5757C46.8472 38.5863 46.8472 38.5969 46.8472 38.6075C46.8472 38.6181 46.8472 38.6286 46.8472 38.6392C46.8472 38.6498 46.8472 38.6603 46.8472 38.6709C46.8472 38.6815 46.8472 38.692 46.8472 38.7026C46.8472 38.7131 46.8472 38.7237 46.8472 38.7342C46.8472 38.7448 46.8472 38.7553 46.8472 38.7659C46.8472 38.7764 46.8472 38.787 46.8472 38.7975C46.8472 38.808 46.8472 38.8186 46.8472 38.8291C46.8472 38.8396 46.8472 38.8501 46.8472 38.8607C46.8472 38.8712 46.8472 38.8817 46.8472 38.8922C46.8472 38.9027 46.8472 38.9132 46.8472 38.9237C46.8472 38.9342 46.8472 38.9447 46.8472 38.9552C46.8472 38.9657 46.8472 38.9762 46.8472 38.9867C46.8472 38.9972 46.8472 39.0076 46.8472 39.0181C46.8472 39.0286 46.8472 39.0391 46.8472 39.0495C46.8472 39.06 46.8472 39.0705 46.8472 39.0809C46.8472 39.0914 46.8472 39.1018 46.8472 39.1123C46.8472 39.1227 46.8472 39.1332 46.8472 39.1436C46.8472 39.1541 46.8472 39.1645 46.8472 39.1749C46.8472 39.1854 46.8472 39.1958 46.8472 39.2062C46.8472 39.2166 46.8472 39.2271 46.8472 39.2375C46.8472 39.2479 46.8472 39.2583 46.8472 39.2687C46.8472 39.2791 46.8472 39.2895 46.8472 39.2999C46.8472 39.3103 46.8472 39.3207 46.8472 39.331C46.8472 39.3414 46.8472 39.3518 46.8472 39.3622C46.8472 39.3725 46.8472 39.3829 46.8472 39.3933C46.8472 39.4036 46.8472 39.414 46.8472 39.4243C46.8472 39.4347 46.8472 39.445 46.8472 39.4554C46.8472 39.4657 46.8472 39.476 46.8472 39.4864C46.8472 39.4967 46.8472 39.507 46.8472 39.5173C46.8472 39.5276 46.8472 39.5379 46.8472 39.5483C46.8472 39.5586 46.8472 39.5689 46.8472 39.5792C46.8472 39.5894 46.8472 39.5997 46.8472 39.61C46.8472 39.6203 46.8472 39.6306 46.8472 39.6408C46.8472 39.6511 46.8472 39.6614 46.8472 39.6716C46.8472 39.6819 46.8472 39.6921 46.8472 39.7024C46.8472 39.7126 46.8472 39.7229 46.8472 39.7331C46.8472 39.7433 46.8472 39.7536 46.8472 39.7638C46.8472 39.774 46.8472 39.7842 46.8472 39.7944C46.8472 39.8046 46.8472 39.8149 46.8472 39.825C46.8472 39.8352 46.8472 39.8454 46.8472 39.8556C46.8472 39.8658 46.8472 39.876 46.8472 39.8861C46.8472 39.8963 46.8472 39.9065 46.8472 39.9166C46.8472 39.9268 46.8472 39.9369 46.8472 39.9471C46.8472 39.9572 46.8472 39.9674 46.8472 39.9775C46.8472 39.9876 46.8472 39.9977 46.8472 40.0079C46.8472 40.018 46.8472 40.0281 46.8472 40.0382C46.8472 40.0483 46.8472 40.0584 46.8472 40.0685C46.8472 40.0786 46.8472 40.0886 46.8472 40.0987C46.8472 40.1088 46.8472 40.1189 46.8472 40.1289C46.8472 40.139 46.8472 40.149 46.8472 40.1591C46.8472 40.1691 46.8472 40.1792 46.8472 40.1892C46.8472 40.1992 46.8472 40.2092 46.8472 40.2193C46.8472 40.2293 46.8472 40.2393 46.8472 40.2493C46.8472 40.2593 46.8472 40.2693 46.8472 40.2793C46.8472 40.2893 46.8472 40.2992 46.8472 40.3092C46.8472 40.3192 46.8472 40.3291 46.8472 40.3391C46.8472 40.349 46.8472 40.359 46.8472 40.3689C46.8472 40.3789 46.8472 40.3888 46.8472 40.3987C46.8472 40.4086 46.8472 40.4186 46.8472 40.4285C46.8472 40.4384 46.8472 40.4483 46.8472 40.4582C46.8472 40.4681 46.8472 40.4779 46.8472 40.4878C46.8472 40.4977 46.8472 40.5076 46.8472 40.5174C46.8472 40.5273 46.8472 40.5371 46.8472 40.547C46.8472 40.5568 46.8472 40.5667 46.8472 40.5765C46.8472 40.5863 46.8472 40.5961 46.8472 40.6059C46.8472 40.6157 46.8472 40.6255 46.8472 40.6353C46.8472 40.6451 46.8472 40.6549 46.8472 40.6647C46.8472 40.6745 46.8472 40.6842 46.8472 40.694C46.8472 40.7037 46.8472 40.7135 46.8472 40.7232C46.8472 40.733 46.8472 40.7427 46.8472 40.7524C46.8472 40.7621 46.8472 40.7719 46.8472 40.7816C46.8472 40.7913 46.8472 40.801 46.8472 40.8107C46.8472 40.8203 46.8472 40.83 46.8472 40.8397C46.8472 40.8494 46.8472 40.859 46.8472 40.8687C46.8472 40.8783 46.8472 40.888 46.8472 40.8976C46.8472 40.9072 46.8472 40.9168 46.8472 40.9265C46.8472 40.9361 46.8472 40.9457 46.8472 40.9553C46.8472 40.9649 46.8472 40.9745 46.8472 40.984C46.8472 40.9936 46.8472 41.0032 46.8472 41.0127C46.8472 41.0223 46.8472 41.0318 46.8472 41.0414C46.8472 41.0509 46.8472 41.0604 46.8472 41.07C46.8472 41.0795 46.8472 41.089 46.8472 41.0985C46.8472 41.108 46.8472 41.1175 46.8472 41.127C46.8472 41.1364 46.8472 41.1459 46.8472 41.1554C46.8472 41.1648 46.8472 41.1743 46.8472 41.1837C46.8472 41.1931 46.8472 41.2026 46.8472 41.212C46.8472 41.2214 46.8472 41.2308 46.8472 41.2402C46.8472 41.2496 46.8472 41.259 46.8472 41.2684C46.8472 41.2778 46.8472 41.2871 46.8472 41.2965C46.8472 41.3059 46.8472 41.3152 46.8472 41.3245C46.8472 41.3339 46.8472 41.3432 46.8472 41.3525C46.8472 41.3618 46.8472 41.3711 46.8472 41.3804C46.8472 41.3897 46.8472 41.399 46.8472 41.4083C46.8472 41.4176 46.8472 41.4268 46.8472 41.4361C46.8472 41.4453 46.8472 41.4546 46.8472 41.4638C46.8472 41.473 46.8472 41.4823 46.8472 41.4915C46.8472 41.5007 46.8472 41.5099 46.8472 41.5191C46.8472 41.5283 46.8472 41.5374 46.8472 41.5466C46.8472 41.5558 46.8472 41.5649 46.8472 41.5741C46.8472 41.5832 46.8472 41.5923 46.8472 41.6015C46.8472 41.6106 46.8472 41.6197 46.8472 41.6288C46.8472 41.6379 46.8472 41.647 46.8472 41.6561C46.8472 41.6651 46.8472 41.6742 46.8472 41.6833C46.8472 41.6923 46.8472 41.7013 46.8472 41.7104C46.8472 41.7194 46.8472 41.7284 46.8472 41.7374C46.8472 41.7464 46.8472 41.7554 46.8472 41.7644C46.8472 41.7734 46.8472 41.7824 46.8472 41.7913C46.8472 41.8003 46.8472 41.8092 46.8472 41.8182C46.8472 41.8271 46.8472 41.836 46.8472 41.845C46.8472 41.8539 46.8472 41.8628 46.8472 41.8717C46.8472 41.8806 46.8472 41.8894 46.8472 41.8983C46.8472 41.9072 46.8472 41.916 46.8472 41.9249C46.8472 41.9337 46.8472 41.9425 46.8472 41.9513C46.8472 41.9602 46.8472 41.969 46.8472 41.9778C46.8472 41.9866 46.8472 41.9953 46.8472 42.0041C46.8472 42.0129 46.8472 42.0216 46.8472 42.0304C46.8472 42.0391 46.8472 42.0478 46.8472 42.0566C46.8472 42.0653 46.8472 42.074 46.8472 42.0827C46.8472 42.0914 46.8472 42.1 46.8472 42.1087C46.8472 42.1174 46.8472 42.126 46.8472 42.1347C46.8472 42.1433 46.8472 42.152 46.8472 42.1606C46.8472 42.1692 46.8472 42.1778 46.8472 42.1864C46.8472 42.195 46.8472 42.2035 46.8472 42.2121C46.8472 42.2207 46.8472 42.2292 46.8472 42.2378C46.8472 42.2463 46.8472 42.2548 46.8472 42.2633C46.8472 42.2719 46.8472 42.2804 46.8472 42.2888C46.8472 42.2973 46.8472 42.3058 46.8472 42.3143C46.8472 42.3227 46.8472 42.3312 46.8472 42.3396C46.8472 42.348 46.8472 42.3565 46.8472 42.3649C46.8472 42.3733 46.8472 42.3817 46.8472 42.39C46.8472 42.3984 46.8472 42.4068 46.8472 42.4151C46.8472 42.4235 46.8472 42.4318 46.8472 42.4401C46.8472 42.4485 46.8472 42.4568 46.8472 42.4651C46.8472 42.4734 46.8472 42.4817 46.8472 42.4899C46.8472 42.4982 46.8472 42.5065 46.8472 42.5147C46.8472 42.5229 46.8472 42.5312 46.8472 42.5394C46.8472 42.5476 46.8472 42.5558 46.8472 42.564C46.8472 42.5722 46.8472 42.5803 46.8472 42.5885C46.8472 42.5967 46.8472 42.6048 46.8472 42.6129C46.8472 42.6211 46.8472 42.6292 46.8472 42.6373C46.8472 42.6454 46.8472 42.6535 46.8472 42.6615C46.8472 42.6696 46.8472 42.6777 46.8472 42.6857C46.8472 42.6937 46.8472 42.7018 46.8472 42.7098C46.8472 42.7178 46.8472 42.7258 46.8472 42.7338C46.8472 42.7418 46.8472 42.7497 46.8472 42.7577C46.8472 42.7656 46.8472 42.7736 46.8472 42.7815C46.8472 42.7894 46.8472 42.7973 46.8472 42.8052H47.7984C47.7984 42.7973 47.7984 42.7894 47.7984 42.7815C47.7984 42.7736 47.7984 42.7656 47.7984 42.7577C47.7984 42.7497 47.7984 42.7418 47.7984 42.7338C47.7984 42.7258 47.7984 42.7178 47.7984 42.7098C47.7984 42.7018 47.7984 42.6937 47.7984 42.6857C47.7984 42.6777 47.7984 42.6696 47.7984 42.6615C47.7984 42.6535 47.7984 42.6454 47.7984 42.6373C47.7984 42.6292 47.7984 42.6211 47.7984 42.6129C47.7984 42.6048 47.7984 42.5967 47.7984 42.5885C47.7984 42.5803 47.7984 42.5722 47.7984 42.564C47.7984 42.5558 47.7984 42.5476 47.7984 42.5394C47.7984 42.5312 47.7984 42.5229 47.7984 42.5147C47.7984 42.5065 47.7984 42.4982 47.7984 42.4899C47.7984 42.4817 47.7984 42.4734 47.7984 42.4651C47.7984 42.4568 47.7984 42.4485 47.7984 42.4401C47.7984 42.4318 47.7984 42.4235 47.7984 42.4151C47.7984 42.4068 47.7984 42.3984 47.7984 42.39C47.7984 42.3817 47.7984 42.3733 47.7984 42.3649C47.7984 42.3565 47.7984 42.348 47.7984 42.3396C47.7984 42.3312 47.7984 42.3227 47.7984 42.3143C47.7984 42.3058 47.7984 42.2973 47.7984 42.2888C47.7984 42.2804 47.7984 42.2719 47.7984 42.2633C47.7984 42.2548 47.7984 42.2463 47.7984 42.2378C47.7984 42.2292 47.7984 42.2207 47.7984 42.2121C47.7984 42.2035 47.7984 42.195 47.7984 42.1864C47.7984 42.1778 47.7984 42.1692 47.7984 42.1606C47.7984 42.152 47.7984 42.1433 47.7984 42.1347C47.7984 42.126 47.7984 42.1174 47.7984 42.1087C47.7984 42.1 47.7984 42.0914 47.7984 42.0827C47.7984 42.074 47.7984 42.0653 47.7984 42.0566C47.7984 42.0478 47.7984 42.0391 47.7984 42.0304C47.7984 42.0216 47.7984 42.0129 47.7984 42.0041C47.7984 41.9953 47.7984 41.9866 47.7984 41.9778C47.7984 41.969 47.7984 41.9602 47.7984 41.9513C47.7984 41.9425 47.7984 41.9337 47.7984 41.9249C47.7984 41.916 47.7984 41.9072 47.7984 41.8983C47.7984 41.8894 47.7984 41.8806 47.7984 41.8717C47.7984 41.8628 47.7984 41.8539 47.7984 41.845C47.7984 41.836 47.7984 41.8271 47.7984 41.8182C47.7984 41.8092 47.7984 41.8003 47.7984 41.7913C47.7984 41.7824 47.7984 41.7734 47.7984 41.7644C47.7984 41.7554 47.7984 41.7464 47.7984 41.7374C47.7984 41.7284 47.7984 41.7194 47.7984 41.7104C47.7984 41.7013 47.7984 41.6923 47.7984 41.6833C47.7984 41.6742 47.7984 41.6651 47.7984 41.6561C47.7984 41.647 47.7984 41.6379 47.7984 41.6288C47.7984 41.6197 47.7984 41.6106 47.7984 41.6015C47.7984 41.5923 47.7984 41.5832 47.7984 41.5741C47.7984 41.5649 47.7984 41.5558 47.7984 41.5466C47.7984 41.5374 47.7984 41.5283 47.7984 41.5191C47.7984 41.5099 47.7984 41.5007 47.7984 41.4915C47.7984 41.4823 47.7984 41.473 47.7984 41.4638C47.7984 41.4546 47.7984 41.4453 47.7984 41.4361C47.7984 41.4268 47.7984 41.4176 47.7984 41.4083C47.7984 41.399 47.7984 41.3897 47.7984 41.3804C47.7984 41.3711 47.7984 41.3618 47.7984 41.3525C47.7984 41.3432 47.7984 41.3339 47.7984 41.3245C47.7984 41.3152 47.7984 41.3059 47.7984 41.2965C47.7984 41.2871 47.7984 41.2778 47.7984 41.2684C47.7984 41.259 47.7984 41.2496 47.7984 41.2402C47.7984 41.2308 47.7984 41.2214 47.7984 41.212C47.7984 41.2026 47.7984 41.1931 47.7984 41.1837C47.7984 41.1743 47.7984 41.1648 47.7984 41.1554C47.7984 41.1459 47.7984 41.1364 47.7984 41.127C47.7984 41.1175 47.7984 41.108 47.7984 41.0985C47.7984 41.089 47.7984 41.0795 47.7984 41.07C47.7984 41.0604 47.7984 41.0509 47.7984 41.0414C47.7984 41.0318 47.7984 41.0223 47.7984 41.0127C47.7984 41.0032 47.7984 40.9936 47.7984 40.984C47.7984 40.9745 47.7984 40.9649 47.7984 40.9553C47.7984 40.9457 47.7984 40.9361 47.7984 40.9265C47.7984 40.9168 47.7984 40.9072 47.7984 40.8976C47.7984 40.888 47.7984 40.8783 47.7984 40.8687C47.7984 40.859 47.7984 40.8494 47.7984 40.8397C47.7984 40.83 47.7984 40.8203 47.7984 40.8107C47.7984 40.801 47.7984 40.7913 47.7984 40.7816C47.7984 40.7719 47.7984 40.7621 47.7984 40.7524C47.7984 40.7427 47.7984 40.733 47.7984 40.7232C47.7984 40.7135 47.7984 40.7037 47.7984 40.694C47.7984 40.6842 47.7984 40.6745 47.7984 40.6647C47.7984 40.6549 47.7984 40.6451 47.7984 40.6353C47.7984 40.6255 47.7984 40.6157 47.7984 40.6059C47.7984 40.5961 47.7984 40.5863 47.7984 40.5765C47.7984 40.5667 47.7984 40.5568 47.7984 40.547C47.7984 40.5371 47.7984 40.5273 47.7984 40.5174C47.7984 40.5076 47.7984 40.4977 47.7984 40.4878C47.7984 40.4779 47.7984 40.4681 47.7984 40.4582C47.7984 40.4483 47.7984 40.4384 47.7984 40.4285C47.7984 40.4186 47.7984 40.4086 47.7984 40.3987C47.7984 40.3888 47.7984 40.3789 47.7984 40.3689C47.7984 40.359 47.7984 40.349 47.7984 40.3391C47.7984 40.3291 47.7984 40.3192 47.7984 40.3092C47.7984 40.2992 47.7984 40.2893 47.7984 40.2793C47.7984 40.2693 47.7984 40.2593 47.7984 40.2493C47.7984 40.2393 47.7984 40.2293 47.7984 40.2193C47.7984 40.2092 47.7984 40.1992 47.7984 40.1892C47.7984 40.1792 47.7984 40.1691 47.7984 40.1591C47.7984 40.149 47.7984 40.139 47.7984 40.1289C47.7984 40.1189 47.7984 40.1088 47.7984 40.0987C47.7984 40.0886 47.7984 40.0786 47.7984 40.0685C47.7984 40.0584 47.7984 40.0483 47.7984 40.0382C47.7984 40.0281 47.7984 40.018 47.7984 40.0079C47.7984 39.9977 47.7984 39.9876 47.7984 39.9775C47.7984 39.9674 47.7984 39.9572 47.7984 39.9471C47.7984 39.9369 47.7984 39.9268 47.7984 39.9166C47.7984 39.9065 47.7984 39.8963 47.7984 39.8861C47.7984 39.876 47.7984 39.8658 47.7984 39.8556C47.7984 39.8454 47.7984 39.8352 47.7984 39.825C47.7984 39.8149 47.7984 39.8046 47.7984 39.7944C47.7984 39.7842 47.7984 39.774 47.7984 39.7638C47.7984 39.7536 47.7984 39.7433 47.7984 39.7331C47.7984 39.7229 47.7984 39.7126 47.7984 39.7024C47.7984 39.6921 47.7984 39.6819 47.7984 39.6716C47.7984 39.6614 47.7984 39.6511 47.7984 39.6408C47.7984 39.6306 47.7984 39.6203 47.7984 39.61C47.7984 39.5997 47.7984 39.5894 47.7984 39.5792C47.7984 39.5689 47.7984 39.5586 47.7984 39.5483C47.7984 39.5379 47.7984 39.5276 47.7984 39.5173C47.7984 39.507 47.7984 39.4967 47.7984 39.4864C47.7984 39.476 47.7984 39.4657 47.7984 39.4554C47.7984 39.445 47.7984 39.4347 47.7984 39.4243C47.7984 39.414 47.7984 39.4036 47.7984 39.3933C47.7984 39.3829 47.7984 39.3725 47.7984 39.3622C47.7984 39.3518 47.7984 39.3414 47.7984 39.331C47.7984 39.3207 47.7984 39.3103 47.7984 39.2999C47.7984 39.2895 47.7984 39.2791 47.7984 39.2687C47.7984 39.2583 47.7984 39.2479 47.7984 39.2375C47.7984 39.2271 47.7984 39.2166 47.7984 39.2062C47.7984 39.1958 47.7984 39.1854 47.7984 39.1749C47.7984 39.1645 47.7984 39.1541 47.7984 39.1436C47.7984 39.1332 47.7984 39.1227 47.7984 39.1123C47.7984 39.1018 47.7984 39.0914 47.7984 39.0809C47.7984 39.0705 47.7984 39.06 47.7984 39.0495C47.7984 39.0391 47.7984 39.0286 47.7984 39.0181C47.7984 39.0076 47.7984 38.9972 47.7984 38.9867C47.7984 38.9762 47.7984 38.9657 47.7984 38.9552C47.7984 38.9447 47.7984 38.9342 47.7984 38.9237C47.7984 38.9132 47.7984 38.9027 47.7984 38.8922C47.7984 38.8817 47.7984 38.8712 47.7984 38.8607C47.7984 38.8501 47.7984 38.8396 47.7984 38.8291C47.7984 38.8186 47.7984 38.808 47.7984 38.7975C47.7984 38.787 47.7984 38.7764 47.7984 38.7659C47.7984 38.7553 47.7984 38.7448 47.7984 38.7342C47.7984 38.7237 47.7984 38.7131 47.7984 38.7026C47.7984 38.692 47.7984 38.6815 47.7984 38.6709C47.7984 38.6603 47.7984 38.6498 47.7984 38.6392C47.7984 38.6286 47.7984 38.6181 47.7984 38.6075C47.7984 38.5969 47.7984 38.5863 47.7984 38.5757C47.7984 38.5652 47.7984 38.5546 47.7984 38.544C47.7984 38.5334 47.7984 38.5228 47.7984 38.5122C47.7984 38.5016 47.7984 38.491 47.7984 38.4804C47.7984 38.4698 47.7984 38.4592 47.7984 38.4486C47.7984 38.438 47.7984 38.4274 47.7984 38.4167C47.7984 38.4061 47.7984 38.3955 47.7984 38.3849C47.7984 38.3743 47.7984 38.3636 47.7984 38.353C47.7984 38.3424 47.7984 38.3318 47.7984 38.3211C47.7984 38.3105 47.7984 38.2999 47.7984 38.2892C47.7984 38.2786 47.7984 38.2679 47.7984 38.2573C47.7984 38.2467 47.7984 38.236 47.7984 38.2254C47.7984 38.2147 47.7984 38.2041 47.7984 38.1934C47.7984 38.1828 47.7984 38.1721 47.7984 38.1615C47.7984 38.1508 47.7984 38.1401 47.7984 38.1295C47.7984 38.1188 47.7984 38.1082 47.7984 38.0975C47.7984 38.0868 47.7984 38.0762 47.7984 38.0655C47.7984 38.0548 47.7984 38.0442 47.7984 38.0335C47.7984 38.0228 47.7984 38.0121 47.7984 38.0015C47.7984 37.9908 47.7984 37.9801 47.7984 37.9694C47.7984 37.9587 47.7984 37.9481 47.7984 37.9374C47.7984 37.9267 47.7984 37.916 47.7984 37.9053C47.7984 37.8946 47.7984 37.8839 47.7984 37.8732C47.7984 37.8625 47.7984 37.8519 47.7984 37.8412C47.7984 37.8305 47.7984 37.8198 47.7984 37.8091C47.7984 37.7984 47.7984 37.7877 47.7984 37.777C47.7984 37.7663 47.7984 37.7556 47.7984 37.7449C47.7984 37.7342 47.7984 37.7235 47.7984 37.7128C47.7984 37.7021 47.7984 37.6914 47.7984 37.6807C47.7984 37.6699 47.7984 37.6592 47.7984 37.6485C47.7984 37.6378 47.7984 37.6271 47.7984 37.6164C47.7984 37.6057 47.7984 37.595 47.7984 37.5843C47.7984 37.5736 47.7984 37.5628 47.7984 37.5521C47.7984 37.5414 47.7984 37.5307 47.7984 37.52C47.7984 37.5093 47.7984 37.4985 47.7984 37.4878C47.7984 37.4771 47.7984 37.4664 47.7984 37.4557C47.7984 37.445 47.7984 37.4342 47.7984 37.4235C47.7984 37.4128 47.7984 37.4021 47.7984 37.3914C47.7984 37.3806 47.7984 37.3699 47.7984 37.3592C47.7984 37.3485 47.7984 37.3378 47.7984 37.327C47.7984 37.3163 47.7984 37.3056 47.7984 37.2949C47.7984 37.2841 47.7984 37.2734 47.7984 37.2627C47.7984 37.252 47.7984 37.2413 47.7984 37.2305C47.7984 37.2198 47.7984 37.2091 47.7984 37.1984C47.7984 37.1876 47.7984 37.1769 47.7984 37.1662C47.7984 37.1555 47.7984 37.1448 47.7984 37.134C47.7984 37.1233 47.7984 37.1126 47.7984 37.1019C47.7984 37.0912 47.7984 37.0804 47.7984 37.0697C47.7984 37.059 47.7984 37.0483 47.7984 37.0376C47.7984 37.0268 47.7984 37.0161 47.7984 37.0054C47.7984 36.9947 47.7984 36.984 47.7984 36.9732C47.7984 36.9625 47.7984 36.9518 47.7984 36.9411C47.7984 36.9304 47.7984 36.9197 47.7984 36.909C47.7984 36.8982 47.7984 36.8875 47.7984 36.8768C47.7984 36.8661 47.7984 36.8554 47.7984 36.8447C47.7984 36.834 47.7984 36.8233 47.7984 36.8125C47.7984 36.8018 47.7984 36.7911 47.7984 36.7804C47.7984 36.7697 47.7984 36.759 47.7984 36.7483C47.7984 36.7376 47.7984 36.7269 47.7984 36.7162C47.7984 36.7055 47.7984 36.6948 47.7984 36.6841C47.7984 36.6734 47.7984 36.6627 47.7984 36.652C47.7984 36.6413 47.7984 36.6306 47.7984 36.6199C47.7984 36.6092 47.7984 36.5985 47.7984 36.5878C47.7984 36.5771 47.7984 36.5665 47.7984 36.5558C47.7984 36.5451 47.7984 36.5344 47.7984 36.5237C47.7984 36.513 47.7984 36.5023 47.7984 36.4917C47.7984 36.481 47.7984 36.4703 47.7984 36.4596C47.7984 36.449 47.7984 36.4383 47.7984 36.4276C47.7984 36.4169 47.7984 36.4063 47.7984 36.3956C47.7984 36.3849 47.7984 36.3743 47.7984 36.3636C47.7984 36.3529 47.7984 36.3423 47.7984 36.3316C47.7984 36.3209 47.7984 36.3103 47.7984 36.2996C47.7984 36.289 47.7984 36.2783 47.7984 36.2677C47.7984 36.257 47.7984 36.2464 47.7984 36.2357C47.7984 36.2251 47.7984 36.2144 47.7984 36.2038C47.7984 36.1931 47.7984 36.1825 47.7984 36.1719C47.7984 36.1612 47.7984 36.1506 47.7984 36.14C47.7984 36.1293 47.7984 36.1187 47.7984 36.1081C47.7984 36.0975 47.7984 36.0868 47.7984 36.0762C47.7984 36.0656 47.7984 36.055 47.7984 36.0444C47.7984 36.0337 47.7984 36.0231 47.7984 36.0125C47.7984 36.0019 47.7984 35.9913 47.7984 35.9807C47.7984 35.9701 47.7984 35.9595 47.7984 35.9489C47.7984 35.9383 47.7984 35.9277 47.7984 35.9171C47.7984 35.9065 47.7984 35.8959 47.7984 35.8854C47.7984 35.8748 47.7984 35.8642 47.7984 35.8536C47.7984 35.843 47.7984 35.8325 47.7984 35.8219C47.7984 35.8113 47.7984 35.8008 47.7984 35.7902C47.7984 35.7796 47.7984 35.7691 47.7984 35.7585C47.7984 35.748 47.7984 35.7374 47.7984 35.7269C47.7984 35.7163 47.7984 35.7058 47.7984 35.6952C47.7984 35.6847 47.7984 35.6741 47.7984 35.6636C47.7984 35.6531 47.7984 35.6425 47.7984 35.632C47.7984 35.6215 47.7984 35.611 47.7984 35.6005C47.7984 35.5899 47.7984 35.5794 47.7984 35.5689C47.7984 35.5584 47.7984 35.5479 47.7984 35.5374C47.7984 35.5269 47.7984 35.5164 47.7984 35.5059C47.7984 35.4954 47.7984 35.4849 47.7984 35.4744C47.7984 35.4639 47.7984 35.4535 47.7984 35.443C47.7984 35.4325 47.7984 35.422 47.7984 35.4116C47.7984 35.4011 47.7984 35.3906 47.7984 35.3802C47.7984 35.3697 47.7984 35.3593 47.7984 35.3488C47.7984 35.3384 47.7984 35.3279 47.7984 35.3175C47.7984 35.307 47.7984 35.2966 47.7984 35.2862C47.7984 35.2758 47.7984 35.2653 47.7984 35.2549C47.7984 35.2445 47.7984 35.2341 47.7984 35.2237C47.7984 35.2132 47.7984 35.2028 47.7984 35.1924C47.7984 35.182 47.7984 35.1716 47.7984 35.1613C47.7984 35.1509 47.7984 35.1405 47.7984 35.1301C47.7984 35.1197 47.7984 35.1093 47.7984 35.099C47.7984 35.0886 47.7984 35.0782 47.7984 35.0679C47.7984 35.0575 47.7984 35.0472 47.7984 35.0368C47.7984 35.0265 47.7984 35.0161 47.7984 35.0058C47.7984 34.9954 47.7984 34.9851 47.7984 34.9748C47.7984 34.9645 47.7984 34.9541 47.7984 34.9438C47.7984 34.9335 47.7984 34.9232 47.7984 34.9129C47.7984 34.9026 47.7984 34.8923 47.7984 34.882C47.7984 34.8717 47.7984 34.8614 47.7984 34.8511C47.7984 34.8408 47.7984 34.8306 47.7984 34.8203C47.7984 34.81 47.7984 34.7998 47.7984 34.7895C47.7984 34.7793 47.7984 34.769 47.7984 34.7588C47.7984 34.7485 47.7984 34.7383 47.7984 34.728C47.7984 34.7178 47.7984 34.7076 47.7984 34.6974C47.7984 34.6871 47.7984 34.6769 47.7984 34.6667C47.7984 34.6565 47.7984 34.6463 47.7984 34.6361C47.7984 34.6259 47.7984 34.6157 47.7984 34.6055C47.7984 34.5954 47.7984 34.5852 47.7984 34.575C47.7984 34.5648 47.7984 34.5547 47.7984 34.5445C47.7984 34.5344 47.7984 34.5242 47.7984 34.5141C47.7984 34.5039 47.7984 34.4938 47.7984 34.4837C47.7984 34.4735 47.7984 34.4634 47.7984 34.4533C47.7984 34.4432 47.7984 34.4331 47.7984 34.423C47.7984 34.4129 47.7984 34.4028 47.7984 34.3927C47.7984 34.3826 47.7984 34.3725 47.7984 34.3625C47.7984 34.3524 47.7984 34.3423 47.7984 34.3323C47.7984 34.3222 47.7984 34.3122 47.7984 34.3021C47.7984 34.2921 47.7984 34.282 47.7984 34.272C47.7984 34.262 47.7984 34.2519 47.7984 34.2419C47.7984 34.2319 47.7984 34.2219 47.7984 34.2119C47.7984 34.2019 47.7984 34.1919 47.7984 34.1819C47.7984 34.1719 47.7984 34.162 47.7984 34.152C47.7984 34.142 47.7984 34.1321 47.7984 34.1221C47.7984 34.1122 47.7984 34.1022 47.7984 34.0923C47.7984 34.0823 47.7984 34.0724 47.7984 34.0625C47.7984 34.0526 47.7984 34.0426 47.7984 34.0327C47.7984 34.0228 47.7984 34.0129 47.7984 34.003C47.7984 33.9931 47.7984 33.9833 47.7984 33.9734C47.7984 33.9635 47.7984 33.9536 47.7984 33.9438C47.7984 33.9339 47.7984 33.9241 47.7984 33.9142C47.7984 33.9044 47.7984 33.8946 47.7984 33.8847C47.7984 33.8749 47.7984 33.8651 47.7984 33.8553C47.7984 33.8455 47.7984 33.8357 47.7984 33.8259C47.7984 33.8161 47.7984 33.8063 47.7984 33.7965C47.7984 33.7868 47.7984 33.777 47.7984 33.7672C47.7984 33.7575 47.7984 33.7477 47.7984 33.738C47.7984 33.7283 47.7984 33.7185 47.7984 33.7088C47.7984 33.6991 47.7984 33.6894 47.7984 33.6797C47.7984 33.67 47.7984 33.6603 47.7984 33.6506C47.7984 33.6409 47.7984 33.6312 47.7984 33.6216C47.7984 33.6119 47.7984 33.6022 47.7984 33.5926C47.7984 33.5829 47.7984 33.5733 47.7984 33.5637C47.7984 33.554 47.7984 33.5444 47.7984 33.5348C47.7984 33.5252 47.7984 33.5156 47.7984 33.506C47.7984 33.4964 47.7984 33.4868 47.7984 33.4772C47.7984 33.4677 47.7984 33.4581 47.7984 33.4485C47.7984 33.439 47.7984 33.4294 47.7984 33.4199C47.7984 33.4104 47.7984 33.4008 47.7984 33.3913C47.7984 33.3818 47.7984 33.3723 47.7984 33.3628C47.7984 33.3533 47.7984 33.3438 47.7984 33.3343C47.7984 33.3248 47.7984 33.3154 47.7984 33.3059C47.7984 33.2965 47.7984 33.287 47.7984 33.2776C47.7984 33.2681 47.7984 33.2587 47.7984 33.2493C47.7984 33.2399 47.7984 33.2305 47.7984 33.2211C47.7984 33.2117 47.7984 33.2023 47.7984 33.1929C47.7984 33.1835 47.7984 33.1742 47.7984 33.1648C47.7984 33.1554 47.7984 33.1461 47.7984 33.1368C47.7984 33.1274 47.7984 33.1181 47.7984 33.1088C47.7984 33.0995 47.7984 33.0902 47.7984 33.0809C47.7984 33.0716 47.7984 33.0623 47.7984 33.053C47.7984 33.0437 47.7984 33.0345 47.7984 33.0252C47.7984 33.016 47.7984 33.0067 47.7984 32.9975C47.7984 32.9883 47.7984 32.9791 47.7984 32.9698C47.7984 32.9606 47.7984 32.9514 47.7984 32.9423C47.7984 32.9331 47.7984 32.9239 47.7984 32.9147C47.7984 32.9056 47.7984 32.8964 47.7984 32.8873C47.7984 32.8781 47.7984 32.869 47.7984 32.8599C47.7984 32.8508 47.7984 32.8416 47.7984 32.8325C47.7984 32.8234 47.7984 32.8144 47.7984 32.8053C47.7984 32.7962 47.7984 32.7871 47.7984 32.7781C47.7984 32.769 47.7984 32.76 47.7984 32.751C47.7984 32.7419 47.7984 32.7329 47.7984 32.7239C47.7984 32.7149 47.7984 32.7059 47.7984 32.6969C47.7984 32.688 47.7984 32.679 47.7984 32.67C47.7984 32.6611 47.7984 32.6521 47.7984 32.6432C47.7984 32.6342 47.7984 32.6253 47.7984 32.6164C47.7984 32.6075 47.7984 32.5986 47.7984 32.5897C47.7984 32.5808 47.7984 32.5719 47.7984 32.5631C47.7984 32.5542 47.7984 32.5454 47.7984 32.5365C47.7984 32.5277 47.7984 32.5189 47.7984 32.51C47.7984 32.5012 47.7984 32.4924 47.7984 32.4836C47.7984 32.4748 47.7984 32.4661 47.7984 32.4573C47.7984 32.4485 47.7984 32.4398 47.7984 32.431C47.7984 32.4223 47.7984 32.4136 47.7984 32.4048C47.7984 32.3961 47.7984 32.3874 47.7984 32.3787C47.7984 32.37 47.7984 32.3614 47.7984 32.3527C47.7984 32.344 47.7984 32.3354 47.7984 32.3267C47.7984 32.3181 47.7984 32.3095 47.7984 32.3008C47.7984 32.2922 47.7984 32.2836 47.7984 32.275C47.7984 32.2665 47.7984 32.2579 47.7984 32.2493C47.7984 32.2407 47.7984 32.2322 47.7984 32.2237C47.7984 32.2151 47.7984 32.2066 47.7984 32.1981C47.7984 32.1896 47.7984 32.1811 47.7984 32.1726C47.7984 32.1641 47.7984 32.1556 47.7984 32.1472C47.7984 32.1387 47.7984 32.1303 47.7984 32.1218C47.7984 32.1134 47.7984 32.105 47.7984 32.0966C47.7984 32.0882 47.7984 32.0798 47.7984 32.0714C47.7984 32.063 47.7984 32.0547 47.7984 32.0463C47.7984 32.038 47.7984 32.0296 47.7984 32.0213C47.7984 32.013 47.7984 32.0047 47.7984 31.9964C47.7984 31.9881 47.7984 31.9798 47.7984 31.9715C47.7984 31.9633 47.7984 31.955 47.7984 31.9468C47.7984 31.9385 47.7984 31.9303 47.7984 31.9221C47.7984 31.9139 47.7984 31.9057 47.7984 31.8975C47.7984 31.8893 47.7984 31.8812 47.7984 31.873C47.7984 31.8648 47.7984 31.8567 47.7984 31.8486C47.7984 31.8404 47.7984 31.8323 47.7984 31.8242C47.7984 31.8161 47.7984 31.8081 47.7984 31.8C47.7984 31.7919 47.7984 31.7839 47.7984 31.7758C47.7984 31.7678 47.7984 31.7597 47.7984 31.7517C47.7984 31.7437 47.7984 31.7357 47.7984 31.7277C47.7984 31.7198 47.7984 31.7118 47.7984 31.7038C47.7984 31.6959 47.7984 31.6879 47.7984 31.68C47.7984 31.6721 47.7984 31.6642 47.7984 31.6563C47.7984 31.6484 47.7984 31.6405 47.7984 31.6327C47.7984 31.6248 47.7984 31.6169 47.7984 31.6091C47.7984 31.6013 47.7984 31.5935 47.7984 31.5856C47.7984 31.5778 47.7984 31.5701 47.7984 31.5623C47.7984 31.5545 47.7984 31.5467 47.7984 31.539C47.7984 31.5313 47.7984 31.5235 47.7984 31.5158C47.7984 31.5081 47.7984 31.5004 47.7984 31.4927C47.7984 31.485 47.7984 31.4774 47.7984 31.4697C47.7984 31.4621 47.7984 31.4544 47.7984 31.4468C47.7984 31.4392 47.7984 31.4316 47.7984 31.424C47.7984 31.4164 47.7984 31.4088 47.7984 31.4013C47.7984 31.3937 47.7984 31.3862 47.7984 31.3787C47.7984 31.3711 47.7984 31.3636 47.7984 31.3561C47.7984 31.3486 47.7984 31.3412 47.7984 31.3337C47.7984 31.3262 47.7984 31.3188 47.7984 31.3114C47.7984 31.3039 47.7984 31.2965 47.7984 31.2891C47.7984 31.2817 47.7984 31.2743 47.7984 31.267C47.7984 31.2596 47.7984 31.2523 47.7984 31.2449C47.7984 31.2376 47.7984 31.2303 47.7984 31.223C47.7984 31.2157 47.7984 31.2084 47.7984 31.2011C47.7984 31.1939 47.7984 31.1866 47.7984 31.1794C47.7984 31.1721 47.7984 31.1649 47.7984 31.1577C47.7984 31.1505 47.7984 31.1433 47.7984 31.1362C47.7984 31.129 47.7984 31.1218 47.7984 31.1147C47.7984 31.1076 47.7984 31.1005 47.7984 31.0934C47.7984 31.0863 47.7984 31.0792 47.7984 31.0721C47.7984 31.065 47.7984 31.058 47.7984 31.0509C47.7984 31.0439 47.7984 31.0369 47.7984 31.0299C47.7984 31.0229 47.7984 31.0159 47.7984 31.009C47.7984 31.002 47.7984 30.995 47.7984 30.9881C47.7984 30.9812 47.7984 30.9743 47.7984 30.9674C47.7984 30.9605 47.7984 30.9536 47.7984 30.9467C47.7984 30.9399 47.7984 30.933 47.7984 30.9262C47.7984 30.9194 47.7984 30.9126 47.7984 30.9058C47.7984 30.899 47.7984 30.8922 47.7984 30.8854C47.7984 30.8787 47.7984 30.872 47.7984 30.8652C47.7984 30.8585 47.7984 30.8518 47.7984 30.8451C47.7984 30.8384 47.7984 30.8318 47.7984 30.8251C47.7984 30.8185 47.7984 30.8118 47.7984 30.8052C47.7984 30.7986 47.7984 30.792 47.7984 30.7854C47.7984 30.7789 47.7984 30.7723 47.7984 30.7657C47.7984 30.7592 47.7984 30.7527 47.7984 30.7462C47.7984 30.7397 47.7984 30.7332 47.7984 30.7267C47.7984 30.7202 47.7984 30.7138 47.7984 30.7074C47.7984 30.7009 47.7984 30.6945 47.7984 30.6881C47.7984 30.6817 47.7984 30.6753 47.7984 30.669C47.7984 30.6626 47.7984 30.6563 47.7984 30.65C47.7984 30.6436 47.7984 30.6373 47.7984 30.631C47.7984 30.6248 47.7984 30.6185 47.7984 30.6122C47.7984 30.606 47.7984 30.5998 47.7984 30.5936C47.7984 30.5873 47.7984 30.5812 47.7984 30.575C47.7984 30.5688 47.7984 30.5627 47.7984 30.5565C47.7984 30.5504 47.7984 30.5443 47.7984 30.5382C47.7984 30.5321 47.7984 30.526 47.7984 30.5199C47.7984 30.5139 47.7984 30.5078 47.7984 30.5018C47.7984 30.4958 47.7984 30.4898 47.7984 30.4838C47.7984 30.4778 47.7984 30.4719 47.7984 30.4659C47.7984 30.46 47.7984 30.4541 47.7984 30.4482C47.7984 30.4423 47.7984 30.4364 47.7984 30.4305C47.7984 30.4246 47.7984 30.4188 47.7984 30.413C47.7984 30.4071 47.7984 30.4013 47.7984 30.3955C47.7984 30.3898 47.7984 30.384 47.7984 30.3782C47.7984 30.3725 47.7984 30.3668 47.7984 30.3611C47.7984 30.3554 47.7984 30.3497 47.7984 30.344C47.7984 30.3383 47.7984 30.3327 47.7984 30.327C47.7984 30.3214 47.7984 30.3158 47.7984 30.3102C47.7984 30.3046 47.7984 30.2991 47.7984 30.2935C47.7984 30.288 47.7984 30.2824 47.7984 30.2769C47.7984 30.2714 47.7984 30.2659 47.7984 30.2605C47.7984 30.255 47.7984 30.2496 47.7984 30.2441C47.7984 30.2387 47.7984 30.2333 47.7984 30.2279C47.7984 30.2225 47.7984 30.2172 47.7984 30.2118C47.7984 30.2065 47.7984 30.2011 47.7984 30.1958C47.7984 30.1905 47.7984 30.1852 47.7984 30.18C47.7984 30.1747 47.7984 30.1695 47.7984 30.1643C47.7984 30.159 47.7984 30.1538 47.7984 30.1487C47.7984 30.1435 47.7984 30.1383 47.7984 30.1332C47.7984 30.128 47.7984 30.1229 47.7984 30.1178C47.7984 30.1127 47.7984 30.1077 47.7984 30.1026C47.7984 30.0975 47.7984 30.0925 47.7984 30.0875C47.7984 30.0825 47.7984 30.0775 47.7984 30.0725C47.7984 30.0676 47.7984 30.0626 47.7984 30.0577C47.7984 30.0528 47.7984 30.0478 47.7984 30.043C47.7984 30.0381 47.7984 30.0332 47.7984 30.0284C47.7984 30.0235 47.7984 30.0187 47.7984 30.0139C47.7984 30.0091 47.7984 30.0043 47.7984 29.9996C47.7984 29.9948 47.7984 29.9901 47.7984 29.9854C47.7984 29.9807 47.7984 29.976 47.7984 29.9713C47.7984 29.9666 47.7984 29.962 47.7984 29.9574C47.7984 29.9527 47.7984 29.9481 47.7984 29.9436C47.7984 29.939 47.7984 29.9344 47.7984 29.9299C47.7984 29.9253 47.7984 29.9208 47.7984 29.9163C47.7984 29.9118 47.7984 29.9074 47.7984 29.9029C47.7984 29.8985 47.7984 29.894 47.7984 29.8896C47.7984 29.8852 47.7984 29.8809 47.7984 29.8765C47.7984 29.8721 47.7984 29.8678 47.7984 29.8635C47.7984 29.8592 47.7984 29.8549 47.7984 29.8506C47.7984 29.8463 47.7984 29.8421 47.7984 29.8379C47.7984 29.8336 47.7984 29.8294 47.7984 29.8253C47.7984 29.8211 47.7984 29.8169 47.7984 29.8128C47.7984 29.8086 47.7984 29.8045 47.7984 29.8004C47.7984 29.7964 47.7984 29.7923 47.7984 29.7882C47.7984 29.7842 47.7984 29.7802 47.7984 29.7762C47.7984 29.7722 47.7984 29.7682 47.7984 29.7643C47.7984 29.7603 47.7984 29.7564 47.7984 29.7525C47.7984 29.7486 47.7984 29.7447 47.7984 29.7408C47.7984 29.737 47.7984 29.7331 47.7984 29.7293C47.7984 29.7255 47.7984 29.7217 47.7984 29.7179C47.7984 29.7142 47.7984 29.7104 47.7984 29.7067C47.7984 29.703 47.7984 29.6993 47.7984 29.6956C47.7984 29.692 47.7984 29.6883 47.7984 29.6847C47.7984 29.6811 47.7984 29.6775 47.7984 29.6739C47.7984 29.6703 47.7984 29.6667 47.7984 29.6632C47.7984 29.6597 47.7984 29.6562 47.7984 29.6527C47.7984 29.6492 47.7984 29.6457 47.7984 29.6423C47.7984 29.6389 47.7984 29.6355 47.7984 29.6321C47.7984 29.6287 47.7984 29.6253 47.7984 29.622C47.7984 29.6186 47.7984 29.6153 47.7984 29.612C47.7984 29.6087 47.7984 29.6055 47.7984 29.6022C47.7984 29.599 47.7984 29.5958 47.7984 29.5926C47.7984 29.5894 47.7984 29.5862 47.7984 29.5831C47.7984 29.5799 47.7984 29.5768 47.7984 29.5737C47.7984 29.5706 47.7984 29.5675 47.7984 29.5645C47.7984 29.5614 47.7984 29.5584 47.7984 29.5554C47.7984 29.5524 47.7984 29.5494 47.7984 29.5465C47.7984 29.5435 47.7984 29.5406 47.7984 29.5377C47.7984 29.5348 47.7984 29.5319 47.7984 29.5291C47.7984 29.5262 47.7984 29.5234 47.7984 29.5206C47.7984 29.5178 47.7984 29.515 47.7984 29.5123C47.7984 29.5095 47.7984 29.5068 47.7984 29.5041C47.7984 29.5014 47.7984 29.4987 47.7984 29.4961C47.7984 29.4934 47.7984 29.4908 47.7984 29.4882H46.8472ZM46.8472 42.8052C46.8472 43.4809 46.2901 43.9943 45.658 43.9943V44.9455C46.7893 44.9455 47.7984 44.032 47.7984 42.8052H46.8472ZM45.658 43.9943C45.2854 43.9943 44.9894 43.8737 44.7913 43.6911C44.5969 43.512 44.4689 43.2484 44.4689 42.8984H43.5177C43.5177 43.4996 43.7464 44.0217 44.1466 44.3906C44.543 44.7559 45.0793 44.9455 45.658 44.9455V43.9943ZM44.4689 42.8984V39.8069H43.5177V42.8984H44.4689ZM44.4689 39.8069V30.2016H43.5177V39.8069H44.4689ZM43.82 39.364L38.5885 41.4111L38.9351 42.2969L44.1666 40.2498L43.82 39.364ZM38.2862 41.854V58.2626H39.2374V41.854H38.2862ZM38.3063 58.1259C38.173 58.57 38.079 58.9946 37.8165 59.3446C37.5886 59.6485 37.2014 59.9272 36.3838 59.9272V60.8784C37.4686 60.8784 38.1515 60.4834 38.5775 59.9153C38.969 59.3933 39.1128 58.7478 39.2174 58.3992L38.3063 58.1259ZM36.3838 59.9272C35.4574 59.9272 34.9569 59.1889 34.9569 58.7382H34.0057C34.0057 59.7143 34.9321 60.8784 36.3838 60.8784V59.9272ZM42.5667 30.2071L42.8043 50.8961L43.7555 50.8852L43.5179 30.1961L42.5667 30.2071ZM42.8135 50.7973C42.7904 50.9131 42.6877 51.1847 42.4577 51.4208C42.2412 51.643 41.9057 51.8418 41.3775 51.8418V52.7931C42.181 52.7931 42.757 52.4767 43.139 52.0845C43.5075 51.7063 43.6902 51.2645 43.7463 50.9839L42.8135 50.7973ZM41.3775 51.8418C40.8611 51.8418 40.5255 51.6328 40.3026 51.3965C40.0669 51.1467 39.9594 50.8661 39.9366 50.7753L39.0138 51.006C39.0704 51.2322 39.2481 51.665 39.6108 52.0493C39.9862 52.4472 40.5621 52.7931 41.3775 52.7931V51.8418ZM39.9508 50.8906V42.0918H38.9996V50.8906H39.9508ZM39.6469 42.5354L43.3341 41.1086L42.9908 40.2215L39.3036 41.6483L39.6469 42.5354ZM38.7618 52.0796V58.2626H39.713V52.0796H38.7618ZM38.7618 58.2626C38.7618 58.6002 38.9119 59.2286 39.2913 59.7805C39.6874 60.3566 40.357 60.8784 41.3777 60.8784V59.9272C40.7336 59.9272 40.333 59.6167 40.0752 59.2416C39.8006 58.8423 39.713 58.4006 39.713 58.2626H38.7618ZM41.3777 60.8784C42.188 60.8784 42.7977 60.4968 43.1912 59.9762C43.5748 59.4687 43.7555 58.8302 43.7555 58.2626H42.8043C42.8043 58.6462 42.6779 59.0778 42.4324 59.4026C42.1968 59.7143 41.8554 59.9272 41.3777 59.9272V60.8784ZM43.7555 58.2626V51.8418H42.8043V58.2626H43.7555ZM42.8287 51.6914C42.7286 51.9917 42.295 52.5553 41.3775 52.5553V53.5065C42.7429 53.5065 43.5141 52.6432 43.7311 51.9922L42.8287 51.6914ZM41.3775 52.5553C40.4107 52.5553 39.782 52.0131 39.6179 51.7943L38.8569 52.365C39.1685 52.7804 40.0614 53.5065 41.3775 53.5065V52.5553ZM44.2787 29.8211L43.3277 29.1077L42.7569 29.8686L43.7079 30.5821L44.2787 29.8211ZM42.5667 29.4882V30.2016H43.5179V29.4882H42.5667ZM34.4811 42.8052V30.2016H33.5299V42.8052H34.4811ZM34.3418 30.5379L35.0552 29.8245L34.3826 29.1519L33.6692 29.8653L34.3418 30.5379ZM34.2433 29.4843L34.0057 58.7343L34.9569 58.742L35.1945 29.492L34.2433 29.4843ZM43.6381 40.6595L43.5179 30.1961L42.5667 30.2071L42.6869 40.6705L43.6381 40.6595Z" fill="url(#paint3_linear_2737_39236)"/>
<circle cx="41.377" cy="58.9755" r="0.951219" fill="url(#paint4_linear_2737_39236)"/>
<circle cx="38.9982" cy="21.8781" r="3.32927" stroke="url(#paint5_linear_2737_39236)" stroke-width="0.951219"/>
<defs>
<linearGradient id="paint0_linear_2737_39236" x1="73.5876" y1="39" x2="4.83941" y2="39" gradientUnits="userSpaceOnUse">
<stop stop-color="#AC8246"/>
<stop offset="1" stop-color="#F1EA99"/>
</linearGradient>
<linearGradient id="paint1_linear_2737_39236" x1="42.3282" y1="50.7544" x2="40.6976" y2="50.7544" gradientUnits="userSpaceOnUse">
<stop stop-color="#AF7428"/>
<stop offset="1" stop-color="#C49448"/>
</linearGradient>
<linearGradient id="paint2_linear_2737_39236" x1="42.8038" y1="42.5671" x2="42.0904" y2="41.3781" gradientUnits="userSpaceOnUse">
<stop stop-color="#B88136"/>
<stop offset="1" stop-color="#BC883C"/>
</linearGradient>
<linearGradient id="paint3_linear_2737_39236" x1="48.5116" y1="40.9028" x2="30.9141" y2="38.0492" gradientUnits="userSpaceOnUse">
<stop stop-color="#995409"/>
<stop offset="1" stop-color="#FFEB9D"/>
</linearGradient>
<linearGradient id="paint4_linear_2737_39236" x1="42.3282" y1="59.1114" x2="40.4258" y2="59.1114" gradientUnits="userSpaceOnUse">
<stop stop-color="#AA6D21"/>
<stop offset="1" stop-color="#C08D41"/>
</linearGradient>
<linearGradient id="paint5_linear_2737_39236" x1="42.8031" y1="22.1159" x2="35.1934" y2="21.4025" gradientUnits="userSpaceOnUse">
<stop stop-color="#AA6D2E"/>
<stop offset="1" stop-color="#DCB76A"/>
</linearGradient>
</defs>
</svg>
