<svg width="80" height="60" viewBox="0 0 80 60" fill="none" xmlns="http://www.w3.org/2000/svg">
<path fill-rule="evenodd" clip-rule="evenodd" d="M9.63281 6.15013L9.82819 5.9541H17.6972L17.8926 6.15013V6.59479C17.8926 8.62738 16.6718 10.2893 15.0524 11.2101C16.9989 12.1256 18.1726 14.0893 18.1726 16.0333V16.4779L17.9772 16.6739H9.82819L9.63281 16.4779V6.15013ZM10.0238 6.34616V16.2819H17.7819V16.0333C17.7819 14.1238 16.549 12.179 14.526 11.4123L14.5103 11.0523C16.2065 10.235 17.5018 8.59841 17.5018 6.59479V6.34616H10.0238ZM11.0736 7.46694L11.2693 7.27091H16.0635L16.2578 7.48804C16.0237 9.65282 13.9272 10.8751 12.2086 10.8751H11.2693L11.0736 10.6791V7.46694ZM11.4647 7.66297V10.4831H12.2086C13.7313 10.4831 15.5192 9.4385 15.8382 7.66297H11.4647ZM11.0736 11.9487L11.2693 11.7526H12.448C14.4315 11.7526 16.2539 13.2013 16.5499 15.1375L16.3567 15.363H11.2693L11.0736 15.167V11.9487ZM11.4647 12.1447V14.971H16.1207C15.7543 13.3555 14.177 12.1447 12.448 12.1447H11.4647Z" fill="#C6B098"/>
<path fill-rule="evenodd" clip-rule="evenodd" d="M14.5949 11.2262C16.3449 10.385 17.6983 8.6879 17.6983 6.59315V6.1499H9.82812V16.4777H17.9769V16.0342C17.9769 14.0435 16.6981 12.0218 14.5949 11.2262ZM16.0649 7.46362C15.8445 9.49959 13.8579 10.6789 12.2114 10.6789H11.2692V7.46362H16.0649ZM11.2692 11.9484H12.4463C14.3437 11.9484 16.0794 13.3353 16.3595 15.164H11.2692V11.9484Z" fill="#C6B098"/>
<path fill-rule="evenodd" clip-rule="evenodd" d="M22.6949 6.22044L22.8774 5.9541H24.4937L24.6761 6.07954L28.6474 16.4073L28.4652 16.6737H26.8491L26.6669 16.5488L26.1789 15.2891L19.1077 16.8334L18.8716 16.6602C18.8425 16.3508 18.8125 16.0144 18.8125 15.7112C18.8125 12.404 20.8647 9.71413 23.7469 8.96685L22.6949 6.22044ZM23.1619 6.34616L24.192 9.03491L24.0516 9.29647C21.2468 9.9186 19.2033 12.4901 19.2033 15.7112C19.2033 15.9267 19.2198 16.164 19.2405 16.4031L26.2591 14.8703L26.4828 14.9909L26.9829 16.2819H28.1804L24.3597 6.34616H23.1619ZM20.8249 14.6804L25.5535 13.6491L24.3992 10.6397C22.3686 11.0675 21.0012 12.6467 20.8249 14.6804ZM20.4184 14.9198C20.5078 12.5294 22.1023 10.6487 24.4886 10.2229L24.7053 10.3455L26.0003 13.7217L25.8593 13.9835L20.6553 15.1186L20.4184 14.9198Z" fill="#C6B098"/>
<path fill-rule="evenodd" clip-rule="evenodd" d="M28.4665 16.4777L24.4947 6.1499H22.8773L24.0095 9.1005C21.111 9.7499 19.0078 12.4049 19.0078 15.711C19.0078 16.0049 19.037 16.33 19.0661 16.64L26.3036 15.0616L26.8491 16.4777H28.4665ZM20.6107 14.9283C20.6995 12.6274 22.2298 10.8265 24.5244 10.4142L25.8192 13.7917L20.6107 14.9283Z" fill="#C6B098"/>
<path fill-rule="evenodd" clip-rule="evenodd" d="M29.3313 6.15013L29.527 5.9541H37.9093L38.1047 6.15013V7.56594L38.0545 7.69701L31.6378 14.8658H37.9808L38.1764 15.0618V16.4779L37.9808 16.6737H29.3754L29.1797 16.4779V15.0618L29.2299 14.9308L35.6463 7.76198H29.527L29.3313 7.56594V6.15013ZM29.7224 6.34616V7.36991H36.0844L36.2299 7.69701L29.5707 15.1369V16.2819H37.7854V15.2578H31.1996L31.0542 14.9308L37.7136 7.49085V6.34616H29.7224Z" fill="#C6B098"/>
<path fill-rule="evenodd" clip-rule="evenodd" d="M29.3789 16.4777H37.984V15.0616H31.2032L37.9111 7.566V6.1499H29.5258V7.566H36.0863L29.3789 15.0616V16.4777Z" fill="#C6B098"/>
<path fill-rule="evenodd" clip-rule="evenodd" d="M42.5528 6.22044L42.7353 5.9541H44.3499L44.5322 6.07954L48.507 16.4073L48.3248 16.6737H46.7085L46.5266 16.5488L46.0386 15.2891L38.9673 16.8334L38.731 16.6602C38.7021 16.3508 38.6719 16.0144 38.6719 15.7112C38.6719 12.404 40.7241 9.71413 43.6035 8.96685L42.5528 6.22044ZM43.0199 6.34616L44.0481 9.03491L43.9079 9.29647C41.1064 9.9186 39.0629 12.4901 39.0629 15.7112C39.0629 15.9267 39.0795 16.164 39.1002 16.4031L46.1185 14.8703L46.3424 14.9909L46.8425 16.2819H48.0397L44.216 6.34616H43.0199ZM40.6831 14.6804L45.4115 13.6491L44.2555 10.6397C42.228 11.0675 40.8609 12.6467 40.6831 14.6804ZM40.2767 14.9195C40.3675 12.5294 41.9619 10.6487 44.3449 10.2229L44.5616 10.3455L45.8583 13.7214L45.7173 13.9835L40.5135 15.1186L40.2767 14.9195Z" fill="#C6B098"/>
<path fill-rule="evenodd" clip-rule="evenodd" d="M48.3259 16.4777L44.3541 6.1499H42.7367L43.8683 9.1005C40.9704 9.7499 38.8672 12.4049 38.8672 15.711C38.8672 16.0049 38.8963 16.33 38.9252 16.6402L46.1627 15.0616L46.7085 16.4777H48.3259ZM40.47 14.9283C40.5589 12.6274 42.0891 10.8265 44.3832 10.4142L45.6786 13.7917L40.47 14.9283Z" fill="#C6B098"/>
<path fill-rule="evenodd" clip-rule="evenodd" d="M8.53125 24.592L8.72663 24.396H17.5482L17.7435 24.592V26.0078L17.5482 26.2039H14.0664V34.9195L13.871 35.1156H12.4024L12.207 34.9195V26.2039H8.72663L8.53125 26.0078V24.592ZM8.92229 24.7881V25.8118H12.4024L12.5978 26.0078V34.7238H13.6756V26.0078L13.871 25.8118H17.3528V24.7881H8.92229Z" fill="#C6B098"/>
<path fill-rule="evenodd" clip-rule="evenodd" d="M17.5523 24.5918H8.72656V26.0076H12.4037V34.9179H13.8737V26.0076H17.5523V24.5918Z" fill="#C6B098"/>
<path fill-rule="evenodd" clip-rule="evenodd" d="M18.9023 24.592L19.0977 24.396H27.0368L27.2322 24.592V25.037C27.2322 27.3713 26.0762 29.1562 24.3175 30.1968L27.9731 34.7975L27.8203 35.1156H26.0215L25.8676 35.0405L22.6412 30.9067C22.0329 31.0678 21.3997 31.171 20.7345 31.2006V34.9195L20.5391 35.1156H19.0977L18.9023 34.9195V24.592ZM19.2934 24.7881V34.7238H20.3437V31.011L20.5346 30.8152C21.2546 30.7978 21.9695 30.6901 22.6628 30.4946L22.8691 30.5627L26.1168 34.7238H27.4147L23.8693 30.2615L23.9287 29.967C25.6829 29.0102 26.8414 27.3067 26.8414 25.037V24.7881H19.2934ZM20.3437 25.8796L20.5391 25.6836H25.5083L25.7011 25.9102C25.3174 28.3338 23.3235 29.8672 20.5391 29.8672L20.3437 29.6711V25.8796ZM20.7345 26.0756V29.4726C23.1676 29.4059 24.852 28.0913 25.2736 26.0756H20.7345Z" fill="#C6B098"/>
<path fill-rule="evenodd" clip-rule="evenodd" d="M26.0259 34.9179H27.8202L24.025 30.1392C25.8348 29.15 27.0412 27.3798 27.0412 25.0336V24.5918H19.0977V34.9179H20.539V31.0094C21.3035 30.9947 22.025 30.876 22.7165 30.6848L26.0259 34.9179ZM20.539 29.6664V25.8749H25.511C25.1438 28.1918 23.246 29.6664 20.539 29.6664Z" fill="#C6B098"/>
<path fill-rule="evenodd" clip-rule="evenodd" d="M31.7975 24.6623L31.9797 24.396H33.596L33.7782 24.5214L37.7531 34.8492L37.5706 35.1156H35.9546L35.7724 34.9907L35.2844 33.731L28.2131 35.2753L27.9771 35.1021C27.948 34.7932 27.918 34.4566 27.918 34.1531C27.918 30.8459 29.9702 28.1563 32.8507 27.4087L31.7975 24.6623ZM32.2645 24.7881L33.2955 27.4768L33.1554 27.7384C30.3522 28.3605 28.3087 30.932 28.3087 34.1531C28.3087 34.3688 28.3253 34.6062 28.346 34.845L35.3646 33.3122L35.5882 33.4328L36.0883 34.7238H37.2858L33.4618 24.7881H32.2645ZM29.929 33.1226L34.6562 32.091L33.503 29.0816C31.4741 29.5094 30.107 31.0886 29.929 33.1226ZM29.5225 33.3617C29.6133 30.9713 31.2078 29.0906 33.5924 28.6648L33.8091 28.7874L35.1027 32.1636L34.962 32.4254L29.7594 33.5608L29.5225 33.3617Z" fill="#C6B098"/>
<path fill-rule="evenodd" clip-rule="evenodd" d="M37.5722 34.9179L33.6005 24.5918H31.9814L33.1147 27.5424C30.2168 28.1918 28.1133 30.8468 28.1133 34.1515C28.1133 34.4468 28.1424 34.7719 28.1716 35.0805L35.409 33.5021L35.9531 34.9179H37.5722ZM29.7164 33.3702C29.8053 31.0679 31.3338 29.2684 33.6296 28.8547L34.9233 32.2336L29.7164 33.3702Z" fill="#C6B098"/>
<path fill-rule="evenodd" clip-rule="evenodd" d="M38.9492 24.592L39.1449 24.396H40.6151L40.8105 24.592V34.9195L40.6151 35.1156H39.1449L38.9492 34.9195V24.592ZM39.3403 24.7881V34.7238H40.4198V24.7881H39.3403Z" fill="#C6B098"/>
<path fill-rule="evenodd" clip-rule="evenodd" d="M39.1445 24.5918H40.6148V34.9179H39.1445V24.5918Z" fill="#C6B098"/>
<path fill-rule="evenodd" clip-rule="evenodd" d="M43.0703 24.592L43.2657 24.396H44.7362L44.8803 24.4596L50.5732 30.6828V24.592L50.7686 24.396H52.2372L52.4328 24.592V34.9195L52.2372 35.1156H50.7686L50.5732 34.9195V33.2585L44.9316 27.1019V34.9195L44.7362 35.1156H43.2657L43.0703 34.9195V24.592ZM43.4613 24.7881V34.7238H44.5408V26.5987L44.88 26.4663L50.9127 33.0495L50.9643 33.182V34.7238H52.0418V24.7881H50.9643V31.1865L50.6248 31.319L44.6502 24.7881H43.4613Z" fill="#C6B098"/>
<path fill-rule="evenodd" clip-rule="evenodd" d="M50.7671 24.5918V31.1863L44.7362 24.5918H43.2656V34.9179H44.7362V26.5971L50.7671 33.1772V34.9179H52.2388V24.5918H50.7671Z" fill="#C6B098"/>
<path fill-rule="evenodd" clip-rule="evenodd" d="M54.6914 24.592L54.8868 24.396H61.8005L61.9961 24.592V25.9786L61.8005 26.1746H56.5527V28.8667H61.3556L61.551 29.0628V30.4493L61.3556 30.6454H56.5527V33.3369H61.8005L61.9961 33.533V34.9195L61.8005 35.1156H54.8868L54.6914 34.9195V24.592ZM55.0824 24.7881V34.7238H61.6051V33.729H56.3573L56.1619 33.533V30.4493L56.3573 30.2533H61.16V29.2588H56.3573L56.1619 29.0628V25.9786L56.3573 25.7826H61.6051V24.7881H55.0824Z" fill="#C6B098"/>
<path fill-rule="evenodd" clip-rule="evenodd" d="M61.7985 25.9784V24.5918H54.8848V34.9179H61.7985V33.5313H56.355V30.4491H61.3564V29.0625H56.355V25.9784H61.7985Z" fill="#C6B098"/>
<path fill-rule="evenodd" clip-rule="evenodd" d="M63.8125 24.592L64.0079 24.396H70.9213L71.1167 24.592V25.9786L70.9213 26.1746H65.6718V28.8667H70.4781L70.6735 29.0628V30.4493L70.4781 30.6454H65.6718V33.3369H70.9213L71.1167 33.533V34.9195L70.9213 35.1156H64.0079L63.8125 34.9195V24.592ZM64.2033 24.7881V34.7238H70.7259V33.729H65.4765L65.2811 33.533V30.4493L65.4765 30.2533H70.2825V29.2588H65.4765L65.2811 29.0628V25.9786L65.4765 25.7826H70.7259V24.7881H64.2033Z" fill="#C6B098"/>
<path fill-rule="evenodd" clip-rule="evenodd" d="M70.9196 25.9784V24.5918H64.0059V34.9179H70.9196V33.5313H65.4758V30.4491H70.4775V29.0625H65.4758V25.9784H70.9196Z" fill="#C6B098"/>
<path fill-rule="evenodd" clip-rule="evenodd" d="M9.48828 43.0327L9.68366 42.8369H11.1542L11.3496 43.0327V46.6315C11.3496 48.2825 11.8469 49.5537 12.7596 50.4135C13.6742 51.275 15.0324 51.7486 16.8017 51.7486H16.9856V43.0327L17.181 42.8369H18.6512L18.8466 43.0327V53.3604L18.6512 53.5565H16.8017C14.5093 53.5565 12.676 52.9355 11.4146 51.7449C10.1518 50.5527 9.48828 48.8135 9.48828 46.6315V43.0327ZM9.87904 43.2287V46.6315C9.87904 48.7328 10.5159 50.3581 11.6826 51.4595C12.8509 52.5625 14.5769 53.1644 16.8017 53.1644H18.4556V43.2287H17.3766V51.9446L17.181 52.1407H16.8017C14.9656 52.1407 13.4999 51.6488 12.4921 50.6993C11.4824 49.7481 10.9585 48.3629 10.9585 46.6315V43.2287H9.87904Z" fill="#C6B098"/>
<path fill-rule="evenodd" clip-rule="evenodd" d="M17.1823 43.0322V51.9442H16.7989C13.1948 51.9442 11.1511 50.0117 11.1511 46.6322V43.0322H9.67969V46.6322C9.67969 50.9112 12.283 53.36 16.7989 53.36H18.6526V43.0322H17.1823Z" fill="#C6B098"/>
<path fill-rule="evenodd" clip-rule="evenodd" d="M21.1094 43.0327L21.305 42.8369H22.7459L22.9412 43.0327V47.3544H23.866C25.0512 47.3544 26.0129 46.9783 26.6792 46.2656C27.3472 45.5515 27.7414 44.4755 27.7414 43.0327L27.9367 42.8369H29.4087L29.6041 43.0327C29.6041 45.1944 28.7628 47.2295 26.9977 48.1196C28.882 49.0216 29.8084 51.1034 29.8084 53.3604L29.613 53.5565H28.1411L27.9454 53.3604C27.9454 52.0827 27.5852 51.0058 26.9057 50.2509C26.2288 49.4989 25.2163 49.0449 23.866 49.0449H22.9412V53.3604L22.7459 53.5565H21.305L21.1094 53.3604V43.0327ZM21.5004 43.2287V53.1644H22.5505V48.8489L22.7459 48.6529H23.866C25.3088 48.6529 26.4337 49.1414 27.1959 49.9883C27.9188 50.7912 28.2983 51.8971 28.3337 53.1644H29.4151C29.3591 50.9209 28.3421 48.9884 26.432 48.3084L26.43 47.9396C28.221 47.2795 29.1575 45.3924 29.2108 43.2287H28.1299C28.0954 44.6476 27.6853 45.763 26.9643 46.5339C26.2094 47.3411 25.1355 47.7464 23.866 47.7464H22.7459L22.5505 47.5504V43.2287H21.5004Z" fill="#C6B098"/>
<path fill-rule="evenodd" clip-rule="evenodd" d="M26.4931 48.1231C28.4505 47.4003 29.4058 45.3205 29.4058 43.0322H27.9356C27.9356 45.9828 26.3165 47.5469 23.8603 47.5469H22.743V43.0322H21.3008V53.36H22.743V48.8459H23.8603C26.6551 48.8459 28.1413 50.7345 28.1413 53.36H29.6127C29.6127 50.9846 28.5671 48.8606 26.4931 48.1231Z" fill="#C6B098"/>
<path fill-rule="evenodd" clip-rule="evenodd" d="M31.4062 43.0325L31.6016 42.8364H39.5404L39.7358 43.0325V43.4774C39.7358 45.8118 38.5815 47.5969 36.8197 48.6372L40.4753 53.2382L40.3222 53.5563H38.5271L38.3732 53.4812L35.1434 49.3474C34.5371 49.5085 33.9027 49.6117 33.2367 49.6413V53.3602L33.0411 53.5563H31.6016L31.4062 53.3602V43.0325ZM31.7973 43.2285V53.1642H32.8457V49.4517L33.0366 49.2557C33.7565 49.2389 34.4715 49.1312 35.1647 48.9353L35.371 49.0031L38.6221 53.1642H39.9166L36.3712 48.7019L36.4309 48.4077C38.1882 47.4506 39.3451 45.7471 39.3451 43.4774V43.2285H31.7973ZM32.8457 44.32L33.0411 44.124H38.0136L38.2067 44.351C37.8193 46.7748 35.8257 48.3079 33.0411 48.3079L32.8457 48.1118V44.32ZM33.2367 44.5161V47.913C35.6696 47.8463 37.3543 46.5321 37.7787 44.5161H33.2367Z" fill="#C6B098"/>
<path fill-rule="evenodd" clip-rule="evenodd" d="M38.5298 53.36H40.3253L36.5301 48.5796C38.3387 47.5921 39.5449 45.8208 39.5449 43.4758V43.0322H31.6016V53.36H33.0427V49.4501C33.7792 49.4347 34.5108 49.3261 35.2202 49.1269L38.5298 53.36ZM33.0427 48.1085V44.317H38.0152C37.6474 46.6322 35.7497 48.1085 33.0427 48.1085Z" fill="#C6B098"/>
<path fill-rule="evenodd" clip-rule="evenodd" d="M44.3048 43.103L44.4873 42.8369H46.1033L46.2858 42.9624L50.257 53.2899L50.0748 53.5565H48.4585L48.2763 53.4313L47.7897 52.1719L40.7187 53.7159L40.4827 53.5438C40.4521 53.2342 40.4219 52.8975 40.4219 52.5938C40.4219 49.2868 42.4741 46.5972 45.3565 45.8494L44.3048 43.103ZM44.7718 43.2287L45.8014 45.9177L45.6613 46.1793C42.8561 46.8017 40.8129 49.3726 40.8129 52.5938C40.8129 52.8098 40.8295 53.0471 40.8508 53.2859L47.8701 51.7531L48.0938 51.8738L48.5925 53.1644H49.7897L45.9693 43.2287H44.7718ZM42.4345 51.5633L47.1635 50.5316L46.0088 47.5223C43.9782 47.9506 42.6123 49.5295 42.4345 51.5633ZM42.0281 51.8026C42.1189 49.412 43.7119 47.5318 46.0983 47.1057L46.315 47.2281L47.61 50.6042L47.4693 50.8663L42.265 52.0017L42.0281 51.8026Z" fill="#C6B098"/>
<path fill-rule="evenodd" clip-rule="evenodd" d="M50.0759 53.36L46.1044 43.0322H44.4869L45.6186 45.9831C42.7204 46.6322 40.6172 49.2875 40.6172 52.5933C40.6172 52.8878 40.6463 53.2123 40.6769 53.5226L47.9144 51.9442L48.4582 53.36H50.0759ZM42.2214 51.8112C42.3092 49.51 43.8391 47.7088 46.1335 47.2965L47.4286 50.6741L42.2214 51.8112Z" fill="#C6B098"/>
<path fill-rule="evenodd" clip-rule="evenodd" d="M51.4551 43.0327L51.6507 42.8369H53.121L53.3167 43.0327V53.3604L53.121 53.5565H51.6507L51.4551 53.3604V43.0327ZM51.8461 43.2287V53.1644H52.9256V43.2287H51.8461Z" fill="#C6B098"/>
<path fill-rule="evenodd" clip-rule="evenodd" d="M51.6504 43.0322H53.122V53.36H51.6504V43.0322Z" fill="#C6B098"/>
<path fill-rule="evenodd" clip-rule="evenodd" d="M55.5703 43.0325L55.766 42.8364H57.2379L57.3817 42.9L63.0749 49.1238V43.0325L63.2703 42.8364H64.7408L64.9362 43.0325V53.3602L64.7408 53.5563H63.2703L63.0749 53.3602V51.6989L57.4333 45.5429V53.3602L57.2379 53.5563H55.766L55.5703 53.3602V43.0325ZM55.9613 43.2285V53.1642H57.0423V45.0397L57.3817 44.9073L63.4144 51.4899L63.4657 51.6227V53.1642H64.5452V43.2285H63.4657V49.6272L63.1262 49.7597L57.1519 43.2285H55.9613Z" fill="#C6B098"/>
<path fill-rule="evenodd" clip-rule="evenodd" d="M63.2705 43.0322V49.627L57.2395 43.0322H55.7676V53.36H57.2395V45.0395L63.2705 51.6193V53.36H64.7408V43.0322H63.2705Z" fill="#C6B098"/>
<path fill-rule="evenodd" clip-rule="evenodd" d="M67.1914 43.0325L67.3871 42.8364H74.3008L74.4962 43.0325V44.4193L74.3008 44.6153H69.0527V47.3072H73.8576L74.053 47.5032V48.8901L73.8576 49.0861H69.0527V51.7774H74.3008L74.4962 51.9734V53.3602L74.3008 53.5563H67.3871L67.1914 53.3602V43.0325ZM67.5825 43.2285V53.1642H74.1051V52.1694H68.8573L68.6619 51.9734V48.8901L68.8573 48.694H73.6619V47.6992H68.8573L68.6619 47.5032V44.4193L68.8573 44.2233H74.1051V43.2285H67.5825Z" fill="#C6B098"/>
<path fill-rule="evenodd" clip-rule="evenodd" d="M74.3024 44.4191V43.0322H67.3887V53.36H74.3024V51.9734H68.8606V48.8898H73.8617V47.503H68.8606V44.4191H74.3024Z" fill="#C6B098"/>
</svg>
