<svg width="48" height="48" viewBox="0 0 48 48" fill="none" xmlns="http://www.w3.org/2000/svg">
<rect width="48" height="48" rx="24" fill="#FBF6F0"/>
<g clip-path="url(#clip0_704_24089)">
<path fill-rule="evenodd" clip-rule="evenodd" d="M26 14C26.5304 14 27.0391 14.2107 27.4142 14.5858C27.7893 14.9609 28 15.4696 28 16C28.0005 16.6911 28.2393 17.3609 28.6761 17.8965C29.113 18.432 29.7211 18.8006 30.398 18.94C30.9178 19.0456 31.3744 19.3533 31.6674 19.7955C31.9603 20.2377 32.0656 20.7782 31.96 21.298C31.8544 21.8178 31.5467 22.2744 31.1045 22.5674C30.6623 22.8603 30.1218 22.9656 29.602 22.86C29.0483 22.7473 28.5103 22.5677 28 22.325V28C28 29.1222 27.6852 30.222 27.0914 31.1743C26.4976 32.1265 25.6487 32.8932 24.641 33.3872C23.6334 33.8812 22.5074 34.0827 21.3909 33.9687C20.2745 33.8548 19.2124 33.4301 18.3253 32.7428C17.4381 32.0554 16.7615 31.1331 16.3724 30.0805C15.9832 29.0279 15.897 27.8873 16.1236 26.7881C16.3502 25.689 16.8805 24.6755 17.6543 23.8627C18.4281 23.0499 19.4144 22.4704 20.501 22.19C21.0114 22.0669 21.5498 22.1495 21.9998 22.4198C22.4499 22.6902 22.7756 23.1268 22.9066 23.6352C23.0376 24.1436 22.9635 24.6832 22.7001 25.1374C22.4368 25.5917 22.0053 25.9241 21.499 26.063C21.0302 26.1874 20.6225 26.4778 20.3516 26.8802C20.0808 27.2826 19.9652 27.7696 20.0265 28.2508C20.0877 28.7319 20.3215 29.1745 20.6845 29.4962C21.0475 29.818 21.515 29.997 22 30C22.5304 30 23.0391 29.7893 23.4142 29.4142C23.7893 29.0391 24 28.5304 24 28V16C24 15.4696 24.2107 14.9609 24.5858 14.5858C24.9609 14.2107 25.4696 14 26 14Z" fill="#003CB0"/>
</g>
<defs>
<clipPath id="clip0_704_24089">
<rect width="24" height="24" fill="white" transform="translate(12 12)"/>
</clipPath>
</defs>
</svg>
