<svg width="13" height="13" viewBox="0 0 13 13" fill="none" xmlns="http://www.w3.org/2000/svg">
<path d="M10.9996 0.75C11.3311 0.75 11.649 0.881696 11.8835 1.11612C12.1179 1.35054 12.2496 1.66848 12.2496 2V8.66667C12.2496 8.99819 12.1179 9.31613 11.8835 9.55055C11.649 9.78497 11.3311 9.91667 10.9996 9.91667C10.6681 9.91667 10.3501 9.78497 10.1157 9.55055C9.88128 9.31613 9.74959 8.99819 9.74959 8.66667V5.0175L2.16875 12.5983C1.93289 12.8259 1.61708 12.9518 1.28933 12.9488C0.961588 12.9458 0.648133 12.8142 0.416481 12.5823C0.184829 12.3504 0.0535159 12.0368 0.0508235 11.7091C0.048131 11.3813 0.174275 11.0656 0.402086 10.83L7.98042 3.25H4.33292C4.0014 3.25 3.68346 3.1183 3.44904 2.88388C3.21462 2.64946 3.08292 2.33152 3.08292 2C3.08292 1.66848 3.21462 1.35054 3.44904 1.11612C3.68346 0.881696 4.0014 0.75 4.33292 0.75H10.9996Z" fill="#0057FF"/>
</svg>
