<svg width="56" height="56" viewBox="0 0 56 56" fill="none" xmlns="http://www.w3.org/2000/svg">
<rect width="56" height="56" rx="28" fill="#0057FF"/>
<g clip-path="url(#clip0_550_83797)">
<path d="M29.5 37.888C34.311 37.164 38 33.013 38 28C38 22.477 33.523 18 28 18C22.477 18 18 22.477 18 28C18 33.013 21.689 37.165 26.5 37.888V31H25C24.6022 31 24.2206 30.842 23.9393 30.5607C23.658 30.2794 23.5 29.8978 23.5 29.5C23.5 29.1022 23.658 28.7206 23.9393 28.4393C24.2206 28.158 24.6022 28 25 28H26.5V26C26.5 25.0717 26.8687 24.1815 27.5251 23.5251C28.1815 22.8687 29.0717 22.5 30 22.5H30.5C30.8978 22.5 31.2794 22.658 31.5607 22.9393C31.842 23.2206 32 23.6022 32 24C32 24.3978 31.842 24.7794 31.5607 25.0607C31.2794 25.342 30.8978 25.5 30.5 25.5H30C29.8674 25.5 29.7402 25.5527 29.6464 25.6464C29.5527 25.7402 29.5 25.8674 29.5 26V28H31C31.3978 28 31.7794 28.158 32.0607 28.4393C32.342 28.7206 32.5 29.1022 32.5 29.5C32.5 29.8978 32.342 30.2794 32.0607 30.5607C31.7794 30.842 31.3978 31 31 31H29.5V37.888Z" fill="white"/>
</g>
<defs>
<clipPath id="clip0_550_83797">
<rect width="24" height="24" fill="white" transform="translate(16 16)"/>
</clipPath>
</defs>
</svg>
