<svg width="48" height="48" viewBox="0 0 48 48" fill="none" xmlns="http://www.w3.org/2000/svg">
<rect width="48" height="48" rx="24" fill="#FBF6F0"/>
<g clip-path="url(#clip0_704_24084)">
<path d="M28 15C29.3261 15 30.5979 15.5268 31.5355 16.4645C32.4732 17.4021 33 18.6739 33 20V28C33 29.3261 32.4732 30.5979 31.5355 31.5355C30.5979 32.4732 29.3261 33 28 33H20C18.6739 33 17.4021 32.4732 16.4645 31.5355C15.5268 30.5979 15 29.3261 15 28V20C15 18.6739 15.5268 17.4021 16.4645 16.4645C17.4021 15.5268 18.6739 15 20 15H28ZM24 20C22.9391 20 21.9217 20.4214 21.1716 21.1716C20.4214 21.9217 20 22.9391 20 24C20 25.0609 20.4214 26.0783 21.1716 26.8284C21.9217 27.5786 22.9391 28 24 28C25.0609 28 26.0783 27.5786 26.8284 26.8284C27.5786 26.0783 28 25.0609 28 24C28 22.9391 27.5786 21.9217 26.8284 21.1716C26.0783 20.4214 25.0609 20 24 20ZM24 22C24.5304 22 25.0391 22.2107 25.4142 22.5858C25.7893 22.9609 26 23.4696 26 24C26 24.5304 25.7893 25.0391 25.4142 25.4142C25.0391 25.7893 24.5304 26 24 26C23.4696 26 22.9609 25.7893 22.5858 25.4142C22.2107 25.0391 22 24.5304 22 24C22 23.4696 22.2107 22.9609 22.5858 22.5858C22.9609 22.2107 23.4696 22 24 22ZM28.5 18.5C28.2348 18.5 27.9804 18.6054 27.7929 18.7929C27.6054 18.9804 27.5 19.2348 27.5 19.5C27.5 19.7652 27.6054 20.0196 27.7929 20.2071C27.9804 20.3946 28.2348 20.5 28.5 20.5C28.7652 20.5 29.0196 20.3946 29.2071 20.2071C29.3946 20.0196 29.5 19.7652 29.5 19.5C29.5 19.2348 29.3946 18.9804 29.2071 18.7929C29.0196 18.6054 28.7652 18.5 28.5 18.5Z" fill="#003CB0"/>
</g>
<defs>
<clipPath id="clip0_704_24084">
<rect width="24" height="24" fill="white" transform="translate(12 12)"/>
</clipPath>
</defs>
</svg>
