<svg width="116" height="40" viewBox="0 0 116 40" fill="none" xmlns="http://www.w3.org/2000/svg">
<g clip-path="url(#clip0_550_83795)">
<path fill-rule="evenodd" clip-rule="evenodd" d="M30.9921 0C35.6602 0 39.4444 3.83756 39.4444 8.57142V31.4286C39.4444 36.1624 35.6602 40 30.9921 40H8.45242C3.78426 40 0 36.1624 0 31.4286L0 8.57142C0 3.83756 3.78426 0 8.45242 0L30.9921 0ZM17.9215 14.2858H20.6228V26.1905H17.9215V19.2687L14.8657 24.3197H14.5618L11.5059 19.2687V26.1905H8.80458V14.2858H11.5059L14.7137 19.5748L17.9215 14.2858ZM28.1074 18.4864V17.6871H30.6399V26.1905H28.1074V25.3912C27.5503 26.0374 26.723 26.4286 25.5918 26.4286C23.3801 26.4286 21.5567 24.4727 21.5567 21.9387C21.5567 19.4047 23.3801 17.449 25.5918 17.449C26.723 17.449 27.5503 17.8402 28.1074 18.4864ZM24.0892 21.9387C24.0892 23.2142 24.9333 24.0136 26.0983 24.0136C27.2633 24.0136 28.1074 23.2142 28.1074 21.9387C28.1074 20.6632 27.2633 19.8639 26.0983 19.8639C24.9333 19.8639 24.0892 20.6632 24.0892 21.9387Z" fill="#C6B098"/>
<path d="M60.5253 5.8335H58.2717L55.0977 11.1457L51.9078 5.8335H49.6543V17.0678H51.8444V9.79758L54.9707 14.9975H55.2246L58.351 9.78158V17.0678H60.5253V5.8335Z" fill="#C6B098"/>
<path d="M68.2147 9.04311V9.98994C67.6434 9.26778 66.7864 8.81836 65.6279 8.81836C63.5172 8.81836 61.7715 10.664 61.7715 13.0554C61.7715 15.4466 63.5172 17.2923 65.6279 17.2923C66.7864 17.2923 67.6434 16.8429 68.2147 16.1207V17.0676H70.262V9.04311H68.2147ZM66.0087 15.3183C64.7551 15.3183 63.8187 14.4034 63.8187 13.0554C63.8187 11.7072 64.7551 10.7924 66.0087 10.7924C67.2784 10.7924 68.2147 11.7072 68.2147 13.0554C68.2147 14.4034 67.2784 15.3183 66.0087 15.3183Z" fill="#C6B098"/>
<path d="M76.3384 11.0334V9.04328H74.5451V6.79639L72.4979 7.4223V9.04328H71.1172V11.0334H72.4979V14.3715C72.4979 16.5381 73.4659 17.3887 76.3384 17.0678V15.19C75.164 15.2542 74.5451 15.2382 74.5451 14.3715V11.0334H76.3384Z" fill="#C6B098"/>
<path d="M78.9472 13.9059H84.9303C84.9778 13.6331 85.0094 13.3603 85.0094 13.0554C85.0094 10.6961 83.3428 8.81836 80.9944 8.81836C78.5028 8.81836 76.8047 10.664 76.8047 13.0554C76.8047 15.4466 78.4869 17.2923 81.1531 17.2923C82.6766 17.2923 83.8669 16.6664 84.6128 15.575L82.9623 14.6121C82.6132 15.0775 81.9784 15.4145 81.1849 15.4145C80.1057 15.4145 79.2329 14.9652 78.9472 13.9059ZM78.9154 12.301C79.1534 11.2739 79.8994 10.6801 80.9944 10.6801C81.8514 10.6801 82.7084 11.1455 82.9623 12.301H78.9154Z" fill="#C6B098"/>
<path d="M55.5897 24.5904V25.5373C55.0184 24.8151 54.1614 24.3657 53.0029 24.3657C50.8922 24.3657 49.1465 26.2114 49.1465 28.6026C49.1465 30.994 50.8922 32.8396 53.0029 32.8396C54.1614 32.8396 55.0184 32.3902 55.5897 31.6681V32.6149H57.6369V24.5904H55.5897ZM53.3837 30.8656C52.13 30.8656 51.1937 29.9508 51.1937 28.6026C51.1937 27.2546 52.13 26.3398 53.3837 26.3398C54.6534 26.3398 55.5897 27.2546 55.5897 28.6026C55.5897 29.9508 54.6534 30.8656 53.3837 30.8656Z" fill="#C6B098"/>
<path d="M62.9534 32.8396C64.5087 32.8396 65.8576 32.0051 66.54 30.7532L64.7626 29.7261C64.4452 30.3841 63.7628 30.7853 62.9375 30.7853C61.7155 30.7853 60.8109 29.8706 60.8109 28.6026C60.8109 27.3187 61.7155 26.404 62.9375 26.404C63.7469 26.404 64.4293 26.8212 64.7467 27.4792L66.5083 26.4361C65.8576 25.2003 64.5087 24.3657 62.9534 24.3657C60.5412 24.3657 58.7637 26.2114 58.7637 28.6026C58.7637 30.994 60.5412 32.8396 62.9534 32.8396Z" fill="#C6B098"/>
<path d="M73.2128 24.5904V25.5373C72.6414 24.8151 71.7844 24.3657 70.6259 24.3657C68.5153 24.3657 66.7695 26.2114 66.7695 28.6026C66.7695 30.994 68.5153 32.8396 70.6259 32.8396C71.7844 32.8396 72.6414 32.3902 73.2128 31.6681V32.6149H75.26V24.5904H73.2128ZM71.0069 30.8656C69.7531 30.8656 68.8168 29.9508 68.8168 28.6026C68.8168 27.2546 69.7531 26.3398 71.0069 26.3398C72.2764 26.3398 73.2128 27.2546 73.2128 28.6026C73.2128 29.9508 72.2764 30.8656 71.0069 30.8656Z" fill="#C6B098"/>
<path d="M82.8124 21.3809V25.5375C82.2411 24.7993 81.4 24.3659 80.2415 24.3659C78.1149 24.3659 76.3691 26.2116 76.3691 28.6029C76.3691 30.9942 78.1149 32.8399 80.2415 32.8399C81.4 32.8399 82.2411 32.4065 82.8124 31.6683V32.6151H84.8599V21.3809H82.8124ZM80.6223 30.8658C79.3527 30.8658 78.4164 29.951 78.4164 28.6029C78.4164 27.2548 79.3527 26.34 80.6223 26.34C81.8761 26.34 82.8124 27.2548 82.8124 28.6029C82.8124 29.951 81.8761 30.8658 80.6223 30.8658Z" fill="#C6B098"/>
<path d="M88.1445 29.4533H94.1278C94.1753 29.1805 94.207 28.9076 94.207 28.6026C94.207 26.2435 92.5411 24.3657 90.192 24.3657C87.7003 24.3657 86.002 26.2114 86.002 28.6026C86.002 30.994 87.6844 32.8396 90.3511 32.8396C91.8744 32.8396 93.0644 32.2137 93.8103 31.1224L92.1603 30.1595C91.8111 30.6249 91.1761 30.9619 90.3828 30.9619C89.3036 30.9619 88.4303 30.5125 88.1445 29.4533ZM88.1128 27.8484C88.3511 26.8212 89.097 26.2274 90.192 26.2274C91.0486 26.2274 91.9061 26.6928 92.1603 27.8484H88.1128Z" fill="#C6B098"/>
<path d="M104.095 24.3657C103.016 24.3657 102.223 24.7991 101.73 25.5213C101.286 24.783 100.556 24.3657 99.5717 24.3657C98.5559 24.3657 97.81 24.767 97.3659 25.4411V24.5904H95.3184V32.6149H97.3659V28.1051C97.3659 26.9015 97.985 26.2916 98.8575 26.2916C99.715 26.2916 100.191 26.8694 100.191 27.8163V32.6149H102.238V28.1051C102.238 26.9015 102.809 26.2916 103.714 26.2916C104.571 26.2916 105.047 26.8694 105.047 27.8163V32.6149H107.094V27.6718C107.094 25.6657 105.904 24.3657 104.095 24.3657Z" fill="#C6B098"/>
<path d="M113.519 24.5908L111.758 29.9833L109.695 24.5908H107.457L110.71 32.3586C110.33 33.4338 109.758 33.9153 108.631 33.8993V35.8252C110.647 35.9375 111.995 34.9264 112.821 32.6153L115.71 24.5908H113.519Z" fill="#C6B098"/>
</g>
<defs>
<clipPath id="clip0_550_83795">
<rect width="116" height="40" fill="white"/>
</clipPath>
</defs>
</svg>
