<svg width="58" height="18" viewBox="0 0 58 18" fill="none" xmlns="http://www.w3.org/2000/svg">
<path d="M0.883992 0.978034C0.335436 1.0421 -0.0573179 1.53874 0.00675178 2.08729C0.0708213 2.63585 0.567452 3.0286 1.11601 2.96453L0.883992 0.978034ZM57.105 16.9945C57.6543 16.9364 58.0525 16.4442 57.9945 15.8949L57.0491 6.94473C56.9911 6.3955 56.4988 5.99729 55.9496 6.05531C55.4003 6.11332 55.0021 6.60559 55.0601 7.15482L55.9005 15.1106L47.9447 15.9509C47.3955 16.0089 46.9973 16.5012 47.0553 17.0504C47.1133 17.5996 47.6056 17.9979 48.1548 17.9398L57.105 16.9945ZM1.11601 2.96453C15.8673 1.24162 26.1878 1.89943 34.5399 4.35938C42.8833 6.81675 49.3488 11.097 56.3711 16.7775L57.6289 15.2225C50.5203 9.47218 43.8146 5.0061 35.105 2.44086C26.4041 -0.121807 15.79 -0.76294 0.883992 0.978034L1.11601 2.96453Z" fill="white"/>
</svg>
