<svg width="16" height="16" viewBox="0 0 16 16" fill="none" xmlns="http://www.w3.org/2000/svg">
  <g id="mingcute:check-2-fill" clip-path="url(#clip0_661_58234)">
    <g id="Group">
      <path id="Vector" fill-rule="evenodd" clip-rule="evenodd"
        d="M12.9963 2.08868C13.144 1.99982 13.3204 1.97164 13.4885 2.01005C13.6565 2.04846 13.8032 2.15047 13.8976 2.29468L14.5576 3.30135C14.6437 3.43285 14.6805 3.59053 14.6616 3.74654C14.6427 3.90255 14.5692 4.04686 14.4543 4.15401L14.4523 4.15668L14.443 4.16535L14.4049 4.20068L14.2549 4.34401C13.4249 5.14908 12.6201 5.9797 11.8416 6.83468C10.377 8.44535 8.63762 10.5533 7.46695 12.5987C7.14028 13.1693 6.34228 13.292 5.86895 12.7993L1.54562 8.30735C1.48366 8.24295 1.43528 8.16675 1.40336 8.08328C1.37144 7.99982 1.35662 7.91078 1.3598 7.82148C1.36297 7.73217 1.38406 7.64441 1.42182 7.56342C1.45959 7.48243 1.51325 7.40985 1.57962 7.35001L2.88628 6.17135C3.00111 6.06782 3.14835 6.00742 3.3028 6.00049C3.45725 5.99356 3.60931 6.04052 3.73295 6.13335L5.93895 7.78735C9.38495 4.38935 11.339 3.08535 12.9963 2.08868Z"
        fill="#0057FF" />
    </g>
  </g>
  <defs>
    <clipPath id="clip0_661_58234">
      <rect width="16" height="16" fill="white" />
    </clipPath>
  </defs>
</svg>