<svg width="20" height="12" viewBox="0 0 20 12" fill="none" xmlns="http://www.w3.org/2000/svg">
<path fill-rule="evenodd" clip-rule="evenodd" d="M11.4152 11.4133C11.0402 11.7878 10.5318 11.9982 10.0018 11.9982C9.47182 11.9982 8.96349 11.7878 8.58849 11.4133L1.04449 3.87193C0.669471 3.49674 0.458859 2.98794 0.458984 2.45746C0.459109 1.92698 0.66996 1.41828 1.04515 1.04327C1.42035 0.668251 1.92915 0.457639 2.45963 0.457764C2.9901 0.457889 3.4988 0.66874 3.87382 1.04393L10.0018 7.17193L16.1298 1.04393C16.5069 0.679435 17.012 0.477605 17.5364 0.481913C18.0608 0.486221 18.5625 0.696322 18.9335 1.06697C19.3045 1.43761 19.515 1.93914 19.5198 2.46353C19.5247 2.98792 19.3233 3.49322 18.9592 3.8706L11.4165 11.4146L11.4152 11.4133Z" fill="#4E3B26"/>
</svg>
