<svg width="120" height="120" viewBox="0 0 120 120" fill="red" xmlns="http://www.w3.org/2000/svg">
<path d="M33.9614 4.52832H31.6973V6.79247H33.9614V4.52832Z" fill="#212833"/>
<path d="M58.8677 4.52832H56.6035V6.79247H58.8677V4.52832Z" fill="#212833"/>
<path d="M61.1313 4.52832H58.8672V6.79247H61.1313V4.52832Z" fill="#212833"/>
<path d="M63.395 4.52832H61.1309V6.79247H63.395V4.52832Z" fill="#212833"/>
<path d="M65.6587 4.52832H63.3945V6.79247H65.6587V4.52832Z" fill="#212833"/>
<path d="M67.9243 4.52832H65.6602V6.79247H67.9243V4.52832Z" fill="#212833"/>
<path d="M70.188 4.52832H67.9238V6.79247H70.188V4.52832Z" fill="#212833"/>
<path d="M72.4517 4.52832H70.1875V6.79247H72.4517V4.52832Z" fill="#212833"/>
<path d="M79.2446 4.52832H76.9805V6.79247H79.2446V4.52832Z" fill="#212833"/>
<path d="M81.5083 4.52832H79.2441V6.79247H81.5083V4.52832Z" fill="#212833"/>
<path d="M88.3013 4.52832H86.0371V6.79247H88.3013V4.52832Z" fill="#212833"/>
<path d="M90.5649 4.52832H88.3008V6.79247H90.5649V4.52832Z" fill="#212833"/>
<path d="M97.3579 4.52832H95.0938V6.79247H97.3579V4.52832Z" fill="#212833"/>
<path d="M29.4321 6.79248H27.168V9.05663H29.4321V6.79248Z" fill="#212833"/>
<path d="M31.6977 6.79248H29.4336V9.05663H31.6977V6.79248Z" fill="#212833"/>
<path d="M33.9614 6.79248H31.6973V9.05663H33.9614V6.79248Z" fill="#212833"/>
<path d="M36.2251 6.79248H33.9609V9.05663H36.2251V6.79248Z" fill="#212833"/>
<path d="M38.4888 6.79248H36.2246V9.05663H38.4888V6.79248Z" fill="#212833"/>
<path d="M40.7544 6.79248H38.4902V9.05663H40.7544V6.79248Z" fill="#212833"/>
<path d="M45.2817 6.79248H43.0176V9.05663H45.2817V6.79248Z" fill="#212833"/>
<path d="M47.5454 6.79248H45.2812V9.05663H47.5454V6.79248Z" fill="#212833"/>
<path d="M52.0747 6.79248H49.8105V9.05663H52.0747V6.79248Z" fill="#212833"/>
<path d="M56.602 6.79248H54.3379V9.05663H56.602V6.79248Z" fill="#212833"/>
<path d="M61.1313 6.79248H58.8672V9.05663H61.1313V6.79248Z" fill="#212833"/>
<path d="M70.188 6.79248H67.9238V9.05663H70.188V6.79248Z" fill="#212833"/>
<path d="M74.7153 6.79248H72.4512V9.05663H74.7153V6.79248Z" fill="#212833"/>
<path d="M76.9809 6.79248H74.7168V9.05663H76.9809V6.79248Z" fill="#212833"/>
<path d="M79.2446 6.79248H76.9805V9.05663H79.2446V6.79248Z" fill="#212833"/>
<path d="M83.772 6.79248H81.5078V9.05663H83.772V6.79248Z" fill="#212833"/>
<path d="M86.0376 6.79248H83.7734V9.05663H86.0376V6.79248Z" fill="#212833"/>
<path d="M88.3013 6.79248H86.0371V9.05663H88.3013V6.79248Z" fill="#212833"/>
<path d="M90.5649 6.79248H88.3008V9.05663H90.5649V6.79248Z" fill="#212833"/>
<path d="M92.8286 6.79248H90.5645V9.05663H92.8286V6.79248Z" fill="#212833"/>
<path d="M95.0942 6.79248H92.8301V9.05663H95.0942V6.79248Z" fill="#212833"/>
<path d="M97.3579 6.79248H95.0938V9.05663H97.3579V6.79248Z" fill="#212833"/>
<path d="M24.9048 9.05664H22.6406V11.3208H24.9048V9.05664Z" fill="#212833"/>
<path d="M29.4321 9.05664H27.168V11.3208H29.4321V9.05664Z" fill="#212833"/>
<path d="M33.9614 9.05664H31.6973V11.3208H33.9614V9.05664Z" fill="#212833"/>
<path d="M38.4888 9.05664H36.2246V11.3208H38.4888V9.05664Z" fill="#212833"/>
<path d="M40.7544 9.05664H38.4902V11.3208H40.7544V9.05664Z" fill="#212833"/>
<path d="M52.0747 9.05664H49.8105V11.3208H52.0747V9.05664Z" fill="#212833"/>
<path d="M61.1313 9.05664H58.8672V11.3208H61.1313V9.05664Z" fill="#212833"/>
<path d="M70.188 9.05664H67.9238V11.3208H70.188V9.05664Z" fill="#212833"/>
<path d="M72.4517 9.05664H70.1875V11.3208H72.4517V9.05664Z" fill="#212833"/>
<path d="M76.9809 9.05664H74.7168V11.3208H76.9809V9.05664Z" fill="#212833"/>
<path d="M79.2446 9.05664H76.9805V11.3208H79.2446V9.05664Z" fill="#212833"/>
<path d="M83.772 9.05664H81.5078V11.3208H83.772V9.05664Z" fill="#212833"/>
<path d="M86.0376 9.05664H83.7734V11.3208H86.0376V9.05664Z" fill="#212833"/>
<path d="M95.0942 9.05664H92.8301V11.3208H95.0942V9.05664Z" fill="#212833"/>
<path d="M97.3579 9.05664H95.0938V11.3208H97.3579V9.05664Z" fill="#212833"/>
<path d="M24.9048 11.3208H22.6406V13.585H24.9048V11.3208Z" fill="#212833"/>
<path d="M29.4321 11.3208H27.168V13.585H29.4321V11.3208Z" fill="#212833"/>
<path d="M31.6977 11.3208H29.4336V13.585H31.6977V11.3208Z" fill="#212833"/>
<path d="M33.9614 11.3208H31.6973V13.585H33.9614V11.3208Z" fill="#212833"/>
<path d="M36.2251 11.3208H33.9609V13.585H36.2251V11.3208Z" fill="#212833"/>
<path d="M38.4888 11.3208H36.2246V13.585H38.4888V11.3208Z" fill="#212833"/>
<path d="M40.7544 11.3208H38.4902V13.585H40.7544V11.3208Z" fill="#212833"/>
<path d="M47.5454 11.3208H45.2812V13.585H47.5454V11.3208Z" fill="#212833"/>
<path d="M54.3384 11.3208H52.0742V13.585H54.3384V11.3208Z" fill="#212833"/>
<path d="M58.8677 11.3208H56.6035V13.585H58.8677V11.3208Z" fill="#212833"/>
<path d="M63.395 11.3208H61.1309V13.585H63.395V11.3208Z" fill="#212833"/>
<path d="M65.6587 11.3208H63.3945V13.585H65.6587V11.3208Z" fill="#212833"/>
<path d="M67.9243 11.3208H65.6602V13.585H67.9243V11.3208Z" fill="#212833"/>
<path d="M72.4517 11.3208H70.1875V13.585H72.4517V11.3208Z" fill="#212833"/>
<path d="M83.772 11.3208H81.5078V13.585H83.772V11.3208Z" fill="#212833"/>
<path d="M86.0376 11.3208H83.7734V13.585H86.0376V11.3208Z" fill="#212833"/>
<path d="M88.3013 11.3208H86.0371V13.585H88.3013V11.3208Z" fill="#212833"/>
<path d="M90.5649 11.3208H88.3008V13.585H90.5649V11.3208Z" fill="#212833"/>
<path d="M95.0942 11.3208H92.8301V13.585H95.0942V11.3208Z" fill="#212833"/>
<path d="M24.9048 13.585H22.6406V15.8491H24.9048V13.585Z" fill="#212833"/>
<path d="M31.6977 13.585H29.4336V15.8491H31.6977V13.585Z" fill="#212833"/>
<path d="M36.2251 13.585H33.9609V15.8491H36.2251V13.585Z" fill="#212833"/>
<path d="M40.7544 13.585H38.4902V15.8491H40.7544V13.585Z" fill="#212833"/>
<path d="M47.5454 13.585H45.2812V15.8491H47.5454V13.585Z" fill="#212833"/>
<path d="M49.811 13.585H47.5469V15.8491H49.811V13.585Z" fill="#212833"/>
<path d="M52.0747 13.585H49.8105V15.8491H52.0747V13.585Z" fill="#212833"/>
<path d="M54.3384 13.585H52.0742V15.8491H54.3384V13.585Z" fill="#212833"/>
<path d="M56.602 13.585H54.3379V15.8491H56.602V13.585Z" fill="#212833"/>
<path d="M58.8677 13.585H56.6035V15.8491H58.8677V13.585Z" fill="#212833"/>
<path d="M61.1313 13.585H58.8672V15.8491H61.1313V13.585Z" fill="#212833"/>
<path d="M63.395 13.585H61.1309V15.8491H63.395V13.585Z" fill="#212833"/>
<path d="M65.6587 13.585H63.3945V15.8491H65.6587V13.585Z" fill="#212833"/>
<path d="M67.9243 13.585H65.6602V15.8491H67.9243V13.585Z" fill="#212833"/>
<path d="M70.188 13.585H67.9238V15.8491H70.188V13.585Z" fill="#212833"/>
<path d="M72.4517 13.585H70.1875V15.8491H72.4517V13.585Z" fill="#212833"/>
<path d="M74.7153 13.585H72.4512V15.8491H74.7153V13.585Z" fill="#212833"/>
<path d="M86.0376 13.585H83.7734V15.8491H86.0376V13.585Z" fill="#212833"/>
<path d="M90.5649 13.585H88.3008V15.8491H90.5649V13.585Z" fill="#212833"/>
<path d="M24.9048 15.8491H22.6406V18.1133H24.9048V15.8491Z" fill="#212833"/>
<path d="M36.2251 15.8491H33.9609V18.1133H36.2251V15.8491Z" fill="#212833"/>
<path d="M43.0181 15.8491H40.7539V18.1133H43.0181V15.8491Z" fill="#212833"/>
<path d="M45.2817 15.8491H43.0176V18.1133H45.2817V15.8491Z" fill="#212833"/>
<path d="M47.5454 15.8491H45.2812V18.1133H47.5454V15.8491Z" fill="#212833"/>
<path d="M52.0747 15.8491H49.8105V18.1133H52.0747V15.8491Z" fill="#212833"/>
<path d="M56.602 15.8491H54.3379V18.1133H56.602V15.8491Z" fill="#212833"/>
<path d="M65.6587 15.8491H63.3945V18.1133H65.6587V15.8491Z" fill="#212833"/>
<path d="M67.9243 15.8491H65.6602V18.1133H67.9243V15.8491Z" fill="#212833"/>
<path d="M81.5083 15.8491H79.2441V18.1133H81.5083V15.8491Z" fill="#212833"/>
<path d="M83.772 15.8491H81.5078V18.1133H83.772V15.8491Z" fill="#212833"/>
<path d="M86.0376 15.8491H83.7734V18.1133H86.0376V15.8491Z" fill="#212833"/>
<path d="M92.8286 15.8491H90.5645V18.1133H92.8286V15.8491Z" fill="#212833"/>
<path d="M24.9048 18.1133H22.6406V20.3774H24.9048V18.1133Z" fill="#212833"/>
<path d="M29.4321 18.1133H27.168V20.3774H29.4321V18.1133Z" fill="#212833"/>
<path d="M33.9614 18.1133H31.6973V20.3774H33.9614V18.1133Z" fill="#212833"/>
<path d="M38.4888 18.1133H36.2246V20.3774H38.4888V18.1133Z" fill="#212833"/>
<path d="M43.0181 18.1133H40.7539V20.3774H43.0181V18.1133Z" fill="#212833"/>
<path d="M47.5454 18.1133H45.2812V20.3774H47.5454V18.1133Z" fill="#212833"/>
<path d="M52.0747 18.1133H49.8105V20.3774H52.0747V18.1133Z" fill="#212833"/>
<path d="M56.602 18.1133H54.3379V20.3774H56.602V18.1133Z" fill="#212833"/>
<path d="M61.1313 18.1133H58.8672V20.3774H61.1313V18.1133Z" fill="#212833"/>
<path d="M65.6587 18.1133H63.3945V20.3774H65.6587V18.1133Z" fill="#212833"/>
<path d="M70.188 18.1133H67.9238V20.3774H70.188V18.1133Z" fill="#212833"/>
<path d="M74.7153 18.1133H72.4512V20.3774H74.7153V18.1133Z" fill="#212833"/>
<path d="M79.2446 18.1133H76.9805V20.3774H79.2446V18.1133Z" fill="#212833"/>
<path d="M83.772 18.1133H81.5078V20.3774H83.772V18.1133Z" fill="#212833"/>
<path d="M88.3013 18.1133H86.0371V20.3774H88.3013V18.1133Z" fill="#212833"/>
<path d="M92.8286 18.1133H90.5645V20.3774H92.8286V18.1133Z" fill="#212833"/>
<path d="M97.3579 18.1133H95.0938V20.3774H97.3579V18.1133Z" fill="#212833"/>
<path d="M24.9048 20.3774H22.6406V22.6416H24.9048V20.3774Z" fill="#212833"/>
<path d="M29.4321 20.3774H27.168V22.6416H29.4321V20.3774Z" fill="#212833"/>
<path d="M31.6977 20.3774H29.4336V22.6416H31.6977V20.3774Z" fill="#212833"/>
<path d="M33.9614 20.3774H31.6973V22.6416H33.9614V20.3774Z" fill="#212833"/>
<path d="M36.2251 20.3774H33.9609V22.6416H36.2251V20.3774Z" fill="#212833"/>
<path d="M49.811 20.3774H47.5469V22.6416H49.811V20.3774Z" fill="#212833"/>
<path d="M52.0747 20.3774H49.8105V22.6416H52.0747V20.3774Z" fill="#212833"/>
<path d="M56.602 20.3774H54.3379V22.6416H56.602V20.3774Z" fill="#212833"/>
<path d="M65.6587 20.3774H63.3945V22.6416H65.6587V20.3774Z" fill="#212833"/>
<path d="M70.188 20.3774H67.9238V22.6416H70.188V20.3774Z" fill="#212833"/>
<path d="M72.4517 20.3774H70.1875V22.6416H72.4517V20.3774Z" fill="#212833"/>
<path d="M74.7153 20.3774H72.4512V22.6416H74.7153V20.3774Z" fill="#212833"/>
<path d="M90.5649 20.3774H88.3008V22.6416H90.5649V20.3774Z" fill="#212833"/>
<path d="M92.8286 20.3774H90.5645V22.6416H92.8286V20.3774Z" fill="#212833"/>
<path d="M97.3579 20.3774H95.0938V22.6416H97.3579V20.3774Z" fill="#212833"/>
<path d="M6.79149 22.6416H4.52734V24.9058H6.79149V22.6416Z" fill="#212833"/>
<path d="M11.3188 22.6416H9.05469V24.9058H11.3188V22.6416Z" fill="#212833"/>
<path d="M13.5845 22.6416H11.3203V24.9058H13.5845V22.6416Z" fill="#212833"/>
<path d="M15.8481 22.6416H13.584V24.9058H15.8481V22.6416Z" fill="#212833"/>
<path d="M18.1118 22.6416H15.8477V24.9058H18.1118V22.6416Z" fill="#212833"/>
<path d="M20.3755 22.6416H18.1113V24.9058H20.3755V22.6416Z" fill="#212833"/>
<path d="M29.4321 22.6416H27.168V24.9058H29.4321V22.6416Z" fill="#212833"/>
<path d="M31.6977 22.6416H29.4336V24.9058H31.6977V22.6416Z" fill="#212833"/>
<path d="M40.7544 22.6416H38.4902V24.9058H40.7544V22.6416Z" fill="#212833"/>
<path d="M43.0181 22.6416H40.7539V24.9058H43.0181V22.6416Z" fill="#212833"/>
<path d="M49.811 22.6416H47.5469V24.9058H49.811V22.6416Z" fill="#212833"/>
<path d="M52.0747 22.6416H49.8105V24.9058H52.0747V22.6416Z" fill="#212833"/>
<path d="M54.3384 22.6416H52.0742V24.9058H54.3384V22.6416Z" fill="#212833"/>
<path d="M56.602 22.6416H54.3379V24.9058H56.602V22.6416Z" fill="#212833"/>
<path d="M58.8677 22.6416H56.6035V24.9058H58.8677V22.6416Z" fill="#212833"/>
<path d="M61.1313 22.6416H58.8672V24.9058H61.1313V22.6416Z" fill="#212833"/>
<path d="M63.395 22.6416H61.1309V24.9058H63.395V22.6416Z" fill="#212833"/>
<path d="M65.6587 22.6416H63.3945V24.9058H65.6587V22.6416Z" fill="#212833"/>
<path d="M74.7153 22.6416H72.4512V24.9058H74.7153V22.6416Z" fill="#212833"/>
<path d="M76.9809 22.6416H74.7168V24.9058H76.9809V22.6416Z" fill="#212833"/>
<path d="M83.772 22.6416H81.5078V24.9058H83.772V22.6416Z" fill="#212833"/>
<path d="M86.0376 22.6416H83.7734V24.9058H86.0376V22.6416Z" fill="#212833"/>
<path d="M88.3013 22.6416H86.0371V24.9058H88.3013V22.6416Z" fill="#212833"/>
<path d="M97.3579 22.6416H95.0938V24.9058H97.3579V22.6416Z" fill="#212833"/>
<path d="M101.885 22.6416H99.6211V24.9058H101.885V22.6416Z" fill="#212833"/>
<path d="M104.151 22.6416H101.887V24.9058H104.151V22.6416Z" fill="#212833"/>
<path d="M106.415 22.6416H104.15V24.9058H106.415V22.6416Z" fill="#212833"/>
<path d="M108.678 22.6416H106.414V24.9058H108.678V22.6416Z" fill="#212833"/>
<path d="M110.942 22.6416H108.678V24.9058H110.942V22.6416Z" fill="#212833"/>
<path d="M11.3188 24.9058H9.05469V27.1699H11.3188V24.9058Z" fill="#212833"/>
<path d="M18.1118 24.9058H15.8477V27.1699H18.1118V24.9058Z" fill="#212833"/>
<path d="M22.6411 24.9058H20.377V27.1699H22.6411V24.9058Z" fill="#212833"/>
<path d="M24.9048 24.9058H22.6406V27.1699H24.9048V24.9058Z" fill="#212833"/>
<path d="M27.1684 24.9058H24.9043V27.1699H27.1684V24.9058Z" fill="#212833"/>
<path d="M31.6977 24.9058H29.4336V27.1699H31.6977V24.9058Z" fill="#212833"/>
<path d="M33.9614 24.9058H31.6973V27.1699H33.9614V24.9058Z" fill="#212833"/>
<path d="M54.3384 24.9058H52.0742V27.1699H54.3384V24.9058Z" fill="#212833"/>
<path d="M63.395 24.9058H61.1309V27.1699H63.395V24.9058Z" fill="#212833"/>
<path d="M72.4517 24.9058H70.1875V27.1699H72.4517V24.9058Z" fill="#212833"/>
<path d="M74.7153 24.9058H72.4512V27.1699H74.7153V24.9058Z" fill="#212833"/>
<path d="M81.5083 24.9058H79.2441V27.1699H81.5083V24.9058Z" fill="#212833"/>
<path d="M90.5649 24.9058H88.3008V27.1699H90.5649V24.9058Z" fill="#212833"/>
<path d="M99.6216 24.9058H97.3574V27.1699H99.6216V24.9058Z" fill="#212833"/>
<path d="M101.885 24.9058H99.6211V27.1699H101.885V24.9058Z" fill="#212833"/>
<path d="M113.208 24.9058H110.943V27.1699H113.208V24.9058Z" fill="#212833"/>
<path d="M9.05517 27.1699H6.79102V29.4341H9.05517V27.1699Z" fill="#212833"/>
<path d="M11.3188 27.1699H9.05469V29.4341H11.3188V27.1699Z" fill="#212833"/>
<path d="M13.5845 27.1699H11.3203V29.4341H13.5845V27.1699Z" fill="#212833"/>
<path d="M18.1118 27.1699H15.8477V29.4341H18.1118V27.1699Z" fill="#212833"/>
<path d="M20.3755 27.1699H18.1113V29.4341H20.3755V27.1699Z" fill="#212833"/>
<path d="M22.6411 27.1699H20.377V29.4341H22.6411V27.1699Z" fill="#212833"/>
<path d="M27.1684 27.1699H24.9043V29.4341H27.1684V27.1699Z" fill="#212833"/>
<path d="M29.4321 27.1699H27.168V29.4341H29.4321V27.1699Z" fill="#212833"/>
<path d="M31.6977 27.1699H29.4336V29.4341H31.6977V27.1699Z" fill="#212833"/>
<path d="M40.7544 27.1699H38.4902V29.4341H40.7544V27.1699Z" fill="#212833"/>
<path d="M43.0181 27.1699H40.7539V29.4341H43.0181V27.1699Z" fill="#212833"/>
<path d="M45.2817 27.1699H43.0176V29.4341H45.2817V27.1699Z" fill="#212833"/>
<path d="M47.5454 27.1699H45.2812V29.4341H47.5454V27.1699Z" fill="#212833"/>
<path d="M49.811 27.1699H47.5469V29.4341H49.811V27.1699Z" fill="#212833"/>
<path d="M52.0747 27.1699H49.8105V29.4341H52.0747V27.1699Z" fill="#212833"/>
<path d="M54.3384 27.1699H52.0742V29.4341H54.3384V27.1699Z" fill="#212833"/>
<path d="M58.8677 27.1699H56.6035V29.4341H58.8677V27.1699Z" fill="#212833"/>
<path d="M65.6587 27.1699H63.3945V29.4341H65.6587V27.1699Z" fill="#212833"/>
<path d="M67.9243 27.1699H65.6602V29.4341H67.9243V27.1699Z" fill="#212833"/>
<path d="M70.188 27.1699H67.9238V29.4341H70.188V27.1699Z" fill="#212833"/>
<path d="M74.7153 27.1699H72.4512V29.4341H74.7153V27.1699Z" fill="#212833"/>
<path d="M76.9809 27.1699H74.7168V29.4341H76.9809V27.1699Z" fill="#212833"/>
<path d="M83.772 27.1699H81.5078V29.4341H83.772V27.1699Z" fill="#212833"/>
<path d="M86.0376 27.1699H83.7734V29.4341H86.0376V27.1699Z" fill="#212833"/>
<path d="M92.8286 27.1699H90.5645V29.4341H92.8286V27.1699Z" fill="#212833"/>
<path d="M95.0942 27.1699H92.8301V29.4341H95.0942V27.1699Z" fill="#212833"/>
<path d="M108.678 27.1699H106.414V29.4341H108.678V27.1699Z" fill="#212833"/>
<path d="M115.471 27.1699H113.207V29.4341H115.471V27.1699Z" fill="#212833"/>
<path d="M6.79149 29.4341H4.52734V31.6982H6.79149V29.4341Z" fill="#212833"/>
<path d="M9.05517 29.4341H6.79102V31.6982H9.05517V29.4341Z" fill="#212833"/>
<path d="M11.3188 29.4341H9.05469V31.6982H11.3188V29.4341Z" fill="#212833"/>
<path d="M13.5845 29.4341H11.3203V31.6982H13.5845V29.4341Z" fill="#212833"/>
<path d="M15.8481 29.4341H13.584V31.6982H15.8481V29.4341Z" fill="#212833"/>
<path d="M27.1684 29.4341H24.9043V31.6982H27.1684V29.4341Z" fill="#212833"/>
<path d="M36.2251 29.4341H33.9609V31.6982H36.2251V29.4341Z" fill="#212833"/>
<path d="M38.4888 29.4341H36.2246V31.6982H38.4888V29.4341Z" fill="#212833"/>
<path d="M40.7544 29.4341H38.4902V31.6982H40.7544V29.4341Z" fill="#212833"/>
<path d="M47.5454 29.4341H45.2812V31.6982H47.5454V29.4341Z" fill="#212833"/>
<path d="M54.3384 29.4341H52.0742V31.6982H54.3384V29.4341Z" fill="#212833"/>
<path d="M58.8677 29.4341H56.6035V31.6982H58.8677V29.4341Z" fill="#212833"/>
<path d="M63.395 29.4341H61.1309V31.6982H63.395V29.4341Z" fill="#212833"/>
<path d="M70.188 29.4341H67.9238V31.6982H70.188V29.4341Z" fill="#212833"/>
<path d="M74.7153 29.4341H72.4512V31.6982H74.7153V29.4341Z" fill="#212833"/>
<path d="M79.2446 29.4341H76.9805V31.6982H79.2446V29.4341Z" fill="#212833"/>
<path d="M104.151 29.4341H101.887V31.6982H104.151V29.4341Z" fill="#212833"/>
<path d="M106.415 29.4341H104.15V31.6982H106.415V29.4341Z" fill="#212833"/>
<path d="M108.678 29.4341H106.414V31.6982H108.678V29.4341Z" fill="#212833"/>
<path d="M113.208 29.4341H110.943V31.6982H113.208V29.4341Z" fill="#212833"/>
<path d="M11.3188 31.6982H9.05469V33.9624H11.3188V31.6982Z" fill="#212833"/>
<path d="M13.5845 31.6982H11.3203V33.9624H13.5845V31.6982Z" fill="#212833"/>
<path d="M18.1118 31.6982H15.8477V33.9624H18.1118V31.6982Z" fill="#212833"/>
<path d="M20.3755 31.6982H18.1113V33.9624H20.3755V31.6982Z" fill="#212833"/>
<path d="M22.6411 31.6982H20.377V33.9624H22.6411V31.6982Z" fill="#212833"/>
<path d="M24.9048 31.6982H22.6406V33.9624H24.9048V31.6982Z" fill="#212833"/>
<path d="M43.0181 31.6982H40.7539V33.9624H43.0181V31.6982Z" fill="#212833"/>
<path d="M47.5454 31.6982H45.2812V33.9624H47.5454V31.6982Z" fill="#212833"/>
<path d="M49.811 31.6982H47.5469V33.9624H49.811V31.6982Z" fill="#212833"/>
<path d="M56.602 31.6982H54.3379V33.9624H56.602V31.6982Z" fill="#212833"/>
<path d="M61.1313 31.6982H58.8672V33.9624H61.1313V31.6982Z" fill="#212833"/>
<path d="M63.395 31.6982H61.1309V33.9624H63.395V31.6982Z" fill="#212833"/>
<path d="M65.6587 31.6982H63.3945V33.9624H65.6587V31.6982Z" fill="#212833"/>
<path d="M76.9809 31.6982H74.7168V33.9624H76.9809V31.6982Z" fill="#212833"/>
<path d="M86.0376 31.6982H83.7734V33.9624H86.0376V31.6982Z" fill="#212833"/>
<path d="M88.3013 31.6982H86.0371V33.9624H88.3013V31.6982Z" fill="#212833"/>
<path d="M92.8286 31.6982H90.5645V33.9624H92.8286V31.6982Z" fill="#212833"/>
<path d="M97.3579 31.6982H95.0938V33.9624H97.3579V31.6982Z" fill="#212833"/>
<path d="M110.942 31.6982H108.678V33.9624H110.942V31.6982Z" fill="#212833"/>
<path d="M113.208 31.6982H110.943V33.9624H113.208V31.6982Z" fill="#212833"/>
<path d="M9.05517 33.9624H6.79102V36.2266H9.05517V33.9624Z" fill="#212833"/>
<path d="M13.5845 33.9624H11.3203V36.2266H13.5845V33.9624Z" fill="#212833"/>
<path d="M15.8481 33.9624H13.584V36.2266H15.8481V33.9624Z" fill="#212833"/>
<path d="M18.1118 33.9624H15.8477V36.2266H18.1118V33.9624Z" fill="#212833"/>
<path d="M24.9048 33.9624H22.6406V36.2266H24.9048V33.9624Z" fill="#212833"/>
<path d="M27.1684 33.9624H24.9043V36.2266H27.1684V33.9624Z" fill="#212833"/>
<path d="M29.4321 33.9624H27.168V36.2266H29.4321V33.9624Z" fill="#212833"/>
<path d="M33.9614 33.9624H31.6973V36.2266H33.9614V33.9624Z" fill="#212833"/>
<path d="M36.2251 33.9624H33.9609V36.2266H36.2251V33.9624Z" fill="#212833"/>
<path d="M40.7544 33.9624H38.4902V36.2266H40.7544V33.9624Z" fill="#212833"/>
<path d="M43.0181 33.9624H40.7539V36.2266H43.0181V33.9624Z" fill="#212833"/>
<path d="M45.2817 33.9624H43.0176V36.2266H45.2817V33.9624Z" fill="#212833"/>
<path d="M47.5454 33.9624H45.2812V36.2266H47.5454V33.9624Z" fill="#212833"/>
<path d="M54.3384 33.9624H52.0742V36.2266H54.3384V33.9624Z" fill="#212833"/>
<path d="M58.8677 33.9624H56.6035V36.2266H58.8677V33.9624Z" fill="#212833"/>
<path d="M74.7153 33.9624H72.4512V36.2266H74.7153V33.9624Z" fill="#212833"/>
<path d="M76.9809 33.9624H74.7168V36.2266H76.9809V33.9624Z" fill="#212833"/>
<path d="M79.2446 33.9624H76.9805V36.2266H79.2446V33.9624Z" fill="#212833"/>
<path d="M86.0376 33.9624H83.7734V36.2266H86.0376V33.9624Z" fill="#212833"/>
<path d="M90.5649 33.9624H88.3008V36.2266H90.5649V33.9624Z" fill="#212833"/>
<path d="M101.885 33.9624H99.6211V36.2266H101.885V33.9624Z" fill="#212833"/>
<path d="M113.208 33.9624H110.943V36.2266H113.208V33.9624Z" fill="#212833"/>
<path d="M6.79149 36.2263H4.52734V38.4905H6.79149V36.2263Z" fill="#212833"/>
<path d="M9.05517 36.2266H6.79102V38.4907H9.05517V36.2266Z" fill="#212833"/>
<path d="M11.3188 36.2266H9.05469V38.4907H11.3188V36.2266Z" fill="#212833"/>
<path d="M13.5845 36.2266H11.3203V38.4907H13.5845V36.2266Z" fill="#212833"/>
<path d="M15.8481 36.2263H13.584V38.4905H15.8481V36.2263Z" fill="#212833"/>
<path d="M18.1118 36.2266H15.8477V38.4907H18.1118V36.2266Z" fill="#212833"/>
<path d="M20.3755 36.2266H18.1113V38.4907H20.3755V36.2266Z" fill="#212833"/>
<path d="M22.6411 36.2266H20.377V38.4907H22.6411V36.2266Z" fill="#212833"/>
<path d="M24.9048 36.2263H22.6406V38.4905H24.9048V36.2263Z" fill="#212833"/>
<path d="M27.1684 36.2266H24.9043V38.4907H27.1684V36.2266Z" fill="#212833"/>
<path d="M29.4321 36.2266H27.168V38.4907H29.4321V36.2266Z" fill="#212833"/>
<path d="M47.5454 36.2266H45.2812V38.4907H47.5454V36.2266Z" fill="#212833"/>
<path d="M49.811 36.2266H47.5469V38.4907H49.811V36.2266Z" fill="#212833"/>
<path d="M61.1313 36.2263H58.8672V38.4905H61.1313V36.2263Z" fill="#212833"/>
<path d="M63.395 36.2266H61.1309V38.4907H63.395V36.2266Z" fill="#212833"/>
<path d="M65.6587 36.2266H63.3945V38.4907H65.6587V36.2266Z" fill="#212833"/>
<path d="M72.4517 36.2263H70.1875V38.4905H72.4517V36.2263Z" fill="#212833"/>
<path d="M81.5083 36.2263H79.2441V38.4905H81.5083V36.2263Z" fill="#212833"/>
<path d="M83.772 36.2266H81.5078V38.4907H83.772V36.2266Z" fill="#212833"/>
<path d="M86.0376 36.2266H83.7734V38.4907H86.0376V36.2266Z" fill="#212833"/>
<path d="M92.8286 36.2266H90.5645V38.4907H92.8286V36.2266Z" fill="#212833"/>
<path d="M108.678 36.2263H106.414V38.4905H108.678V36.2263Z" fill="#212833"/>
<path d="M113.208 36.2266H110.943V38.4907H113.208V36.2266Z" fill="#212833"/>
<path d="M115.471 36.2266H113.207V38.4907H115.471V36.2266Z" fill="#212833"/>
<path d="M9.05517 38.4905H6.79102V40.7546H9.05517V38.4905Z" fill="#212833"/>
<path d="M33.9614 38.4905H31.6973V40.7546H33.9614V38.4905Z" fill="#212833"/>
<path d="M45.2817 38.4905H43.0176V40.7546H45.2817V38.4905Z" fill="#212833"/>
<path d="M47.5454 38.4905H45.2812V40.7546H47.5454V38.4905Z" fill="#212833"/>
<path d="M54.3384 38.4905H52.0742V40.7546H54.3384V38.4905Z" fill="#212833"/>
<path d="M58.8677 38.4905H56.6035V40.7546H58.8677V38.4905Z" fill="#212833"/>
<path d="M74.7153 38.4905H72.4512V40.7546H74.7153V38.4905Z" fill="#212833"/>
<path d="M83.772 38.4905H81.5078V40.7546H83.772V38.4905Z" fill="#212833"/>
<path d="M95.0942 38.4905H92.8301V40.7546H95.0942V38.4905Z" fill="#212833"/>
<path d="M99.6216 38.4905H97.3574V40.7546H99.6216V38.4905Z" fill="#212833"/>
<path d="M101.885 38.4905H99.6211V40.7546H101.885V38.4905Z" fill="#212833"/>
<path d="M104.151 38.4905H101.887V40.7546H104.151V38.4905Z" fill="#212833"/>
<path d="M106.415 38.4905H104.15V40.7546H106.415V38.4905Z" fill="#212833"/>
<path d="M108.678 38.4905H106.414V40.7546H108.678V38.4905Z" fill="#212833"/>
<path d="M115.471 38.4905H113.207V40.7546H115.471V38.4905Z" fill="#212833"/>
<path d="M9.05517 40.7546H6.79102V43.0188H9.05517V40.7546Z" fill="#212833"/>
<path d="M15.8481 40.7546H13.584V43.0188H15.8481V40.7546Z" fill="#212833"/>
<path d="M20.3755 40.7546H18.1113V43.0188H20.3755V40.7546Z" fill="#212833"/>
<path d="M31.6977 40.7546H29.4336V43.0188H31.6977V40.7546Z" fill="#212833"/>
<path d="M33.9614 40.7546H31.6973V43.0188H33.9614V40.7546Z" fill="#212833"/>
<path d="M43.0181 40.7546H40.7539V43.0188H43.0181V40.7546Z" fill="#212833"/>
<path d="M47.5454 40.7546H45.2812V43.0188H47.5454V40.7546Z" fill="#212833"/>
<path d="M49.811 40.7546H47.5469V43.0188H49.811V40.7546Z" fill="#212833"/>
<path d="M52.0747 40.7546H49.8105V43.0188H52.0747V40.7546Z" fill="#212833"/>
<path d="M58.8677 40.7546H56.6035V43.0188H58.8677V40.7546Z" fill="#212833"/>
<path d="M61.1313 40.7546H58.8672V43.0188H61.1313V40.7546Z" fill="#212833"/>
<path d="M63.395 40.7546H61.1309V43.0188H63.395V40.7546Z" fill="#212833"/>
<path d="M65.6587 40.7546H63.3945V43.0188H65.6587V40.7546Z" fill="#212833"/>
<path d="M67.9243 40.7546H65.6602V43.0188H67.9243V40.7546Z" fill="#212833"/>
<path d="M72.4517 40.7546H70.1875V43.0188H72.4517V40.7546Z" fill="#212833"/>
<path d="M74.7153 40.7546H72.4512V43.0188H74.7153V40.7546Z" fill="#212833"/>
<path d="M86.0376 40.7546H83.7734V43.0188H86.0376V40.7546Z" fill="#212833"/>
<path d="M88.3013 40.7546H86.0371V43.0188H88.3013V40.7546Z" fill="#212833"/>
<path d="M92.8286 40.7546H90.5645V43.0188H92.8286V40.7546Z" fill="#212833"/>
<path d="M95.0942 40.7546H92.8301V43.0188H95.0942V40.7546Z" fill="#212833"/>
<path d="M104.151 40.7546H101.887V43.0188H104.151V40.7546Z" fill="#212833"/>
<path d="M108.678 40.7546H106.414V43.0188H108.678V40.7546Z" fill="#212833"/>
<path d="M110.942 40.7546H108.678V43.0188H110.942V40.7546Z" fill="#212833"/>
<path d="M6.79149 43.0188H4.52734V45.2829H6.79149V43.0188Z" fill="#212833"/>
<path d="M9.05517 43.0188H6.79102V45.2829H9.05517V43.0188Z" fill="#212833"/>
<path d="M11.3188 43.0188H9.05469V45.2829H11.3188V43.0188Z" fill="#212833"/>
<path d="M13.5845 43.0188H11.3203V45.2829H13.5845V43.0188Z" fill="#212833"/>
<path d="M18.1118 43.0188H15.8477V45.2829H18.1118V43.0188Z" fill="#212833"/>
<path d="M22.6411 43.0188H20.377V45.2829H22.6411V43.0188Z" fill="#212833"/>
<path d="M33.9614 43.0188H31.6973V45.2829H33.9614V43.0188Z" fill="#212833"/>
<path d="M43.0181 43.0188H40.7539V45.2829H43.0181V43.0188Z" fill="#212833"/>
<path d="M74.7153 43.0188H72.4512V45.2829H74.7153V43.0188Z" fill="#212833"/>
<path d="M76.9809 43.0188H74.7168V45.2829H76.9809V43.0188Z" fill="#212833"/>
<path d="M86.0376 43.0188H83.7734V45.2829H86.0376V43.0188Z" fill="#212833"/>
<path d="M90.5649 43.0188H88.3008V45.2829H90.5649V43.0188Z" fill="#212833"/>
<path d="M101.885 43.0188H99.6211V45.2829H101.885V43.0188Z" fill="#212833"/>
<path d="M113.208 43.0188H110.943V45.2829H113.208V43.0188Z" fill="#212833"/>
<path d="M6.79149 45.283H4.52734V47.5471H6.79149V45.283Z" fill="#212833"/>
<path d="M9.05517 45.283H6.79102V47.5471H9.05517V45.283Z" fill="#212833"/>
<path d="M11.3188 45.283H9.05469V47.5471H11.3188V45.283Z" fill="#212833"/>
<path d="M15.8481 45.283H13.584V47.5471H15.8481V45.283Z" fill="#212833"/>
<path d="M20.3755 45.283H18.1113V47.5471H20.3755V45.283Z" fill="#212833"/>
<path d="M31.6977 45.283H29.4336V47.5471H31.6977V45.283Z" fill="#212833"/>
<path d="M33.9614 45.283H31.6973V47.5471H33.9614V45.283Z" fill="#212833"/>
<path d="M36.2251 45.283H33.9609V47.5471H36.2251V45.283Z" fill="#212833"/>
<path d="M38.4888 45.283H36.2246V47.5471H38.4888V45.283Z" fill="#212833"/>
<path d="M43.0181 45.283H40.7539V47.5471H43.0181V45.283Z" fill="#212833"/>
<path d="M45.2817 45.283H43.0176V47.5471H45.2817V45.283Z" fill="#212833"/>
<path d="M47.5454 45.283H45.2812V47.5471H47.5454V45.283Z" fill="#212833"/>
<path d="M54.3384 45.283H52.0742V47.5471H54.3384V45.283Z" fill="#212833"/>
<path d="M58.8677 45.283H56.6035V47.5471H58.8677V45.283Z" fill="#212833"/>
<path d="M61.1313 45.283H58.8672V47.5471H61.1313V45.283Z" fill="#212833"/>
<path d="M63.395 45.283H61.1309V47.5471H63.395V45.283Z" fill="#212833"/>
<path d="M65.6587 45.283H63.3945V47.5471H65.6587V45.283Z" fill="#212833"/>
<path d="M67.9243 45.283H65.6602V47.5471H67.9243V45.283Z" fill="#212833"/>
<path d="M72.4517 45.283H70.1875V47.5471H72.4517V45.283Z" fill="#212833"/>
<path d="M74.7153 45.283H72.4512V47.5471H74.7153V45.283Z" fill="#212833"/>
<path d="M76.9809 45.283H74.7168V47.5471H76.9809V45.283Z" fill="#212833"/>
<path d="M83.772 45.283H81.5078V47.5471H83.772V45.283Z" fill="#212833"/>
<path d="M88.3013 45.283H86.0371V47.5471H88.3013V45.283Z" fill="#212833"/>
<path d="M90.5649 45.283H88.3008V47.5471H90.5649V45.283Z" fill="#212833"/>
<path d="M92.8286 45.283H90.5645V47.5471H92.8286V45.283Z" fill="#212833"/>
<path d="M99.6216 45.283H97.3574V47.5471H99.6216V45.283Z" fill="#212833"/>
<path d="M104.151 45.283H101.887V47.5471H104.151V45.283Z" fill="#212833"/>
<path d="M106.415 45.283H104.15V47.5471H106.415V45.283Z" fill="#212833"/>
<path d="M108.678 45.283H106.414V47.5471H108.678V45.283Z" fill="#212833"/>
<path d="M115.471 45.283H113.207V47.5471H115.471V45.283Z" fill="#212833"/>
<path d="M9.05517 47.5471H6.79102V49.8113H9.05517V47.5471Z" fill="#212833"/>
<path d="M11.3188 47.5471H9.05469V49.8113H11.3188V47.5471Z" fill="#212833"/>
<path d="M15.8481 47.5471H13.584V49.8113H15.8481V47.5471Z" fill="#212833"/>
<path d="M22.6411 47.5471H20.377V49.8113H22.6411V47.5471Z" fill="#212833"/>
<path d="M27.1684 47.5471H24.9043V49.8113H27.1684V47.5471Z" fill="#212833"/>
<path d="M29.4321 47.5471H27.168V49.8113H29.4321V47.5471Z" fill="#212833"/>
<path d="M31.6977 47.5471H29.4336V49.8113H31.6977V47.5471Z" fill="#212833"/>
<path d="M33.9614 47.5471H31.6973V49.8113H33.9614V47.5471Z" fill="#212833"/>
<path d="M36.2251 47.5471H33.9609V49.8113H36.2251V47.5471Z" fill="#212833"/>
<path d="M38.4888 47.5471H36.2246V49.8113H38.4888V47.5471Z" fill="#212833"/>
<path d="M40.7544 47.5471H38.4902V49.8113H40.7544V47.5471Z" fill="#212833"/>
<path d="M45.2817 47.5471H43.0176V49.8113H45.2817V47.5471Z" fill="#212833"/>
<path d="M52.0747 47.5471H49.8105V49.8113H52.0747V47.5471Z" fill="#212833"/>
<path d="M70.188 47.5471H67.9238V49.8113H70.188V47.5471Z" fill="#212833"/>
<path d="M72.4517 47.5471H70.1875V49.8113H72.4517V47.5471Z" fill="#212833"/>
<path d="M76.9809 47.5471H74.7168V49.8113H76.9809V47.5471Z" fill="#212833"/>
<path d="M79.2446 47.5471H76.9805V49.8113H79.2446V47.5471Z" fill="#212833"/>
<path d="M95.0942 47.5471H92.8301V49.8113H95.0942V47.5471Z" fill="#212833"/>
<path d="M97.3579 47.5471H95.0938V49.8113H97.3579V47.5471Z" fill="#212833"/>
<path d="M99.6216 47.5471H97.3574V49.8113H99.6216V47.5471Z" fill="#212833"/>
<path d="M104.151 47.5471H101.887V49.8113H104.151V47.5471Z" fill="#212833"/>
<path d="M106.415 47.5471H104.15V49.8113H106.415V47.5471Z" fill="#212833"/>
<path d="M113.208 47.5471H110.943V49.8113H113.208V47.5471Z" fill="#212833"/>
<path d="M6.79149 49.8113H4.52734V52.0754H6.79149V49.8113Z" fill="#212833"/>
<path d="M9.05517 49.8113H6.79102V52.0754H9.05517V49.8113Z" fill="#212833"/>
<path d="M11.3188 49.8113H9.05469V52.0754H11.3188V49.8113Z" fill="#212833"/>
<path d="M13.5845 49.8113H11.3203V52.0754H13.5845V49.8113Z" fill="#212833"/>
<path d="M18.1118 49.8113H15.8477V52.0754H18.1118V49.8113Z" fill="#212833"/>
<path d="M20.3755 49.8113H18.1113V52.0754H20.3755V49.8113Z" fill="#212833"/>
<path d="M24.9048 49.8113H22.6406V52.0754H24.9048V49.8113Z" fill="#212833"/>
<path d="M31.6977 49.8113H29.4336V52.0754H31.6977V49.8113Z" fill="#212833"/>
<path d="M38.4888 49.8113H36.2246V52.0754H38.4888V49.8113Z" fill="#212833"/>
<path d="M47.5454 49.8113H45.2812V52.0754H47.5454V49.8113Z" fill="#212833"/>
<path d="M52.0747 49.8113H49.8105V52.0754H52.0747V49.8113Z" fill="#212833"/>
<path d="M54.3384 49.8113H52.0742V52.0754H54.3384V49.8113Z" fill="#212833"/>
<path d="M56.602 49.8113H54.3379V52.0754H56.602V49.8113Z" fill="#212833"/>
<path d="M58.8677 49.8113H56.6035V52.0754H58.8677V49.8113Z" fill="#212833"/>
<path d="M61.1313 49.8113H58.8672V52.0754H61.1313V49.8113Z" fill="#212833"/>
<path d="M63.395 49.8113H61.1309V52.0754H63.395V49.8113Z" fill="#212833"/>
<path d="M67.9243 49.8113H65.6602V52.0754H67.9243V49.8113Z" fill="#212833"/>
<path d="M72.4517 49.8113H70.1875V52.0754H72.4517V49.8113Z" fill="#212833"/>
<path d="M74.7153 49.8113H72.4512V52.0754H74.7153V49.8113Z" fill="#212833"/>
<path d="M83.772 49.8113H81.5078V52.0754H83.772V49.8113Z" fill="#212833"/>
<path d="M86.0376 49.8113H83.7734V52.0754H86.0376V49.8113Z" fill="#212833"/>
<path d="M88.3013 49.8113H86.0371V52.0754H88.3013V49.8113Z" fill="#212833"/>
<path d="M90.5649 49.8113H88.3008V52.0754H90.5649V49.8113Z" fill="#212833"/>
<path d="M92.8286 49.8113H90.5645V52.0754H92.8286V49.8113Z" fill="#212833"/>
<path d="M95.0942 49.8113H92.8301V52.0754H95.0942V49.8113Z" fill="#212833"/>
<path d="M97.3579 49.8113H95.0938V52.0754H97.3579V49.8113Z" fill="#212833"/>
<path d="M99.6216 49.8113H97.3574V52.0754H99.6216V49.8113Z" fill="#212833"/>
<path d="M101.885 49.8113H99.6211V52.0754H101.885V49.8113Z" fill="#212833"/>
<path d="M110.942 49.8113H108.678V52.0754H110.942V49.8113Z" fill="#212833"/>
<path d="M113.208 49.8113H110.943V52.0754H113.208V49.8113Z" fill="#212833"/>
<path d="M115.471 49.8113H113.207V52.0754H115.471V49.8113Z" fill="#212833"/>
<path d="M6.79149 52.0754H4.52734V54.3396H6.79149V52.0754Z" fill="#212833"/>
<path d="M9.05517 52.0754H6.79102V54.3396H9.05517V52.0754Z" fill="#212833"/>
<path d="M13.5845 52.0754H11.3203V54.3396H13.5845V52.0754Z" fill="#212833"/>
<path d="M22.6411 52.0754H20.377V54.3396H22.6411V52.0754Z" fill="#212833"/>
<path d="M24.9048 52.0754H22.6406V54.3396H24.9048V52.0754Z" fill="#212833"/>
<path d="M27.1684 52.0754H24.9043V54.3396H27.1684V52.0754Z" fill="#212833"/>
<path d="M29.4321 52.0754H27.168V54.3396H29.4321V52.0754Z" fill="#212833"/>
<path d="M38.4888 52.0754H36.2246V54.3396H38.4888V52.0754Z" fill="#212833"/>
<path d="M40.7544 52.0754H38.4902V54.3396H40.7544V52.0754Z" fill="#212833"/>
<path d="M43.0181 52.0754H40.7539V54.3396H43.0181V52.0754Z" fill="#212833"/>
<path d="M47.5454 52.0754H45.2812V54.3396H47.5454V52.0754Z" fill="#212833"/>
<path d="M49.811 52.0754H47.5469V54.3396H49.811V52.0754Z" fill="#212833"/>
<path d="M54.3384 52.0754H52.0742V54.3396H54.3384V52.0754Z" fill="#212833"/>
<path d="M61.1313 52.0754H58.8672V54.3396H61.1313V52.0754Z" fill="#212833"/>
<path d="M74.7153 52.0754H72.4512V54.3396H74.7153V52.0754Z" fill="#212833"/>
<path d="M76.9809 52.0754H74.7168V54.3396H76.9809V52.0754Z" fill="#212833"/>
<path d="M90.5649 52.0754H88.3008V54.3396H90.5649V52.0754Z" fill="#212833"/>
<path d="M99.6216 52.0754H97.3574V54.3396H99.6216V52.0754Z" fill="#212833"/>
<path d="M101.885 52.0754H99.6211V54.3396H101.885V52.0754Z" fill="#212833"/>
<path d="M104.151 52.0754H101.887V54.3396H104.151V52.0754Z" fill="#212833"/>
<path d="M106.415 52.0754H104.15V54.3396H106.415V52.0754Z" fill="#212833"/>
<path d="M108.678 52.0754H106.414V54.3396H108.678V52.0754Z" fill="#212833"/>
<path d="M113.208 52.0754H110.943V54.3396H113.208V52.0754Z" fill="#212833"/>
<path d="M6.79149 54.3396H4.52734V56.6038H6.79149V54.3396Z" fill="#212833"/>
<path d="M9.05517 54.3396H6.79102V56.6038H9.05517V54.3396Z" fill="#212833"/>
<path d="M11.3188 54.3396H9.05469V56.6038H11.3188V54.3396Z" fill="#212833"/>
<path d="M15.8481 54.3396H13.584V56.6038H15.8481V54.3396Z" fill="#212833"/>
<path d="M18.1118 54.3396H15.8477V56.6038H18.1118V54.3396Z" fill="#212833"/>
<path d="M20.3755 54.3396H18.1113V56.6038H20.3755V54.3396Z" fill="#212833"/>
<path d="M22.6411 54.3396H20.377V56.6038H22.6411V54.3396Z" fill="#212833"/>
<path d="M24.9048 54.3396H22.6406V56.6038H24.9048V54.3396Z" fill="#212833"/>
<path d="M33.9614 54.3396H31.6973V56.6038H33.9614V54.3396Z" fill="#212833"/>
<path d="M38.4888 54.3396H36.2246V56.6038H38.4888V54.3396Z" fill="#212833"/>
<path d="M49.811 54.3396H47.5469V56.6038H49.811V54.3396Z" fill="#212833"/>
<path d="M54.3384 54.3396H52.0742V56.6038H54.3384V54.3396Z" fill="#212833"/>
<path d="M56.602 54.3396H54.3379V56.6038H56.602V54.3396Z" fill="#212833"/>
<path d="M58.8677 54.3396H56.6035V56.6038H58.8677V54.3396Z" fill="#212833"/>
<path d="M61.1313 54.3396H58.8672V56.6038H61.1313V54.3396Z" fill="#212833"/>
<path d="M63.395 54.3396H61.1309V56.6038H63.395V54.3396Z" fill="#212833"/>
<path d="M65.6587 54.3396H63.3945V56.6038H65.6587V54.3396Z" fill="#212833"/>
<path d="M67.9243 54.3396H65.6602V56.6038H67.9243V54.3396Z" fill="#212833"/>
<path d="M70.188 54.3396H67.9238V56.6038H70.188V54.3396Z" fill="#212833"/>
<path d="M81.5083 54.3396H79.2441V56.6038H81.5083V54.3396Z" fill="#212833"/>
<path d="M83.772 54.3396H81.5078V56.6038H83.772V54.3396Z" fill="#212833"/>
<path d="M86.0376 54.3396H83.7734V56.6038H86.0376V54.3396Z" fill="#212833"/>
<path d="M88.3013 54.3396H86.0371V56.6038H88.3013V54.3396Z" fill="#212833"/>
<path d="M90.5649 54.3396H88.3008V56.6038H90.5649V54.3396Z" fill="#212833"/>
<path d="M92.8286 54.3396H90.5645V56.6038H92.8286V54.3396Z" fill="#212833"/>
<path d="M95.0942 54.3396H92.8301V56.6038H95.0942V54.3396Z" fill="#212833"/>
<path d="M97.3579 54.3396H95.0938V56.6038H97.3579V54.3396Z" fill="#212833"/>
<path d="M99.6216 54.3396H97.3574V56.6038H99.6216V54.3396Z" fill="#212833"/>
<path d="M101.885 54.3396H99.6211V56.6038H101.885V54.3396Z" fill="#212833"/>
<path d="M104.151 54.3396H101.887V56.6038H104.151V54.3396Z" fill="#212833"/>
<path d="M106.415 54.3396H104.15V56.6038H106.415V54.3396Z" fill="#212833"/>
<path d="M113.208 54.3396H110.943V56.6038H113.208V54.3396Z" fill="#212833"/>
<path d="M115.471 54.3396H113.207V56.6038H115.471V54.3396Z" fill="#212833"/>
<path d="M9.05517 56.6038H6.79102V58.8679H9.05517V56.6038Z" fill="#212833"/>
<path d="M13.5845 56.6038H11.3203V58.8679H13.5845V56.6038Z" fill="#212833"/>
<path d="M15.8481 56.6038H13.584V58.8679H15.8481V56.6038Z" fill="#212833"/>
<path d="M24.9048 56.6038H22.6406V58.8679H24.9048V56.6038Z" fill="#212833"/>
<path d="M29.4321 56.6038H27.168V58.8679H29.4321V56.6038Z" fill="#212833"/>
<path d="M40.7544 56.6038H38.4902V58.8679H40.7544V56.6038Z" fill="#212833"/>
<path d="M43.0181 56.6038H40.7539V58.8679H43.0181V56.6038Z" fill="#212833"/>
<path d="M49.811 56.6038H47.5469V58.8679H49.811V56.6038Z" fill="#212833"/>
<path d="M56.602 56.6038H54.3379V58.8679H56.602V56.6038Z" fill="#212833"/>
<path d="M65.6587 56.6038H63.3945V58.8679H65.6587V56.6038Z" fill="#212833"/>
<path d="M67.9243 56.6038H65.6602V58.8679H67.9243V56.6038Z" fill="#212833"/>
<path d="M70.188 56.6038H67.9238V58.8679H70.188V56.6038Z" fill="#212833"/>
<path d="M74.7153 56.6038H72.4512V58.8679H74.7153V56.6038Z" fill="#212833"/>
<path d="M76.9809 56.6038H74.7168V58.8679H76.9809V56.6038Z" fill="#212833"/>
<path d="M92.8286 56.6038H90.5645V58.8679H92.8286V56.6038Z" fill="#212833"/>
<path d="M95.0942 56.6038H92.8301V58.8679H95.0942V56.6038Z" fill="#212833"/>
<path d="M97.3579 56.6038H95.0938V58.8679H97.3579V56.6038Z" fill="#212833"/>
<path d="M106.415 56.6038H104.15V58.8679H106.415V56.6038Z" fill="#212833"/>
<path d="M108.678 56.6038H106.414V58.8679H108.678V56.6038Z" fill="#212833"/>
<path d="M113.208 56.6038H110.943V58.8679H113.208V56.6038Z" fill="#212833"/>
<path d="M115.471 56.6038H113.207V58.8679H115.471V56.6038Z" fill="#212833"/>
<path d="M9.05517 58.8679H6.79102V61.1321H9.05517V58.8679Z" fill="#212833"/>
<path d="M11.3188 58.8679H9.05469V61.1321H11.3188V58.8679Z" fill="#212833"/>
<path d="M15.8481 58.8679H13.584V61.1321H15.8481V58.8679Z" fill="#212833"/>
<path d="M20.3755 58.8679H18.1113V61.1321H20.3755V58.8679Z" fill="#212833"/>
<path d="M24.9048 58.8679H22.6406V61.1321H24.9048V58.8679Z" fill="#212833"/>
<path d="M29.4321 58.8679H27.168V61.1321H29.4321V58.8679Z" fill="#212833"/>
<path d="M36.2251 58.8679H33.9609V61.1321H36.2251V58.8679Z" fill="#212833"/>
<path d="M38.4888 58.8679H36.2246V61.1321H38.4888V58.8679Z" fill="#212833"/>
<path d="M52.0747 58.8679H49.8105V61.1321H52.0747V58.8679Z" fill="#212833"/>
<path d="M54.3384 58.8679H52.0742V61.1321H54.3384V58.8679Z" fill="#212833"/>
<path d="M56.602 58.8679H54.3379V61.1321H56.602V58.8679Z" fill="#212833"/>
<path d="M61.1313 58.8679H58.8672V61.1321H61.1313V58.8679Z" fill="#212833"/>
<path d="M65.6587 58.8679H63.3945V61.1321H65.6587V58.8679Z" fill="#212833"/>
<path d="M76.9809 58.8679H74.7168V61.1321H76.9809V58.8679Z" fill="#212833"/>
<path d="M86.0376 58.8679H83.7734V61.1321H86.0376V58.8679Z" fill="#212833"/>
<path d="M88.3013 58.8679H86.0371V61.1321H88.3013V58.8679Z" fill="#212833"/>
<path d="M97.3579 58.8679H95.0938V61.1321H97.3579V58.8679Z" fill="#212833"/>
<path d="M101.885 58.8679H99.6211V61.1321H101.885V58.8679Z" fill="#212833"/>
<path d="M106.415 58.8679H104.15V61.1321H106.415V58.8679Z" fill="#212833"/>
<path d="M110.942 58.8679H108.678V61.1321H110.942V58.8679Z" fill="#212833"/>
<path d="M9.05517 61.1321H6.79102V63.3962H9.05517V61.1321Z" fill="#212833"/>
<path d="M13.5845 61.1321H11.3203V63.3962H13.5845V61.1321Z" fill="#212833"/>
<path d="M15.8481 61.1321H13.584V63.3962H15.8481V61.1321Z" fill="#212833"/>
<path d="M24.9048 61.1321H22.6406V63.3962H24.9048V61.1321Z" fill="#212833"/>
<path d="M27.1684 61.1321H24.9043V63.3962H27.1684V61.1321Z" fill="#212833"/>
<path d="M31.6977 61.1321H29.4336V63.3962H31.6977V61.1321Z" fill="#212833"/>
<path d="M33.9614 61.1321H31.6973V63.3962H33.9614V61.1321Z" fill="#212833"/>
<path d="M36.2251 61.1321H33.9609V63.3962H36.2251V61.1321Z" fill="#212833"/>
<path d="M40.7544 61.1321H38.4902V63.3962H40.7544V61.1321Z" fill="#212833"/>
<path d="M45.2817 61.1321H43.0176V63.3962H45.2817V61.1321Z" fill="#212833"/>
<path d="M47.5454 61.1321H45.2812V63.3962H47.5454V61.1321Z" fill="#212833"/>
<path d="M56.602 61.1321H54.3379V63.3962H56.602V61.1321Z" fill="#212833"/>
<path d="M65.6587 61.1321H63.3945V63.3962H65.6587V61.1321Z" fill="#212833"/>
<path d="M70.188 61.1321H67.9238V63.3962H70.188V61.1321Z" fill="#212833"/>
<path d="M72.4517 61.1321H70.1875V63.3962H72.4517V61.1321Z" fill="#212833"/>
<path d="M74.7153 61.1321H72.4512V63.3962H74.7153V61.1321Z" fill="#212833"/>
<path d="M76.9809 61.1321H74.7168V63.3962H76.9809V61.1321Z" fill="#212833"/>
<path d="M88.3013 61.1321H86.0371V63.3962H88.3013V61.1321Z" fill="#212833"/>
<path d="M90.5649 61.1321H88.3008V63.3962H90.5649V61.1321Z" fill="#212833"/>
<path d="M95.0942 61.1321H92.8301V63.3962H95.0942V61.1321Z" fill="#212833"/>
<path d="M97.3579 61.1321H95.0938V63.3962H97.3579V61.1321Z" fill="#212833"/>
<path d="M106.415 61.1321H104.15V63.3962H106.415V61.1321Z" fill="#212833"/>
<path d="M110.942 61.1321H108.678V63.3962H110.942V61.1321Z" fill="#212833"/>
<path d="M6.79149 63.3962H4.52734V65.6604H6.79149V63.3962Z" fill="#212833"/>
<path d="M13.5845 63.3962H11.3203V65.6604H13.5845V63.3962Z" fill="#212833"/>
<path d="M15.8481 63.3962H13.584V65.6604H15.8481V63.3962Z" fill="#212833"/>
<path d="M18.1118 63.3962H15.8477V65.6604H18.1118V63.3962Z" fill="#212833"/>
<path d="M20.3755 63.3962H18.1113V65.6604H20.3755V63.3962Z" fill="#212833"/>
<path d="M22.6411 63.3962H20.377V65.6604H22.6411V63.3962Z" fill="#212833"/>
<path d="M24.9048 63.3962H22.6406V65.6604H24.9048V63.3962Z" fill="#212833"/>
<path d="M36.2251 63.3962H33.9609V65.6604H36.2251V63.3962Z" fill="#212833"/>
<path d="M38.4888 63.3962H36.2246V65.6604H38.4888V63.3962Z" fill="#212833"/>
<path d="M40.7544 63.3962H38.4902V65.6604H40.7544V63.3962Z" fill="#212833"/>
<path d="M43.0181 63.3962H40.7539V65.6604H43.0181V63.3962Z" fill="#212833"/>
<path d="M45.2817 63.3962H43.0176V65.6604H45.2817V63.3962Z" fill="#212833"/>
<path d="M47.5454 63.3962H45.2812V65.6604H47.5454V63.3962Z" fill="#212833"/>
<path d="M52.0747 63.3962H49.8105V65.6604H52.0747V63.3962Z" fill="#212833"/>
<path d="M56.602 63.3962H54.3379V65.6604H56.602V63.3962Z" fill="#212833"/>
<path d="M58.8677 63.3962H56.6035V65.6604H58.8677V63.3962Z" fill="#212833"/>
<path d="M61.1313 63.3962H58.8672V65.6604H61.1313V63.3962Z" fill="#212833"/>
<path d="M63.395 63.3962H61.1309V65.6604H63.395V63.3962Z" fill="#212833"/>
<path d="M65.6587 63.3962H63.3945V65.6604H65.6587V63.3962Z" fill="#212833"/>
<path d="M79.2446 63.3962H76.9805V65.6604H79.2446V63.3962Z" fill="#212833"/>
<path d="M90.5649 63.3962H88.3008V65.6604H90.5649V63.3962Z" fill="#212833"/>
<path d="M92.8286 63.3962H90.5645V65.6604H92.8286V63.3962Z" fill="#212833"/>
<path d="M97.3579 63.3962H95.0938V65.6604H97.3579V63.3962Z" fill="#212833"/>
<path d="M99.6216 63.3962H97.3574V65.6604H99.6216V63.3962Z" fill="#212833"/>
<path d="M101.885 63.3962H99.6211V65.6604H101.885V63.3962Z" fill="#212833"/>
<path d="M104.151 63.3962H101.887V65.6604H104.151V63.3962Z" fill="#212833"/>
<path d="M106.415 63.3962H104.15V65.6604H106.415V63.3962Z" fill="#212833"/>
<path d="M110.942 63.3962H108.678V65.6604H110.942V63.3962Z" fill="#212833"/>
<path d="M115.471 63.3962H113.207V65.6604H115.471V63.3962Z" fill="#212833"/>
<path d="M9.05517 65.6604H6.79102V67.9246H9.05517V65.6604Z" fill="#212833"/>
<path d="M18.1118 65.6604H15.8477V67.9246H18.1118V65.6604Z" fill="#212833"/>
<path d="M24.9048 65.6604H22.6406V67.9246H24.9048V65.6604Z" fill="#212833"/>
<path d="M27.1684 65.6604H24.9043V67.9246H27.1684V65.6604Z" fill="#212833"/>
<path d="M36.2251 65.6604H33.9609V67.9246H36.2251V65.6604Z" fill="#212833"/>
<path d="M38.4888 65.6604H36.2246V67.9246H38.4888V65.6604Z" fill="#212833"/>
<path d="M49.811 65.6604H47.5469V67.9246H49.811V65.6604Z" fill="#212833"/>
<path d="M52.0747 65.6604H49.8105V67.9246H52.0747V65.6604Z" fill="#212833"/>
<path d="M54.3384 65.6604H52.0742V67.9246H54.3384V65.6604Z" fill="#212833"/>
<path d="M56.602 65.6604H54.3379V67.9246H56.602V65.6604Z" fill="#212833"/>
<path d="M58.8677 65.6604H56.6035V67.9246H58.8677V65.6604Z" fill="#212833"/>
<path d="M61.1313 65.6604H58.8672V67.9246H61.1313V65.6604Z" fill="#212833"/>
<path d="M63.395 65.6604H61.1309V67.9246H63.395V65.6604Z" fill="#212833"/>
<path d="M67.9243 65.6604H65.6602V67.9246H67.9243V65.6604Z" fill="#212833"/>
<path d="M70.188 65.6604H67.9238V67.9246H70.188V65.6604Z" fill="#212833"/>
<path d="M72.4517 65.6604H70.1875V67.9246H72.4517V65.6604Z" fill="#212833"/>
<path d="M74.7153 65.6604H72.4512V67.9246H74.7153V65.6604Z" fill="#212833"/>
<path d="M79.2446 65.6604H76.9805V67.9246H79.2446V65.6604Z" fill="#212833"/>
<path d="M81.5083 65.6604H79.2441V67.9246H81.5083V65.6604Z" fill="#212833"/>
<path d="M83.772 65.6604H81.5078V67.9246H83.772V65.6604Z" fill="#212833"/>
<path d="M92.8286 65.6604H90.5645V67.9246H92.8286V65.6604Z" fill="#212833"/>
<path d="M97.3579 65.6604H95.0938V67.9246H97.3579V65.6604Z" fill="#212833"/>
<path d="M99.6216 65.6604H97.3574V67.9246H99.6216V65.6604Z" fill="#212833"/>
<path d="M115.471 65.6604H113.207V67.9246H115.471V65.6604Z" fill="#212833"/>
<path d="M9.05517 67.9246H6.79102V70.1887H9.05517V67.9246Z" fill="#212833"/>
<path d="M11.3188 67.9246H9.05469V70.1887H11.3188V67.9246Z" fill="#212833"/>
<path d="M13.5845 67.9246H11.3203V70.1887H13.5845V67.9246Z" fill="#212833"/>
<path d="M20.3755 67.9246H18.1113V70.1887H20.3755V67.9246Z" fill="#212833"/>
<path d="M24.9048 67.9246H22.6406V70.1887H24.9048V67.9246Z" fill="#212833"/>
<path d="M27.1684 67.9246H24.9043V70.1887H27.1684V67.9246Z" fill="#212833"/>
<path d="M29.4321 67.9246H27.168V70.1887H29.4321V67.9246Z" fill="#212833"/>
<path d="M31.6977 67.9246H29.4336V70.1887H31.6977V67.9246Z" fill="#212833"/>
<path d="M36.2251 67.9246H33.9609V70.1887H36.2251V67.9246Z" fill="#212833"/>
<path d="M45.2817 67.9246H43.0176V70.1887H45.2817V67.9246Z" fill="#212833"/>
<path d="M54.3384 67.9246H52.0742V70.1887H54.3384V67.9246Z" fill="#212833"/>
<path d="M56.602 67.9246H54.3379V70.1887H56.602V67.9246Z" fill="#212833"/>
<path d="M58.8677 67.9246H56.6035V70.1887H58.8677V67.9246Z" fill="#212833"/>
<path d="M61.1313 67.9246H58.8672V70.1887H61.1313V67.9246Z" fill="#212833"/>
<path d="M63.395 67.9246H61.1309V70.1887H63.395V67.9246Z" fill="#212833"/>
<path d="M72.4517 67.9246H70.1875V70.1887H72.4517V67.9246Z" fill="#212833"/>
<path d="M76.9809 67.9246H74.7168V70.1887H76.9809V67.9246Z" fill="#212833"/>
<path d="M86.0376 67.9246H83.7734V70.1887H86.0376V67.9246Z" fill="#212833"/>
<path d="M88.3013 67.9246H86.0371V70.1887H88.3013V67.9246Z" fill="#212833"/>
<path d="M90.5649 67.9246H88.3008V70.1887H90.5649V67.9246Z" fill="#212833"/>
<path d="M95.0942 67.9246H92.8301V70.1887H95.0942V67.9246Z" fill="#212833"/>
<path d="M97.3579 67.9246H95.0938V70.1887H97.3579V67.9246Z" fill="#212833"/>
<path d="M99.6216 67.9246H97.3574V70.1887H99.6216V67.9246Z" fill="#212833"/>
<path d="M104.151 67.9246H101.887V70.1887H104.151V67.9246Z" fill="#212833"/>
<path d="M106.415 67.9246H104.15V70.1887H106.415V67.9246Z" fill="#212833"/>
<path d="M110.942 67.9246H108.678V70.1887H110.942V67.9246Z" fill="#212833"/>
<path d="M113.208 67.9246H110.943V70.1887H113.208V67.9246Z" fill="#212833"/>
<path d="M115.471 67.9246H113.207V70.1887H115.471V67.9246Z" fill="#212833"/>
<path d="M11.3188 70.1887H9.05469V72.4529H11.3188V70.1887Z" fill="#212833"/>
<path d="M15.8481 70.1887H13.584V72.4529H15.8481V70.1887Z" fill="#212833"/>
<path d="M24.9048 70.1887H22.6406V72.4529H24.9048V70.1887Z" fill="#212833"/>
<path d="M29.4321 70.1887H27.168V72.4529H29.4321V70.1887Z" fill="#212833"/>
<path d="M31.6977 70.1887H29.4336V72.4529H31.6977V70.1887Z" fill="#212833"/>
<path d="M33.9614 70.1887H31.6973V72.4529H33.9614V70.1887Z" fill="#212833"/>
<path d="M47.5454 70.1887H45.2812V72.4529H47.5454V70.1887Z" fill="#212833"/>
<path d="M49.811 70.1887H47.5469V72.4529H49.811V70.1887Z" fill="#212833"/>
<path d="M52.0747 70.1887H49.8105V72.4529H52.0747V70.1887Z" fill="#212833"/>
<path d="M54.3384 70.1887H52.0742V72.4529H54.3384V70.1887Z" fill="#212833"/>
<path d="M56.602 70.1887H54.3379V72.4529H56.602V70.1887Z" fill="#212833"/>
<path d="M61.1313 70.1887H58.8672V72.4529H61.1313V70.1887Z" fill="#212833"/>
<path d="M63.395 70.1887H61.1309V72.4529H63.395V70.1887Z" fill="#212833"/>
<path d="M67.9243 70.1887H65.6602V72.4529H67.9243V70.1887Z" fill="#212833"/>
<path d="M70.188 70.1887H67.9238V72.4529H70.188V70.1887Z" fill="#212833"/>
<path d="M74.7153 70.1887H72.4512V72.4529H74.7153V70.1887Z" fill="#212833"/>
<path d="M79.2446 70.1887H76.9805V72.4529H79.2446V70.1887Z" fill="#212833"/>
<path d="M86.0376 70.1887H83.7734V72.4529H86.0376V70.1887Z" fill="#212833"/>
<path d="M90.5649 70.1887H88.3008V72.4529H90.5649V70.1887Z" fill="#212833"/>
<path d="M95.0942 70.1887H92.8301V72.4529H95.0942V70.1887Z" fill="#212833"/>
<path d="M97.3579 70.1887H95.0938V72.4529H97.3579V70.1887Z" fill="#212833"/>
<path d="M99.6216 70.1887H97.3574V72.4529H99.6216V70.1887Z" fill="#212833"/>
<path d="M104.151 70.1887H101.887V72.4529H104.151V70.1887Z" fill="#212833"/>
<path d="M11.3188 72.4529H9.05469V74.717H11.3188V72.4529Z" fill="#212833"/>
<path d="M13.5845 72.4529H11.3203V74.717H13.5845V72.4529Z" fill="#212833"/>
<path d="M18.1118 72.4529H15.8477V74.717H18.1118V72.4529Z" fill="#212833"/>
<path d="M20.3755 72.4529H18.1113V74.717H20.3755V72.4529Z" fill="#212833"/>
<path d="M29.4321 72.4529H27.168V74.717H29.4321V72.4529Z" fill="#212833"/>
<path d="M33.9614 72.4529H31.6973V74.717H33.9614V72.4529Z" fill="#212833"/>
<path d="M36.2251 72.4529H33.9609V74.717H36.2251V72.4529Z" fill="#212833"/>
<path d="M43.0181 72.4529H40.7539V74.717H43.0181V72.4529Z" fill="#212833"/>
<path d="M52.0747 72.4529H49.8105V74.717H52.0747V72.4529Z" fill="#212833"/>
<path d="M58.8677 72.4529H56.6035V74.717H58.8677V72.4529Z" fill="#212833"/>
<path d="M61.1313 72.4529H58.8672V74.717H61.1313V72.4529Z" fill="#212833"/>
<path d="M63.395 72.4529H61.1309V74.717H63.395V72.4529Z" fill="#212833"/>
<path d="M67.9243 72.4529H65.6602V74.717H67.9243V72.4529Z" fill="#212833"/>
<path d="M72.4517 72.4529H70.1875V74.717H72.4517V72.4529Z" fill="#212833"/>
<path d="M76.9809 72.4529H74.7168V74.717H76.9809V72.4529Z" fill="#212833"/>
<path d="M79.2446 72.4529H76.9805V74.717H79.2446V72.4529Z" fill="#212833"/>
<path d="M81.5083 72.4529H79.2441V74.717H81.5083V72.4529Z" fill="#212833"/>
<path d="M83.772 72.4529H81.5078V74.717H83.772V72.4529Z" fill="#212833"/>
<path d="M86.0376 72.4529H83.7734V74.717H86.0376V72.4529Z" fill="#212833"/>
<path d="M88.3013 72.4529H86.0371V74.717H88.3013V72.4529Z" fill="#212833"/>
<path d="M92.8286 72.4529H90.5645V74.717H92.8286V72.4529Z" fill="#212833"/>
<path d="M99.6216 72.4529H97.3574V74.717H99.6216V72.4529Z" fill="#212833"/>
<path d="M101.885 72.4529H99.6211V74.717H101.885V72.4529Z" fill="#212833"/>
<path d="M108.678 72.4529H106.414V74.717H108.678V72.4529Z" fill="#212833"/>
<path d="M110.942 72.4529H108.678V74.717H110.942V72.4529Z" fill="#212833"/>
<path d="M113.208 72.4529H110.943V74.717H113.208V72.4529Z" fill="#212833"/>
<path d="M115.471 72.4529H113.207V74.717H115.471V72.4529Z" fill="#212833"/>
<path d="M9.05517 74.717H6.79102V76.9812H9.05517V74.717Z" fill="#212833"/>
<path d="M11.3188 74.717H9.05469V76.9812H11.3188V74.717Z" fill="#212833"/>
<path d="M24.9048 74.717H22.6406V76.9812H24.9048V74.717Z" fill="#212833"/>
<path d="M29.4321 74.717H27.168V76.9812H29.4321V74.717Z" fill="#212833"/>
<path d="M31.6977 74.717H29.4336V76.9812H31.6977V74.717Z" fill="#212833"/>
<path d="M36.2251 74.717H33.9609V76.9812H36.2251V74.717Z" fill="#212833"/>
<path d="M38.4888 74.717H36.2246V76.9812H38.4888V74.717Z" fill="#212833"/>
<path d="M45.2817 74.717H43.0176V76.9812H45.2817V74.717Z" fill="#212833"/>
<path d="M47.5454 74.717H45.2812V76.9812H47.5454V74.717Z" fill="#212833"/>
<path d="M49.811 74.717H47.5469V76.9812H49.811V74.717Z" fill="#212833"/>
<path d="M52.0747 74.717H49.8105V76.9812H52.0747V74.717Z" fill="#212833"/>
<path d="M56.602 74.717H54.3379V76.9812H56.602V74.717Z" fill="#212833"/>
<path d="M61.1313 74.717H58.8672V76.9812H61.1313V74.717Z" fill="#212833"/>
<path d="M65.6587 74.717H63.3945V76.9812H65.6587V74.717Z" fill="#212833"/>
<path d="M67.9243 74.717H65.6602V76.9812H67.9243V74.717Z" fill="#212833"/>
<path d="M72.4517 74.717H70.1875V76.9812H72.4517V74.717Z" fill="#212833"/>
<path d="M79.2446 74.717H76.9805V76.9812H79.2446V74.717Z" fill="#212833"/>
<path d="M86.0376 74.717H83.7734V76.9812H86.0376V74.717Z" fill="#212833"/>
<path d="M90.5649 74.717H88.3008V76.9812H90.5649V74.717Z" fill="#212833"/>
<path d="M97.3579 74.717H95.0938V76.9812H97.3579V74.717Z" fill="#212833"/>
<path d="M104.151 74.717H101.887V76.9812H104.151V74.717Z" fill="#212833"/>
<path d="M113.208 74.717H110.943V76.9812H113.208V74.717Z" fill="#212833"/>
<path d="M6.79149 76.9812H4.52734V79.2454H6.79149V76.9812Z" fill="#212833"/>
<path d="M15.8481 76.9812H13.584V79.2454H15.8481V76.9812Z" fill="#212833"/>
<path d="M20.3755 76.9812H18.1113V79.2454H20.3755V76.9812Z" fill="#212833"/>
<path d="M22.6411 76.9812H20.377V79.2454H22.6411V76.9812Z" fill="#212833"/>
<path d="M24.9048 76.9812H22.6406V79.2454H24.9048V76.9812Z" fill="#212833"/>
<path d="M27.1684 76.9812H24.9043V79.2454H27.1684V76.9812Z" fill="#212833"/>
<path d="M29.4321 76.9812H27.168V79.2454H29.4321V76.9812Z" fill="#212833"/>
<path d="M31.6977 76.9812H29.4336V79.2454H31.6977V76.9812Z" fill="#212833"/>
<path d="M36.2251 76.9812H33.9609V79.2454H36.2251V76.9812Z" fill="#212833"/>
<path d="M40.7544 76.9812H38.4902V79.2454H40.7544V76.9812Z" fill="#212833"/>
<path d="M45.2817 76.9812H43.0176V79.2454H45.2817V76.9812Z" fill="#212833"/>
<path d="M49.811 76.9812H47.5469V79.2454H49.811V76.9812Z" fill="#212833"/>
<path d="M52.0747 76.9812H49.8105V79.2454H52.0747V76.9812Z" fill="#212833"/>
<path d="M56.602 76.9812H54.3379V79.2454H56.602V76.9812Z" fill="#212833"/>
<path d="M58.8677 76.9812H56.6035V79.2454H58.8677V76.9812Z" fill="#212833"/>
<path d="M63.395 76.9812H61.1309V79.2454H63.395V76.9812Z" fill="#212833"/>
<path d="M70.188 76.9812H67.9238V79.2454H70.188V76.9812Z" fill="#212833"/>
<path d="M76.9809 76.9812H74.7168V79.2454H76.9809V76.9812Z" fill="#212833"/>
<path d="M81.5083 76.9812H79.2441V79.2454H81.5083V76.9812Z" fill="#212833"/>
<path d="M86.0376 76.9812H83.7734V79.2454H86.0376V76.9812Z" fill="#212833"/>
<path d="M88.3013 76.9812H86.0371V79.2454H88.3013V76.9812Z" fill="#212833"/>
<path d="M90.5649 76.9812H88.3008V79.2454H90.5649V76.9812Z" fill="#212833"/>
<path d="M95.0942 76.9812H92.8301V79.2454H95.0942V76.9812Z" fill="#212833"/>
<path d="M99.6216 76.9812H97.3574V79.2454H99.6216V76.9812Z" fill="#212833"/>
<path d="M104.151 76.9812H101.887V79.2454H104.151V76.9812Z" fill="#212833"/>
<path d="M106.415 76.9812H104.15V79.2454H106.415V76.9812Z" fill="#212833"/>
<path d="M110.942 76.9812H108.678V79.2454H110.942V76.9812Z" fill="#212833"/>
<path d="M113.208 76.9812H110.943V79.2454H113.208V76.9812Z" fill="#212833"/>
<path d="M115.471 76.9812H113.207V79.2454H115.471V76.9812Z" fill="#212833"/>
<path d="M11.3188 79.2454H9.05469V81.5095H11.3188V79.2454Z" fill="#212833"/>
<path d="M22.6411 79.2454H20.377V81.5095H22.6411V79.2454Z" fill="#212833"/>
<path d="M27.1684 79.2454H24.9043V81.5095H27.1684V79.2454Z" fill="#212833"/>
<path d="M29.4321 79.2454H27.168V81.5095H29.4321V79.2454Z" fill="#212833"/>
<path d="M31.6977 79.2454H29.4336V81.5095H31.6977V79.2454Z" fill="#212833"/>
<path d="M33.9614 79.2454H31.6973V81.5095H33.9614V79.2454Z" fill="#212833"/>
<path d="M40.7544 79.2454H38.4902V81.5095H40.7544V79.2454Z" fill="#212833"/>
<path d="M61.1313 79.2454H58.8672V81.5095H61.1313V79.2454Z" fill="#212833"/>
<path d="M63.395 79.2454H61.1309V81.5095H63.395V79.2454Z" fill="#212833"/>
<path d="M67.9243 79.2454H65.6602V81.5095H67.9243V79.2454Z" fill="#212833"/>
<path d="M70.188 79.2454H67.9238V81.5095H70.188V79.2454Z" fill="#212833"/>
<path d="M72.4517 79.2454H70.1875V81.5095H72.4517V79.2454Z" fill="#212833"/>
<path d="M76.9809 79.2454H74.7168V81.5095H76.9809V79.2454Z" fill="#212833"/>
<path d="M90.5649 79.2454H88.3008V81.5095H90.5649V79.2454Z" fill="#212833"/>
<path d="M95.0942 79.2454H92.8301V81.5095H95.0942V79.2454Z" fill="#212833"/>
<path d="M99.6216 79.2454H97.3574V81.5095H99.6216V79.2454Z" fill="#212833"/>
<path d="M104.151 79.2454H101.887V81.5095H104.151V79.2454Z" fill="#212833"/>
<path d="M113.208 79.2454H110.943V81.5095H113.208V79.2454Z" fill="#212833"/>
<path d="M6.79149 81.5095H4.52734V83.7737H6.79149V81.5095Z" fill="#212833"/>
<path d="M13.5845 81.5095H11.3203V83.7737H13.5845V81.5095Z" fill="#212833"/>
<path d="M15.8481 81.5095H13.584V83.7737H15.8481V81.5095Z" fill="#212833"/>
<path d="M18.1118 81.5095H15.8477V83.7737H18.1118V81.5095Z" fill="#212833"/>
<path d="M20.3755 81.5095H18.1113V83.7737H20.3755V81.5095Z" fill="#212833"/>
<path d="M22.6411 81.5095H20.377V83.7737H22.6411V81.5095Z" fill="#212833"/>
<path d="M31.6977 81.5095H29.4336V83.7737H31.6977V81.5095Z" fill="#212833"/>
<path d="M36.2251 81.5095H33.9609V83.7737H36.2251V81.5095Z" fill="#212833"/>
<path d="M38.4888 81.5095H36.2246V83.7737H38.4888V81.5095Z" fill="#212833"/>
<path d="M40.7544 81.5095H38.4902V83.7737H40.7544V81.5095Z" fill="#212833"/>
<path d="M52.0747 81.5095H49.8105V83.7737H52.0747V81.5095Z" fill="#212833"/>
<path d="M54.3384 81.5095H52.0742V83.7737H54.3384V81.5095Z" fill="#212833"/>
<path d="M56.602 81.5095H54.3379V83.7737H56.602V81.5095Z" fill="#212833"/>
<path d="M58.8677 81.5095H56.6035V83.7737H58.8677V81.5095Z" fill="#212833"/>
<path d="M61.1313 81.5095H58.8672V83.7737H61.1313V81.5095Z" fill="#212833"/>
<path d="M70.188 81.5095H67.9238V83.7737H70.188V81.5095Z" fill="#212833"/>
<path d="M74.7153 81.5095H72.4512V83.7737H74.7153V81.5095Z" fill="#212833"/>
<path d="M76.9809 81.5095H74.7168V83.7737H76.9809V81.5095Z" fill="#212833"/>
<path d="M83.772 81.5095H81.5078V83.7737H83.772V81.5095Z" fill="#212833"/>
<path d="M86.0376 81.5095H83.7734V83.7737H86.0376V81.5095Z" fill="#212833"/>
<path d="M88.3013 81.5095H86.0371V83.7737H88.3013V81.5095Z" fill="#212833"/>
<path d="M92.8286 81.5095H90.5645V83.7737H92.8286V81.5095Z" fill="#212833"/>
<path d="M101.885 81.5095H99.6211V83.7737H101.885V81.5095Z" fill="#212833"/>
<path d="M104.151 81.5095H101.887V83.7737H104.151V81.5095Z" fill="#212833"/>
<path d="M106.415 81.5095H104.15V83.7737H106.415V81.5095Z" fill="#212833"/>
<path d="M108.678 81.5095H106.414V83.7737H108.678V81.5095Z" fill="#212833"/>
<path d="M115.471 81.5095H113.207V83.7737H115.471V81.5095Z" fill="#212833"/>
<path d="M9.05517 83.7737H6.79102V86.0378H9.05517V83.7737Z" fill="#212833"/>
<path d="M13.5845 83.7737H11.3203V86.0378H13.5845V83.7737Z" fill="#212833"/>
<path d="M22.6411 83.7737H20.377V86.0378H22.6411V83.7737Z" fill="#212833"/>
<path d="M24.9048 83.7737H22.6406V86.0378H24.9048V83.7737Z" fill="#212833"/>
<path d="M27.1684 83.7737H24.9043V86.0378H27.1684V83.7737Z" fill="#212833"/>
<path d="M36.2251 83.7737H33.9609V86.0378H36.2251V83.7737Z" fill="#212833"/>
<path d="M38.4888 83.7737H36.2246V86.0378H38.4888V83.7737Z" fill="#212833"/>
<path d="M40.7544 83.7737H38.4902V86.0378H40.7544V83.7737Z" fill="#212833"/>
<path d="M43.0181 83.7737H40.7539V86.0378H43.0181V83.7737Z" fill="#212833"/>
<path d="M45.2817 83.7737H43.0176V86.0378H45.2817V83.7737Z" fill="#212833"/>
<path d="M49.811 83.7737H47.5469V86.0378H49.811V83.7737Z" fill="#212833"/>
<path d="M63.395 83.7737H61.1309V86.0378H63.395V83.7737Z" fill="#212833"/>
<path d="M65.6587 83.7737H63.3945V86.0378H65.6587V83.7737Z" fill="#212833"/>
<path d="M70.188 83.7737H67.9238V86.0378H70.188V83.7737Z" fill="#212833"/>
<path d="M72.4517 83.7737H70.1875V86.0378H72.4517V83.7737Z" fill="#212833"/>
<path d="M76.9809 83.7737H74.7168V86.0378H76.9809V83.7737Z" fill="#212833"/>
<path d="M79.2446 83.7737H76.9805V86.0378H79.2446V83.7737Z" fill="#212833"/>
<path d="M83.772 83.7737H81.5078V86.0378H83.772V83.7737Z" fill="#212833"/>
<path d="M95.0942 83.7737H92.8301V86.0378H95.0942V83.7737Z" fill="#212833"/>
<path d="M97.3579 83.7737H95.0938V86.0378H97.3579V83.7737Z" fill="#212833"/>
<path d="M113.208 83.7737H110.943V86.0378H113.208V83.7737Z" fill="#212833"/>
<path d="M115.471 83.7737H113.207V86.0378H115.471V83.7737Z" fill="#212833"/>
<path d="M9.05517 86.0378H6.79102V88.302H9.05517V86.0378Z" fill="#212833"/>
<path d="M11.3188 86.0378H9.05469V88.302H11.3188V86.0378Z" fill="#212833"/>
<path d="M15.8481 86.0378H13.584V88.302H15.8481V86.0378Z" fill="#212833"/>
<path d="M18.1118 86.0378H15.8477V88.302H18.1118V86.0378Z" fill="#212833"/>
<path d="M20.3755 86.0378H18.1113V88.302H20.3755V86.0378Z" fill="#212833"/>
<path d="M22.6411 86.0378H20.377V88.302H22.6411V86.0378Z" fill="#212833"/>
<path d="M29.4321 86.0378H27.168V88.302H29.4321V86.0378Z" fill="#212833"/>
<path d="M33.9614 86.0378H31.6973V88.302H33.9614V86.0378Z" fill="#212833"/>
<path d="M40.7544 86.0378H38.4902V88.302H40.7544V86.0378Z" fill="#212833"/>
<path d="M45.2817 86.0378H43.0176V88.302H45.2817V86.0378Z" fill="#212833"/>
<path d="M52.0747 86.0378H49.8105V88.302H52.0747V86.0378Z" fill="#212833"/>
<path d="M54.3384 86.0378H52.0742V88.302H54.3384V86.0378Z" fill="#212833"/>
<path d="M67.9243 86.0378H65.6602V88.302H67.9243V86.0378Z" fill="#212833"/>
<path d="M72.4517 86.0378H70.1875V88.302H72.4517V86.0378Z" fill="#212833"/>
<path d="M81.5083 86.0378H79.2441V88.302H81.5083V86.0378Z" fill="#212833"/>
<path d="M88.3013 86.0378H86.0371V88.302H88.3013V86.0378Z" fill="#212833"/>
<path d="M90.5649 86.0378H88.3008V88.302H90.5649V86.0378Z" fill="#212833"/>
<path d="M92.8286 86.0378H90.5645V88.302H92.8286V86.0378Z" fill="#212833"/>
<path d="M95.0942 86.0378H92.8301V88.302H95.0942V86.0378Z" fill="#212833"/>
<path d="M101.885 86.0378H99.6211V88.302H101.885V86.0378Z" fill="#212833"/>
<path d="M110.942 86.0378H108.678V88.302H110.942V86.0378Z" fill="#212833"/>
<path d="M6.79149 88.302H4.52734V90.5662H6.79149V88.302Z" fill="#212833"/>
<path d="M11.3188 88.302H9.05469V90.5662H11.3188V88.302Z" fill="#212833"/>
<path d="M13.5845 88.302H11.3203V90.5662H13.5845V88.302Z" fill="#212833"/>
<path d="M18.1118 88.302H15.8477V90.5662H18.1118V88.302Z" fill="#212833"/>
<path d="M27.1684 88.302H24.9043V90.5662H27.1684V88.302Z" fill="#212833"/>
<path d="M29.4321 88.302H27.168V90.5662H29.4321V88.302Z" fill="#212833"/>
<path d="M33.9614 88.302H31.6973V90.5662H33.9614V88.302Z" fill="#212833"/>
<path d="M36.2251 88.302H33.9609V90.5662H36.2251V88.302Z" fill="#212833"/>
<path d="M38.4888 88.302H36.2246V90.5662H38.4888V88.302Z" fill="#212833"/>
<path d="M40.7544 88.302H38.4902V90.5662H40.7544V88.302Z" fill="#212833"/>
<path d="M45.2817 88.302H43.0176V90.5662H45.2817V88.302Z" fill="#212833"/>
<path d="M49.811 88.302H47.5469V90.5662H49.811V88.302Z" fill="#212833"/>
<path d="M54.3384 88.302H52.0742V90.5662H54.3384V88.302Z" fill="#212833"/>
<path d="M56.602 88.302H54.3379V90.5662H56.602V88.302Z" fill="#212833"/>
<path d="M58.8677 88.302H56.6035V90.5662H58.8677V88.302Z" fill="#212833"/>
<path d="M61.1313 88.302H58.8672V90.5662H61.1313V88.302Z" fill="#212833"/>
<path d="M65.6587 88.302H63.3945V90.5662H65.6587V88.302Z" fill="#212833"/>
<path d="M70.188 88.302H67.9238V90.5662H70.188V88.302Z" fill="#212833"/>
<path d="M72.4517 88.302H70.1875V90.5662H72.4517V88.302Z" fill="#212833"/>
<path d="M74.7153 88.302H72.4512V90.5662H74.7153V88.302Z" fill="#212833"/>
<path d="M76.9809 88.302H74.7168V90.5662H76.9809V88.302Z" fill="#212833"/>
<path d="M86.0376 88.302H83.7734V90.5662H86.0376V88.302Z" fill="#212833"/>
<path d="M95.0942 88.302H92.8301V90.5662H95.0942V88.302Z" fill="#212833"/>
<path d="M104.151 88.302H101.887V90.5662H104.151V88.302Z" fill="#212833"/>
<path d="M9.05517 90.5662H6.79102V92.8303H9.05517V90.5662Z" fill="#212833"/>
<path d="M18.1118 90.5662H15.8477V92.8303H18.1118V90.5662Z" fill="#212833"/>
<path d="M20.3755 90.5662H18.1113V92.8303H20.3755V90.5662Z" fill="#212833"/>
<path d="M22.6411 90.5662H20.377V92.8303H22.6411V90.5662Z" fill="#212833"/>
<path d="M24.9048 90.5662H22.6406V92.8303H24.9048V90.5662Z" fill="#212833"/>
<path d="M27.1684 90.5662H24.9043V92.8303H27.1684V90.5662Z" fill="#212833"/>
<path d="M29.4321 90.5662H27.168V92.8303H29.4321V90.5662Z" fill="#212833"/>
<path d="M31.6977 90.5662H29.4336V92.8303H31.6977V90.5662Z" fill="#212833"/>
<path d="M33.9614 90.5662H31.6973V92.8303H33.9614V90.5662Z" fill="#212833"/>
<path d="M45.2817 90.5662H43.0176V92.8303H45.2817V90.5662Z" fill="#212833"/>
<path d="M47.5454 90.5662H45.2812V92.8303H47.5454V90.5662Z" fill="#212833"/>
<path d="M49.811 90.5662H47.5469V92.8303H49.811V90.5662Z" fill="#212833"/>
<path d="M52.0747 90.5662H49.8105V92.8303H52.0747V90.5662Z" fill="#212833"/>
<path d="M56.602 90.5662H54.3379V92.8303H56.602V90.5662Z" fill="#212833"/>
<path d="M61.1313 90.5662H58.8672V92.8303H61.1313V90.5662Z" fill="#212833"/>
<path d="M72.4517 90.5662H70.1875V92.8303H72.4517V90.5662Z" fill="#212833"/>
<path d="M76.9809 90.5662H74.7168V92.8303H76.9809V90.5662Z" fill="#212833"/>
<path d="M79.2446 90.5662H76.9805V92.8303H79.2446V90.5662Z" fill="#212833"/>
<path d="M81.5083 90.5662H79.2441V92.8303H81.5083V90.5662Z" fill="#212833"/>
<path d="M83.772 90.5662H81.5078V92.8303H83.772V90.5662Z" fill="#212833"/>
<path d="M86.0376 90.5662H83.7734V92.8303H86.0376V90.5662Z" fill="#212833"/>
<path d="M88.3013 90.5662H86.0371V92.8303H88.3013V90.5662Z" fill="#212833"/>
<path d="M92.8286 90.5662H90.5645V92.8303H92.8286V90.5662Z" fill="#212833"/>
<path d="M101.885 90.5662H99.6211V92.8303H101.885V90.5662Z" fill="#212833"/>
<path d="M104.151 90.5662H101.887V92.8303H104.151V90.5662Z" fill="#212833"/>
<path d="M113.208 90.5662H110.943V92.8303H113.208V90.5662Z" fill="#212833"/>
<path d="M115.471 90.5662H113.207V92.8303H115.471V90.5662Z" fill="#212833"/>
<path d="M9.05517 92.8301H6.79102V95.0942H9.05517V92.8301Z" fill="#212833"/>
<path d="M11.3188 92.8301H9.05469V95.0942H11.3188V92.8301Z" fill="#212833"/>
<path d="M13.5845 92.8301H11.3203V95.0942H13.5845V92.8301Z" fill="#212833"/>
<path d="M31.6977 92.8301H29.4336V95.0942H31.6977V92.8301Z" fill="#212833"/>
<path d="M33.9614 92.8303H31.6973V95.0945H33.9614V92.8303Z" fill="#212833"/>
<path d="M38.4888 92.8301H36.2246V95.0942H38.4888V92.8301Z" fill="#212833"/>
<path d="M43.0181 92.8303H40.7539V95.0945H43.0181V92.8303Z" fill="#212833"/>
<path d="M45.2817 92.8301H43.0176V95.0942H45.2817V92.8301Z" fill="#212833"/>
<path d="M49.811 92.8301H47.5469V95.0942H49.811V92.8301Z" fill="#212833"/>
<path d="M52.0747 92.8303H49.8105V95.0945H52.0747V92.8303Z" fill="#212833"/>
<path d="M54.3384 92.8301H52.0742V95.0942H54.3384V92.8301Z" fill="#212833"/>
<path d="M61.1313 92.8303H58.8672V95.0945H61.1313V92.8303Z" fill="#212833"/>
<path d="M63.395 92.8301H61.1309V95.0942H63.395V92.8301Z" fill="#212833"/>
<path d="M65.6587 92.8301H63.3945V95.0942H65.6587V92.8301Z" fill="#212833"/>
<path d="M79.2446 92.8301H76.9805V95.0942H79.2446V92.8301Z" fill="#212833"/>
<path d="M86.0376 92.8301H83.7734V95.0942H86.0376V92.8301Z" fill="#212833"/>
<path d="M90.5649 92.8303H88.3008V95.0945H90.5649V92.8303Z" fill="#212833"/>
<path d="M97.3579 92.8301H95.0938V95.0942H97.3579V92.8301Z" fill="#212833"/>
<path d="M99.6216 92.8303H97.3574V95.0945H99.6216V92.8303Z" fill="#212833"/>
<path d="M106.415 92.8301H104.15V95.0942H106.415V92.8301Z" fill="#212833"/>
<path d="M115.471 92.8301H113.207V95.0942H115.471V92.8301Z" fill="#212833"/>
<path d="M6.79149 95.0942H4.52734V97.3584H6.79149V95.0942Z" fill="#212833"/>
<path d="M9.05517 95.0942H6.79102V97.3584H9.05517V95.0942Z" fill="#212833"/>
<path d="M11.3188 95.0942H9.05469V97.3584H11.3188V95.0942Z" fill="#212833"/>
<path d="M20.3755 95.0942H18.1113V97.3584H20.3755V95.0942Z" fill="#212833"/>
<path d="M27.1684 95.0942H24.9043V97.3584H27.1684V95.0942Z" fill="#212833"/>
<path d="M33.9614 95.0942H31.6973V97.3584H33.9614V95.0942Z" fill="#212833"/>
<path d="M36.2251 95.0942H33.9609V97.3584H36.2251V95.0942Z" fill="#212833"/>
<path d="M52.0747 95.0942H49.8105V97.3584H52.0747V95.0942Z" fill="#212833"/>
<path d="M54.3384 95.0942H52.0742V97.3584H54.3384V95.0942Z" fill="#212833"/>
<path d="M56.602 95.0942H54.3379V97.3584H56.602V95.0942Z" fill="#212833"/>
<path d="M58.8677 95.0942H56.6035V97.3584H58.8677V95.0942Z" fill="#212833"/>
<path d="M61.1313 95.0942H58.8672V97.3584H61.1313V95.0942Z" fill="#212833"/>
<path d="M63.395 95.0942H61.1309V97.3584H63.395V95.0942Z" fill="#212833"/>
<path d="M65.6587 95.0942H63.3945V97.3584H65.6587V95.0942Z" fill="#212833"/>
<path d="M72.4517 95.0942H70.1875V97.3584H72.4517V95.0942Z" fill="#212833"/>
<path d="M76.9809 95.0942H74.7168V97.3584H76.9809V95.0942Z" fill="#212833"/>
<path d="M81.5083 95.0942H79.2441V97.3584H81.5083V95.0942Z" fill="#212833"/>
<path d="M88.3013 95.0942H86.0371V97.3584H88.3013V95.0942Z" fill="#212833"/>
<path d="M90.5649 95.0942H88.3008V97.3584H90.5649V95.0942Z" fill="#212833"/>
<path d="M95.0942 95.0942H92.8301V97.3584H95.0942V95.0942Z" fill="#212833"/>
<path d="M97.3579 95.0942H95.0938V97.3584H97.3579V95.0942Z" fill="#212833"/>
<path d="M99.6216 95.0942H97.3574V97.3584H99.6216V95.0942Z" fill="#212833"/>
<path d="M101.885 95.0942H99.6211V97.3584H101.885V95.0942Z" fill="#212833"/>
<path d="M104.151 95.0942H101.887V97.3584H104.151V95.0942Z" fill="#212833"/>
<path d="M106.415 95.0942H104.15V97.3584H106.415V95.0942Z" fill="#212833"/>
<path d="M108.678 95.0942H106.414V97.3584H108.678V95.0942Z" fill="#212833"/>
<path d="M113.208 95.0942H110.943V97.3584H113.208V95.0942Z" fill="#212833"/>
<path d="M115.471 95.0942H113.207V97.3584H115.471V95.0942Z" fill="#212833"/>
<path d="M24.9048 97.3584H22.6406V99.6225H24.9048V97.3584Z" fill="#212833"/>
<path d="M27.1684 97.3584H24.9043V99.6225H27.1684V97.3584Z" fill="#212833"/>
<path d="M29.4321 97.3584H27.168V99.6225H29.4321V97.3584Z" fill="#212833"/>
<path d="M33.9614 97.3584H31.6973V99.6225H33.9614V97.3584Z" fill="#212833"/>
<path d="M36.2251 97.3584H33.9609V99.6225H36.2251V97.3584Z" fill="#212833"/>
<path d="M40.7544 97.3584H38.4902V99.6225H40.7544V97.3584Z" fill="#212833"/>
<path d="M43.0181 97.3584H40.7539V99.6225H43.0181V97.3584Z" fill="#212833"/>
<path d="M45.2817 97.3584H43.0176V99.6225H45.2817V97.3584Z" fill="#212833"/>
<path d="M49.811 97.3584H47.5469V99.6225H49.811V97.3584Z" fill="#212833"/>
<path d="M54.3384 97.3584H52.0742V99.6225H54.3384V97.3584Z" fill="#212833"/>
<path d="M56.602 97.3584H54.3379V99.6225H56.602V97.3584Z" fill="#212833"/>
<path d="M65.6587 97.3584H63.3945V99.6225H65.6587V97.3584Z" fill="#212833"/>
<path d="M67.9243 97.3584H65.6602V99.6225H67.9243V97.3584Z" fill="#212833"/>
<path d="M74.7153 97.3584H72.4512V99.6225H74.7153V97.3584Z" fill="#212833"/>
<path d="M79.2446 97.3584H76.9805V99.6225H79.2446V97.3584Z" fill="#212833"/>
<path d="M88.3013 97.3584H86.0371V99.6225H88.3013V97.3584Z" fill="#212833"/>
<path d="M90.5649 97.3584H88.3008V99.6225H90.5649V97.3584Z" fill="#212833"/>
<path d="M97.3579 97.3584H95.0938V99.6225H97.3579V97.3584Z" fill="#212833"/>
<path d="M106.415 97.3584H104.15V99.6225H106.415V97.3584Z" fill="#212833"/>
<path d="M27.1684 99.6226H24.9043V101.887H27.1684V99.6226Z" fill="#212833"/>
<path d="M29.4321 99.6226H27.168V101.887H29.4321V99.6226Z" fill="#212833"/>
<path d="M31.6977 99.6226H29.4336V101.887H31.6977V99.6226Z" fill="#212833"/>
<path d="M36.2251 99.6226H33.9609V101.887H36.2251V99.6226Z" fill="#212833"/>
<path d="M38.4888 99.6226H36.2246V101.887H38.4888V99.6226Z" fill="#212833"/>
<path d="M40.7544 99.6226H38.4902V101.887H40.7544V99.6226Z" fill="#212833"/>
<path d="M47.5454 99.6226H45.2812V101.887H47.5454V99.6226Z" fill="#212833"/>
<path d="M49.811 99.6226H47.5469V101.887H49.811V99.6226Z" fill="#212833"/>
<path d="M52.0747 99.6226H49.8105V101.887H52.0747V99.6226Z" fill="#212833"/>
<path d="M56.602 99.6226H54.3379V101.887H56.602V99.6226Z" fill="#212833"/>
<path d="M61.1313 99.6226H58.8672V101.887H61.1313V99.6226Z" fill="#212833"/>
<path d="M65.6587 99.6226H63.3945V101.887H65.6587V99.6226Z" fill="#212833"/>
<path d="M72.4517 99.6226H70.1875V101.887H72.4517V99.6226Z" fill="#212833"/>
<path d="M79.2446 99.6226H76.9805V101.887H79.2446V99.6226Z" fill="#212833"/>
<path d="M81.5083 99.6226H79.2441V101.887H81.5083V99.6226Z" fill="#212833"/>
<path d="M83.772 99.6226H81.5078V101.887H83.772V99.6226Z" fill="#212833"/>
<path d="M86.0376 99.6226H83.7734V101.887H86.0376V99.6226Z" fill="#212833"/>
<path d="M97.3579 99.6226H95.0938V101.887H97.3579V99.6226Z" fill="#212833"/>
<path d="M101.885 99.6226H99.6211V101.887H101.885V99.6226Z" fill="#212833"/>
<path d="M106.415 99.6226H104.15V101.887H106.415V99.6226Z" fill="#212833"/>
<path d="M113.208 99.6226H110.943V101.887H113.208V99.6226Z" fill="#212833"/>
<path d="M115.471 99.6226H113.207V101.887H115.471V99.6226Z" fill="#212833"/>
<path d="M24.9048 101.887H22.6406V104.151H24.9048V101.887Z" fill="#212833"/>
<path d="M27.1684 101.887H24.9043V104.151H27.1684V101.887Z" fill="#212833"/>
<path d="M29.4321 101.887H27.168V104.151H29.4321V101.887Z" fill="#212833"/>
<path d="M31.6977 101.887H29.4336V104.151H31.6977V101.887Z" fill="#212833"/>
<path d="M36.2251 101.887H33.9609V104.151H36.2251V101.887Z" fill="#212833"/>
<path d="M38.4888 101.887H36.2246V104.151H38.4888V101.887Z" fill="#212833"/>
<path d="M40.7544 101.887H38.4902V104.151H40.7544V101.887Z" fill="#212833"/>
<path d="M45.2817 101.887H43.0176V104.151H45.2817V101.887Z" fill="#212833"/>
<path d="M47.5454 101.887H45.2812V104.151H47.5454V101.887Z" fill="#212833"/>
<path d="M49.811 101.887H47.5469V104.151H49.811V101.887Z" fill="#212833"/>
<path d="M52.0747 101.887H49.8105V104.151H52.0747V101.887Z" fill="#212833"/>
<path d="M54.3384 101.887H52.0742V104.151H54.3384V101.887Z" fill="#212833"/>
<path d="M56.602 101.887H54.3379V104.151H56.602V101.887Z" fill="#212833"/>
<path d="M65.6587 101.887H63.3945V104.151H65.6587V101.887Z" fill="#212833"/>
<path d="M70.188 101.887H67.9238V104.151H70.188V101.887Z" fill="#212833"/>
<path d="M74.7153 101.887H72.4512V104.151H74.7153V101.887Z" fill="#212833"/>
<path d="M79.2446 101.887H76.9805V104.151H79.2446V101.887Z" fill="#212833"/>
<path d="M90.5649 101.887H88.3008V104.151H90.5649V101.887Z" fill="#212833"/>
<path d="M92.8286 101.887H90.5645V104.151H92.8286V101.887Z" fill="#212833"/>
<path d="M97.3579 101.887H95.0938V104.151H97.3579V101.887Z" fill="#212833"/>
<path d="M106.415 101.887H104.15V104.151H106.415V101.887Z" fill="#212833"/>
<path d="M113.208 101.887H110.943V104.151H113.208V101.887Z" fill="#212833"/>
<path d="M24.9048 104.151H22.6406V106.415H24.9048V104.151Z" fill="#212833"/>
<path d="M33.9614 104.151H31.6973V106.415H33.9614V104.151Z" fill="#212833"/>
<path d="M36.2251 104.151H33.9609V106.415H36.2251V104.151Z" fill="#212833"/>
<path d="M38.4888 104.151H36.2246V106.415H38.4888V104.151Z" fill="#212833"/>
<path d="M40.7544 104.151H38.4902V106.415H40.7544V104.151Z" fill="#212833"/>
<path d="M49.811 104.151H47.5469V106.415H49.811V104.151Z" fill="#212833"/>
<path d="M54.3384 104.151H52.0742V106.415H54.3384V104.151Z" fill="#212833"/>
<path d="M56.602 104.151H54.3379V106.415H56.602V104.151Z" fill="#212833"/>
<path d="M58.8677 104.151H56.6035V106.415H58.8677V104.151Z" fill="#212833"/>
<path d="M61.1313 104.151H58.8672V106.415H61.1313V104.151Z" fill="#212833"/>
<path d="M63.395 104.151H61.1309V106.415H63.395V104.151Z" fill="#212833"/>
<path d="M65.6587 104.151H63.3945V106.415H65.6587V104.151Z" fill="#212833"/>
<path d="M72.4517 104.151H70.1875V106.415H72.4517V104.151Z" fill="#212833"/>
<path d="M81.5083 104.151H79.2441V106.415H81.5083V104.151Z" fill="#212833"/>
<path d="M86.0376 104.151H83.7734V106.415H86.0376V104.151Z" fill="#212833"/>
<path d="M88.3013 104.151H86.0371V106.415H88.3013V104.151Z" fill="#212833"/>
<path d="M92.8286 104.151H90.5645V106.415H92.8286V104.151Z" fill="#212833"/>
<path d="M97.3579 104.151H95.0938V106.415H97.3579V104.151Z" fill="#212833"/>
<path d="M99.6216 104.151H97.3574V106.415H99.6216V104.151Z" fill="#212833"/>
<path d="M101.885 104.151H99.6211V106.415H101.885V104.151Z" fill="#212833"/>
<path d="M104.151 104.151H101.887V106.415H104.151V104.151Z" fill="#212833"/>
<path d="M106.415 104.151H104.15V106.415H106.415V104.151Z" fill="#212833"/>
<path d="M110.942 104.151H108.678V106.415H110.942V104.151Z" fill="#212833"/>
<path d="M113.208 104.151H110.943V106.415H113.208V104.151Z" fill="#212833"/>
<path d="M24.9048 106.415H22.6406V108.679H24.9048V106.415Z" fill="#212833"/>
<path d="M29.4321 106.415H27.168V108.679H29.4321V106.415Z" fill="#212833"/>
<path d="M31.6977 106.415H29.4336V108.679H31.6977V106.415Z" fill="#212833"/>
<path d="M36.2251 106.415H33.9609V108.679H36.2251V106.415Z" fill="#212833"/>
<path d="M40.7544 106.415H38.4902V108.679H40.7544V106.415Z" fill="#212833"/>
<path d="M43.0181 106.415H40.7539V108.679H43.0181V106.415Z" fill="#212833"/>
<path d="M47.5454 106.415H45.2812V108.679H47.5454V106.415Z" fill="#212833"/>
<path d="M54.3384 106.415H52.0742V108.679H54.3384V106.415Z" fill="#212833"/>
<path d="M56.602 106.415H54.3379V108.679H56.602V106.415Z" fill="#212833"/>
<path d="M58.8677 106.415H56.6035V108.679H58.8677V106.415Z" fill="#212833"/>
<path d="M63.395 106.415H61.1309V108.679H63.395V106.415Z" fill="#212833"/>
<path d="M65.6587 106.415H63.3945V108.679H65.6587V106.415Z" fill="#212833"/>
<path d="M67.9243 106.415H65.6602V108.679H67.9243V106.415Z" fill="#212833"/>
<path d="M74.7153 106.415H72.4512V108.679H74.7153V106.415Z" fill="#212833"/>
<path d="M76.9809 106.415H74.7168V108.679H76.9809V106.415Z" fill="#212833"/>
<path d="M81.5083 106.415H79.2441V108.679H81.5083V106.415Z" fill="#212833"/>
<path d="M90.5649 106.415H88.3008V108.679H90.5649V106.415Z" fill="#212833"/>
<path d="M97.3579 106.415H95.0938V108.679H97.3579V106.415Z" fill="#212833"/>
<path d="M101.885 106.415H99.6211V108.679H101.885V106.415Z" fill="#212833"/>
<path d="M104.151 106.415H101.887V108.679H104.151V106.415Z" fill="#212833"/>
<path d="M106.415 106.415H104.15V108.679H106.415V106.415Z" fill="#212833"/>
<path d="M108.678 106.415H106.414V108.679H108.678V106.415Z" fill="#212833"/>
<path d="M115.471 106.415H113.207V108.679H115.471V106.415Z" fill="#212833"/>
<path d="M24.9048 108.679H22.6406V110.943H24.9048V108.679Z" fill="#212833"/>
<path d="M27.1684 108.679H24.9043V110.943H27.1684V108.679Z" fill="#212833"/>
<path d="M38.4888 108.679H36.2246V110.943H38.4888V108.679Z" fill="#212833"/>
<path d="M43.0181 108.679H40.7539V110.943H43.0181V108.679Z" fill="#212833"/>
<path d="M49.811 108.679H47.5469V110.943H49.811V108.679Z" fill="#212833"/>
<path d="M54.3384 108.679H52.0742V110.943H54.3384V108.679Z" fill="#212833"/>
<path d="M58.8677 108.679H56.6035V110.943H58.8677V108.679Z" fill="#212833"/>
<path d="M61.1313 108.679H58.8672V110.943H61.1313V108.679Z" fill="#212833"/>
<path d="M65.6587 108.679H63.3945V110.943H65.6587V108.679Z" fill="#212833"/>
<path d="M67.9243 108.679H65.6602V110.943H67.9243V108.679Z" fill="#212833"/>
<path d="M72.4517 108.679H70.1875V110.943H72.4517V108.679Z" fill="#212833"/>
<path d="M76.9809 108.679H74.7168V110.943H76.9809V108.679Z" fill="#212833"/>
<path d="M83.772 108.679H81.5078V110.943H83.772V108.679Z" fill="#212833"/>
<path d="M86.0376 108.679H83.7734V110.943H86.0376V108.679Z" fill="#212833"/>
<path d="M92.8286 108.679H90.5645V110.943H92.8286V108.679Z" fill="#212833"/>
<path d="M95.0942 108.679H92.8301V110.943H95.0942V108.679Z" fill="#212833"/>
<path d="M99.6216 108.679H97.3574V110.943H99.6216V108.679Z" fill="#212833"/>
<path d="M104.151 108.679H101.887V110.943H104.151V108.679Z" fill="#212833"/>
<path d="M108.678 108.679H106.414V110.943H108.678V108.679Z" fill="#212833"/>
<path d="M110.942 108.679H108.678V110.943H110.942V108.679Z" fill="#212833"/>
<path d="M29.4321 110.943H27.168V113.208H29.4321V110.943Z" fill="#212833"/>
<path d="M33.9614 110.943H31.6973V113.208H33.9614V110.943Z" fill="#212833"/>
<path d="M38.4888 110.943H36.2246V113.208H38.4888V110.943Z" fill="#212833"/>
<path d="M40.7544 110.943H38.4902V113.208H40.7544V110.943Z" fill="#212833"/>
<path d="M45.2817 110.943H43.0176V113.208H45.2817V110.943Z" fill="#212833"/>
<path d="M47.5454 110.943H45.2812V113.208H47.5454V110.943Z" fill="#212833"/>
<path d="M54.3384 110.943H52.0742V113.208H54.3384V110.943Z" fill="#212833"/>
<path d="M63.395 110.943H61.1309V113.208H63.395V110.943Z" fill="#212833"/>
<path d="M65.6587 110.943H63.3945V113.208H65.6587V110.943Z" fill="#212833"/>
<path d="M74.7153 110.943H72.4512V113.208H74.7153V110.943Z" fill="#212833"/>
<path d="M76.9809 110.943H74.7168V113.208H76.9809V110.943Z" fill="#212833"/>
<path d="M79.2446 110.943H76.9805V113.208H79.2446V110.943Z" fill="#212833"/>
<path d="M81.5083 110.943H79.2441V113.208H81.5083V110.943Z" fill="#212833"/>
<path d="M90.5649 110.943H88.3008V113.208H90.5649V110.943Z" fill="#212833"/>
<path d="M95.0942 110.943H92.8301V113.208H95.0942V110.943Z" fill="#212833"/>
<path d="M97.3579 110.943H95.0938V113.208H97.3579V110.943Z" fill="#212833"/>
<path d="M99.6216 110.943H97.3574V113.208H99.6216V110.943Z" fill="#212833"/>
<path d="M101.885 110.943H99.6211V113.208H101.885V110.943Z" fill="#212833"/>
<path d="M115.471 110.943H113.207V113.208H115.471V110.943Z" fill="#212833"/>
<path d="M24.9048 113.208H22.6406V115.472H24.9048V113.208Z" fill="#212833"/>
<path d="M27.1684 113.208H24.9043V115.472H27.1684V113.208Z" fill="#212833"/>
<path d="M33.9614 113.208H31.6973V115.472H33.9614V113.208Z" fill="#212833"/>
<path d="M36.2251 113.208H33.9609V115.472H36.2251V113.208Z" fill="#212833"/>
<path d="M38.4888 113.208H36.2246V115.472H38.4888V113.208Z" fill="#212833"/>
<path d="M45.2817 113.208H43.0176V115.472H45.2817V113.208Z" fill="#212833"/>
<path d="M47.5454 113.208H45.2812V115.472H47.5454V113.208Z" fill="#212833"/>
<path d="M49.811 113.208H47.5469V115.472H49.811V113.208Z" fill="#212833"/>
<path d="M52.0747 113.208H49.8105V115.472H52.0747V113.208Z" fill="#212833"/>
<path d="M54.3384 113.208H52.0742V115.472H54.3384V113.208Z" fill="#212833"/>
<path d="M58.8677 113.208H56.6035V115.472H58.8677V113.208Z" fill="#212833"/>
<path d="M67.9243 113.208H65.6602V115.472H67.9243V113.208Z" fill="#212833"/>
<path d="M72.4517 113.208H70.1875V115.472H72.4517V113.208Z" fill="#212833"/>
<path d="M74.7153 113.208H72.4512V115.472H74.7153V113.208Z" fill="#212833"/>
<path d="M76.9809 113.208H74.7168V115.472H76.9809V113.208Z" fill="#212833"/>
<path d="M81.5083 113.208H79.2441V115.472H81.5083V113.208Z" fill="#212833"/>
<path d="M83.772 113.208H81.5078V115.472H83.772V113.208Z" fill="#212833"/>
<path d="M88.3013 113.208H86.0371V115.472H88.3013V113.208Z" fill="#212833"/>
<path d="M90.5649 113.208H88.3008V115.472H90.5649V113.208Z" fill="#212833"/>
<path d="M110.942 113.208H108.678V115.472H110.942V113.208Z" fill="#212833"/>
<path d="M113.208 113.208H110.943V115.472H113.208V113.208Z" fill="#212833"/>
<path d="M115.471 113.208H113.207V115.472H115.471V113.208Z" fill="#212833"/>
<path d="M14.9654 4.52954H9.93837C7.48842 4.52954 5.41283 6.14821 4.74923 8.36058C4.6806 8.58944 4.62703 8.82464 4.58979 9.06507C4.54874 9.33038 4.52734 9.60203 4.52734 9.8786V15.0249C4.52734 17.9759 6.95542 20.3756 9.93837 20.3756L12.4519 20.3761L14.9654 20.3754C17.9482 20.3754 20.3764 17.9757 20.3764 15.0248V9.8786C20.3764 6.92909 17.9483 4.52954 14.9654 4.52954ZM17.999 15.0249C17.999 16.6644 16.6382 17.9982 14.9647 17.9982L12.4519 17.9987L9.939 17.9981C8.2655 17.9981 6.9047 16.6642 6.9047 15.0249V9.8786C6.9047 9.36651 7.03752 8.88439 7.27129 8.46312C7.49635 8.05786 7.81476 7.70934 8.19814 7.44545C8.69105 7.10612 9.29125 6.9069 9.93821 6.9069H14.9654C16.6382 6.9069 17.999 8.23996 17.999 9.8786V15.0249Z" fill="#212833"/>
<path d="M110.059 4.52954H105.032C102.582 4.52954 100.507 6.14821 99.843 8.36058C99.7744 8.58944 99.7208 8.82464 99.6835 9.06507C99.6425 9.33038 99.6211 9.60203 99.6211 9.8786V15.0249C99.6211 17.9759 102.049 20.3756 105.032 20.3756L107.546 20.3761L110.059 20.3754C113.042 20.3754 115.47 17.9757 115.47 15.0248V9.8786C115.47 6.92909 113.042 4.52954 110.059 4.52954ZM113.093 15.0249C113.093 16.6644 111.732 17.9982 110.058 17.9982L107.546 17.9987L105.033 17.9981C103.359 17.9981 101.998 16.6642 101.998 15.0249V9.8786C101.998 9.36651 102.131 8.88439 102.365 8.46312C102.59 8.05786 102.909 7.70934 103.292 7.44545C103.785 7.10612 104.385 6.9069 105.032 6.9069H110.059C111.732 6.9069 113.093 8.23996 113.093 9.8786V15.0249Z" fill="#212833"/>
<path d="M14.9654 99.624H9.93837C7.48842 99.624 5.41283 101.243 4.74923 103.455C4.6806 103.684 4.62703 103.919 4.58979 104.16C4.54874 104.425 4.52734 104.697 4.52734 104.973V110.119C4.52734 113.07 6.95542 115.47 9.93837 115.47L12.4519 115.471L14.9654 115.47C17.9482 115.47 20.3764 113.07 20.3764 110.119V104.973C20.3764 102.024 17.9483 99.624 14.9654 99.624ZM17.999 110.119C17.999 111.759 16.6382 113.093 14.9647 113.093L12.4519 113.093L9.939 113.093C8.2655 113.093 6.9047 111.759 6.9047 110.119V104.973C6.9047 104.461 7.03752 103.979 7.27129 103.558C7.49635 103.152 7.81476 102.804 8.19814 102.54C8.69105 102.201 9.29125 102.001 9.93821 102.001H14.9654C16.6382 102.001 17.999 103.334 17.999 104.973V110.119Z" fill="#212833"/>
<path d="M12.3843 15.7159C14.2232 15.7159 15.714 14.2252 15.714 12.3863C15.714 10.5474 14.2232 9.05664 12.3843 9.05664C10.5454 9.05664 9.05469 10.5474 9.05469 12.3863C9.05469 14.2252 10.5454 15.7159 12.3843 15.7159Z" fill="#212833"/>
<path d="M107.48 15.7159C109.319 15.7159 110.81 14.2252 110.81 12.3863C110.81 10.5474 109.319 9.05664 107.48 9.05664C105.641 9.05664 104.15 10.5474 104.15 12.3863C104.15 14.2252 105.641 15.7159 107.48 15.7159Z" fill="#212833"/>
<path d="M12.3843 110.81C14.2232 110.81 15.714 109.319 15.714 107.481C15.714 105.642 14.2232 104.151 12.3843 104.151C10.5454 104.151 9.05469 105.642 9.05469 107.481C9.05469 109.319 10.5454 110.81 12.3843 110.81Z" fill="#212833"/>
</svg>
