<svg width="92" height="92" viewBox="0 0 92 92" fill="none" xmlns="http://www.w3.org/2000/svg">
<path d="M26.0386 3.47168H24.3027V5.20753H26.0386V3.47168Z" fill="white"/>
<path d="M45.1323 3.47168H43.3965V5.20753H45.1323V3.47168Z" fill="white"/>
<path d="M46.8687 3.47168H45.1328V5.20753H46.8687V3.47168Z" fill="white"/>
<path d="M48.605 3.47168H46.8691V5.20753H48.605V3.47168Z" fill="white"/>
<path d="M50.3413 3.47168H48.6055V5.20753H50.3413V3.47168Z" fill="white"/>
<path d="M52.0757 3.47168H50.3398V5.20753H52.0757V3.47168Z" fill="white"/>
<path d="M53.812 3.47168H52.0762V5.20753H53.812V3.47168Z" fill="white"/>
<path d="M55.5483 3.47168H53.8125V5.20753H55.5483V3.47168Z" fill="white"/>
<path d="M60.7554 3.47168H59.0195V5.20753H60.7554V3.47168Z" fill="white"/>
<path d="M62.4917 3.47168H60.7559V5.20753H62.4917V3.47168Z" fill="white"/>
<path d="M67.6987 3.47168H65.9629V5.20753H67.6987V3.47168Z" fill="white"/>
<path d="M69.4351 3.47168H67.6992V5.20753H69.4351V3.47168Z" fill="white"/>
<path d="M74.6421 3.47168H72.9062V5.20753H74.6421V3.47168Z" fill="white"/>
<path d="M22.5679 5.20752H20.832V6.94337H22.5679V5.20752Z" fill="white"/>
<path d="M24.3023 5.20752H22.5664V6.94337H24.3023V5.20752Z" fill="white"/>
<path d="M26.0386 5.20752H24.3027V6.94337H26.0386V5.20752Z" fill="white"/>
<path d="M27.7749 5.20752H26.0391V6.94337H27.7749V5.20752Z" fill="white"/>
<path d="M29.5112 5.20752H27.7754V6.94337H29.5112V5.20752Z" fill="white"/>
<path d="M31.2456 5.20752H29.5098V6.94337H31.2456V5.20752Z" fill="white"/>
<path d="M34.7183 5.20752H32.9824V6.94337H34.7183V5.20752Z" fill="white"/>
<path d="M36.4546 5.20752H34.7188V6.94337H36.4546V5.20752Z" fill="white"/>
<path d="M39.9253 5.20752H38.1895V6.94337H39.9253V5.20752Z" fill="white"/>
<path d="M43.398 5.20752H41.6621V6.94337H43.398V5.20752Z" fill="white"/>
<path d="M46.8687 5.20752H45.1328V6.94337H46.8687V5.20752Z" fill="white"/>
<path d="M53.812 5.20752H52.0762V6.94337H53.812V5.20752Z" fill="white"/>
<path d="M57.2847 5.20752H55.5488V6.94337H57.2847V5.20752Z" fill="white"/>
<path d="M59.0191 5.20752H57.2832V6.94337H59.0191V5.20752Z" fill="white"/>
<path d="M60.7554 5.20752H59.0195V6.94337H60.7554V5.20752Z" fill="white"/>
<path d="M64.228 5.20752H62.4922V6.94337H64.228V5.20752Z" fill="white"/>
<path d="M65.9624 5.20752H64.2266V6.94337H65.9624V5.20752Z" fill="white"/>
<path d="M67.6987 5.20752H65.9629V6.94337H67.6987V5.20752Z" fill="white"/>
<path d="M69.4351 5.20752H67.6992V6.94337H69.4351V5.20752Z" fill="white"/>
<path d="M71.1714 5.20752H69.4355V6.94337H71.1714V5.20752Z" fill="white"/>
<path d="M72.9058 5.20752H71.1699V6.94337H72.9058V5.20752Z" fill="white"/>
<path d="M74.6421 5.20752H72.9062V6.94337H74.6421V5.20752Z" fill="white"/>
<path d="M19.0952 6.94336H17.3594V8.67921H19.0952V6.94336Z" fill="white"/>
<path d="M22.5679 6.94336H20.832V8.67921H22.5679V6.94336Z" fill="white"/>
<path d="M26.0386 6.94336H24.3027V8.67921H26.0386V6.94336Z" fill="white"/>
<path d="M29.5112 6.94336H27.7754V8.67921H29.5112V6.94336Z" fill="white"/>
<path d="M31.2456 6.94336H29.5098V8.67921H31.2456V6.94336Z" fill="white"/>
<path d="M39.9253 6.94336H38.1895V8.67921H39.9253V6.94336Z" fill="white"/>
<path d="M46.8687 6.94336H45.1328V8.67921H46.8687V6.94336Z" fill="white"/>
<path d="M53.812 6.94336H52.0762V8.67921H53.812V6.94336Z" fill="white"/>
<path d="M55.5483 6.94336H53.8125V8.67921H55.5483V6.94336Z" fill="white"/>
<path d="M59.0191 6.94336H57.2832V8.67921H59.0191V6.94336Z" fill="white"/>
<path d="M60.7554 6.94336H59.0195V8.67921H60.7554V6.94336Z" fill="white"/>
<path d="M64.228 6.94336H62.4922V8.67921H64.228V6.94336Z" fill="white"/>
<path d="M65.9624 6.94336H64.2266V8.67921H65.9624V6.94336Z" fill="white"/>
<path d="M72.9058 6.94336H71.1699V8.67921H72.9058V6.94336Z" fill="white"/>
<path d="M74.6421 6.94336H72.9062V8.67921H74.6421V6.94336Z" fill="white"/>
<path d="M19.0952 8.6792H17.3594V10.415H19.0952V8.6792Z" fill="white"/>
<path d="M22.5679 8.6792H20.832V10.415H22.5679V8.6792Z" fill="white"/>
<path d="M24.3023 8.6792H22.5664V10.415H24.3023V8.6792Z" fill="white"/>
<path d="M26.0386 8.6792H24.3027V10.415H26.0386V8.6792Z" fill="white"/>
<path d="M27.7749 8.6792H26.0391V10.415H27.7749V8.6792Z" fill="white"/>
<path d="M29.5112 8.6792H27.7754V10.415H29.5112V8.6792Z" fill="white"/>
<path d="M31.2456 8.6792H29.5098V10.415H31.2456V8.6792Z" fill="white"/>
<path d="M36.4546 8.6792H34.7188V10.415H36.4546V8.6792Z" fill="white"/>
<path d="M41.6616 8.6792H39.9258V10.415H41.6616V8.6792Z" fill="white"/>
<path d="M45.1323 8.6792H43.3965V10.415H45.1323V8.6792Z" fill="white"/>
<path d="M48.605 8.6792H46.8691V10.415H48.605V8.6792Z" fill="white"/>
<path d="M50.3413 8.6792H48.6055V10.415H50.3413V8.6792Z" fill="white"/>
<path d="M52.0757 8.6792H50.3398V10.415H52.0757V8.6792Z" fill="white"/>
<path d="M55.5483 8.6792H53.8125V10.415H55.5483V8.6792Z" fill="white"/>
<path d="M64.228 8.6792H62.4922V10.415H64.228V8.6792Z" fill="white"/>
<path d="M65.9624 8.6792H64.2266V10.415H65.9624V8.6792Z" fill="white"/>
<path d="M67.6987 8.6792H65.9629V10.415H67.6987V8.6792Z" fill="white"/>
<path d="M69.4351 8.6792H67.6992V10.415H69.4351V8.6792Z" fill="white"/>
<path d="M72.9058 8.6792H71.1699V10.415H72.9058V8.6792Z" fill="white"/>
<path d="M19.0952 10.415H17.3594V12.1509H19.0952V10.415Z" fill="white"/>
<path d="M24.3023 10.415H22.5664V12.1509H24.3023V10.415Z" fill="white"/>
<path d="M27.7749 10.415H26.0391V12.1509H27.7749V10.415Z" fill="white"/>
<path d="M31.2456 10.415H29.5098V12.1509H31.2456V10.415Z" fill="white"/>
<path d="M36.4546 10.415H34.7188V12.1509H36.4546V10.415Z" fill="white"/>
<path d="M38.189 10.415H36.4531V12.1509H38.189V10.415Z" fill="white"/>
<path d="M39.9253 10.415H38.1895V12.1509H39.9253V10.415Z" fill="white"/>
<path d="M41.6616 10.415H39.9258V12.1509H41.6616V10.415Z" fill="white"/>
<path d="M43.398 10.415H41.6621V12.1509H43.398V10.415Z" fill="white"/>
<path d="M45.1323 10.415H43.3965V12.1509H45.1323V10.415Z" fill="white"/>
<path d="M46.8687 10.415H45.1328V12.1509H46.8687V10.415Z" fill="white"/>
<path d="M48.605 10.415H46.8691V12.1509H48.605V10.415Z" fill="white"/>
<path d="M50.3413 10.415H48.6055V12.1509H50.3413V10.415Z" fill="white"/>
<path d="M52.0757 10.415H50.3398V12.1509H52.0757V10.415Z" fill="white"/>
<path d="M53.812 10.415H52.0762V12.1509H53.812V10.415Z" fill="white"/>
<path d="M55.5483 10.415H53.8125V12.1509H55.5483V10.415Z" fill="white"/>
<path d="M57.2847 10.415H55.5488V12.1509H57.2847V10.415Z" fill="white"/>
<path d="M65.9624 10.415H64.2266V12.1509H65.9624V10.415Z" fill="white"/>
<path d="M69.4351 10.415H67.6992V12.1509H69.4351V10.415Z" fill="white"/>
<path d="M19.0952 12.1509H17.3594V13.8867H19.0952V12.1509Z" fill="white"/>
<path d="M27.7749 12.1509H26.0391V13.8867H27.7749V12.1509Z" fill="white"/>
<path d="M32.9819 12.1509H31.2461V13.8867H32.9819V12.1509Z" fill="white"/>
<path d="M34.7183 12.1509H32.9824V13.8867H34.7183V12.1509Z" fill="white"/>
<path d="M36.4546 12.1509H34.7188V13.8867H36.4546V12.1509Z" fill="white"/>
<path d="M39.9253 12.1509H38.1895V13.8867H39.9253V12.1509Z" fill="white"/>
<path d="M43.398 12.1509H41.6621V13.8867H43.398V12.1509Z" fill="white"/>
<path d="M50.3413 12.1509H48.6055V13.8867H50.3413V12.1509Z" fill="white"/>
<path d="M52.0757 12.1509H50.3398V13.8867H52.0757V12.1509Z" fill="white"/>
<path d="M62.4917 12.1509H60.7559V13.8867H62.4917V12.1509Z" fill="white"/>
<path d="M64.228 12.1509H62.4922V13.8867H64.228V12.1509Z" fill="white"/>
<path d="M65.9624 12.1509H64.2266V13.8867H65.9624V12.1509Z" fill="white"/>
<path d="M71.1714 12.1509H69.4355V13.8867H71.1714V12.1509Z" fill="white"/>
<path d="M19.0952 13.8867H17.3594V15.6226H19.0952V13.8867Z" fill="white"/>
<path d="M22.5679 13.8867H20.832V15.6226H22.5679V13.8867Z" fill="white"/>
<path d="M26.0386 13.8867H24.3027V15.6226H26.0386V13.8867Z" fill="white"/>
<path d="M29.5112 13.8867H27.7754V15.6226H29.5112V13.8867Z" fill="white"/>
<path d="M32.9819 13.8867H31.2461V15.6226H32.9819V13.8867Z" fill="white"/>
<path d="M36.4546 13.8867H34.7188V15.6226H36.4546V13.8867Z" fill="white"/>
<path d="M39.9253 13.8867H38.1895V15.6226H39.9253V13.8867Z" fill="white"/>
<path d="M43.398 13.8867H41.6621V15.6226H43.398V13.8867Z" fill="white"/>
<path d="M46.8687 13.8867H45.1328V15.6226H46.8687V13.8867Z" fill="white"/>
<path d="M50.3413 13.8867H48.6055V15.6226H50.3413V13.8867Z" fill="white"/>
<path d="M53.812 13.8867H52.0762V15.6226H53.812V13.8867Z" fill="white"/>
<path d="M57.2847 13.8867H55.5488V15.6226H57.2847V13.8867Z" fill="white"/>
<path d="M60.7554 13.8867H59.0195V15.6226H60.7554V13.8867Z" fill="white"/>
<path d="M64.228 13.8867H62.4922V15.6226H64.228V13.8867Z" fill="white"/>
<path d="M67.6987 13.8867H65.9629V15.6226H67.6987V13.8867Z" fill="white"/>
<path d="M71.1714 13.8867H69.4355V15.6226H71.1714V13.8867Z" fill="white"/>
<path d="M74.6421 13.8867H72.9062V15.6226H74.6421V13.8867Z" fill="white"/>
<path d="M19.0952 15.6226H17.3594V17.3584H19.0952V15.6226Z" fill="white"/>
<path d="M22.5679 15.6226H20.832V17.3584H22.5679V15.6226Z" fill="white"/>
<path d="M24.3023 15.6226H22.5664V17.3584H24.3023V15.6226Z" fill="white"/>
<path d="M26.0386 15.6226H24.3027V17.3584H26.0386V15.6226Z" fill="white"/>
<path d="M27.7749 15.6226H26.0391V17.3584H27.7749V15.6226Z" fill="white"/>
<path d="M38.189 15.6226H36.4531V17.3584H38.189V15.6226Z" fill="white"/>
<path d="M39.9253 15.6226H38.1895V17.3584H39.9253V15.6226Z" fill="white"/>
<path d="M43.398 15.6226H41.6621V17.3584H43.398V15.6226Z" fill="white"/>
<path d="M50.3413 15.6226H48.6055V17.3584H50.3413V15.6226Z" fill="white"/>
<path d="M53.812 15.6226H52.0762V17.3584H53.812V15.6226Z" fill="white"/>
<path d="M55.5483 15.6226H53.8125V17.3584H55.5483V15.6226Z" fill="white"/>
<path d="M57.2847 15.6226H55.5488V17.3584H57.2847V15.6226Z" fill="white"/>
<path d="M69.4351 15.6226H67.6992V17.3584H69.4351V15.6226Z" fill="white"/>
<path d="M71.1714 15.6226H69.4355V17.3584H71.1714V15.6226Z" fill="white"/>
<path d="M74.6421 15.6226H72.9062V17.3584H74.6421V15.6226Z" fill="white"/>
<path d="M5.20851 17.3584H3.47266V19.0942H5.20851V17.3584Z" fill="white"/>
<path d="M8.68116 17.3584H6.94531V19.0942H8.68116V17.3584Z" fill="white"/>
<path d="M10.4155 17.3584H8.67969V19.0942H10.4155V17.3584Z" fill="white"/>
<path d="M12.1519 17.3584H10.416V19.0942H12.1519V17.3584Z" fill="white"/>
<path d="M13.8882 17.3584H12.1523V19.0942H13.8882V17.3584Z" fill="white"/>
<path d="M15.6245 17.3584H13.8887V19.0942H15.6245V17.3584Z" fill="white"/>
<path d="M22.5679 17.3584H20.832V19.0942H22.5679V17.3584Z" fill="white"/>
<path d="M24.3023 17.3584H22.5664V19.0942H24.3023V17.3584Z" fill="white"/>
<path d="M31.2456 17.3584H29.5098V19.0942H31.2456V17.3584Z" fill="white"/>
<path d="M32.9819 17.3584H31.2461V19.0942H32.9819V17.3584Z" fill="white"/>
<path d="M38.189 17.3584H36.4531V19.0942H38.189V17.3584Z" fill="white"/>
<path d="M39.9253 17.3584H38.1895V19.0942H39.9253V17.3584Z" fill="white"/>
<path d="M41.6616 17.3584H39.9258V19.0942H41.6616V17.3584Z" fill="white"/>
<path d="M43.398 17.3584H41.6621V19.0942H43.398V17.3584Z" fill="white"/>
<path d="M45.1323 17.3584H43.3965V19.0942H45.1323V17.3584Z" fill="white"/>
<path d="M46.8687 17.3584H45.1328V19.0942H46.8687V17.3584Z" fill="white"/>
<path d="M48.605 17.3584H46.8691V19.0942H48.605V17.3584Z" fill="white"/>
<path d="M50.3413 17.3584H48.6055V19.0942H50.3413V17.3584Z" fill="white"/>
<path d="M57.2847 17.3584H55.5488V19.0942H57.2847V17.3584Z" fill="white"/>
<path d="M59.0191 17.3584H57.2832V19.0942H59.0191V17.3584Z" fill="white"/>
<path d="M64.228 17.3584H62.4922V19.0942H64.228V17.3584Z" fill="white"/>
<path d="M65.9624 17.3584H64.2266V19.0942H65.9624V17.3584Z" fill="white"/>
<path d="M67.6987 17.3584H65.9629V19.0942H67.6987V17.3584Z" fill="white"/>
<path d="M74.6421 17.3584H72.9062V19.0942H74.6421V17.3584Z" fill="white"/>
<path d="M78.1148 17.3584H76.3789V19.0942H78.1148V17.3584Z" fill="white"/>
<path d="M79.8491 17.3584H78.1133V19.0942H79.8491V17.3584Z" fill="white"/>
<path d="M81.5855 17.3584H79.8496V19.0942H81.5855V17.3584Z" fill="white"/>
<path d="M83.3218 17.3584H81.5859V19.0942H83.3218V17.3584Z" fill="white"/>
<path d="M85.0581 17.3584H83.3223V19.0942H85.0581V17.3584Z" fill="white"/>
<path d="M8.68116 19.0942H6.94531V20.8301H8.68116V19.0942Z" fill="white"/>
<path d="M13.8882 19.0942H12.1523V20.8301H13.8882V19.0942Z" fill="white"/>
<path d="M17.3589 19.0942H15.623V20.8301H17.3589V19.0942Z" fill="white"/>
<path d="M19.0952 19.0942H17.3594V20.8301H19.0952V19.0942Z" fill="white"/>
<path d="M20.8316 19.0942H19.0957V20.8301H20.8316V19.0942Z" fill="white"/>
<path d="M24.3023 19.0942H22.5664V20.8301H24.3023V19.0942Z" fill="white"/>
<path d="M26.0386 19.0942H24.3027V20.8301H26.0386V19.0942Z" fill="white"/>
<path d="M41.6616 19.0942H39.9258V20.8301H41.6616V19.0942Z" fill="white"/>
<path d="M48.605 19.0942H46.8691V20.8301H48.605V19.0942Z" fill="white"/>
<path d="M55.5483 19.0942H53.8125V20.8301H55.5483V19.0942Z" fill="white"/>
<path d="M57.2847 19.0942H55.5488V20.8301H57.2847V19.0942Z" fill="white"/>
<path d="M62.4917 19.0942H60.7559V20.8301H62.4917V19.0942Z" fill="white"/>
<path d="M69.4351 19.0942H67.6992V20.8301H69.4351V19.0942Z" fill="white"/>
<path d="M76.3784 19.0942H74.6426V20.8301H76.3784V19.0942Z" fill="white"/>
<path d="M78.1148 19.0942H76.3789V20.8301H78.1148V19.0942Z" fill="white"/>
<path d="M86.7925 19.0942H85.0566V20.8301H86.7925V19.0942Z" fill="white"/>
<path d="M6.94483 20.8301H5.20898V22.5659H6.94483V20.8301Z" fill="white"/>
<path d="M8.68116 20.8301H6.94531V22.5659H8.68116V20.8301Z" fill="white"/>
<path d="M10.4155 20.8301H8.67969V22.5659H10.4155V20.8301Z" fill="white"/>
<path d="M13.8882 20.8301H12.1523V22.5659H13.8882V20.8301Z" fill="white"/>
<path d="M15.6245 20.8301H13.8887V22.5659H15.6245V20.8301Z" fill="white"/>
<path d="M17.3589 20.8301H15.623V22.5659H17.3589V20.8301Z" fill="white"/>
<path d="M20.8316 20.8301H19.0957V22.5659H20.8316V20.8301Z" fill="white"/>
<path d="M22.5679 20.8301H20.832V22.5659H22.5679V20.8301Z" fill="white"/>
<path d="M24.3023 20.8301H22.5664V22.5659H24.3023V20.8301Z" fill="white"/>
<path d="M31.2456 20.8301H29.5098V22.5659H31.2456V20.8301Z" fill="white"/>
<path d="M32.9819 20.8301H31.2461V22.5659H32.9819V20.8301Z" fill="white"/>
<path d="M34.7183 20.8301H32.9824V22.5659H34.7183V20.8301Z" fill="white"/>
<path d="M36.4546 20.8301H34.7188V22.5659H36.4546V20.8301Z" fill="white"/>
<path d="M38.189 20.8301H36.4531V22.5659H38.189V20.8301Z" fill="white"/>
<path d="M39.9253 20.8301H38.1895V22.5659H39.9253V20.8301Z" fill="white"/>
<path d="M41.6616 20.8301H39.9258V22.5659H41.6616V20.8301Z" fill="white"/>
<path d="M45.1323 20.8301H43.3965V22.5659H45.1323V20.8301Z" fill="white"/>
<path d="M50.3413 20.8301H48.6055V22.5659H50.3413V20.8301Z" fill="white"/>
<path d="M52.0757 20.8301H50.3398V22.5659H52.0757V20.8301Z" fill="white"/>
<path d="M53.812 20.8301H52.0762V22.5659H53.812V20.8301Z" fill="white"/>
<path d="M57.2847 20.8301H55.5488V22.5659H57.2847V20.8301Z" fill="white"/>
<path d="M59.0191 20.8301H57.2832V22.5659H59.0191V20.8301Z" fill="white"/>
<path d="M64.228 20.8301H62.4922V22.5659H64.228V20.8301Z" fill="white"/>
<path d="M65.9624 20.8301H64.2266V22.5659H65.9624V20.8301Z" fill="white"/>
<path d="M71.1714 20.8301H69.4355V22.5659H71.1714V20.8301Z" fill="white"/>
<path d="M72.9058 20.8301H71.1699V22.5659H72.9058V20.8301Z" fill="white"/>
<path d="M83.3218 20.8301H81.5859V22.5659H83.3218V20.8301Z" fill="white"/>
<path d="M88.5288 20.8301H86.793V22.5659H88.5288V20.8301Z" fill="white"/>
<path d="M5.20851 22.5659H3.47266V24.3018H5.20851V22.5659Z" fill="white"/>
<path d="M6.94483 22.5659H5.20898V24.3018H6.94483V22.5659Z" fill="white"/>
<path d="M8.68116 22.5659H6.94531V24.3018H8.68116V22.5659Z" fill="white"/>
<path d="M10.4155 22.5659H8.67969V24.3018H10.4155V22.5659Z" fill="white"/>
<path d="M12.1519 22.5659H10.416V24.3018H12.1519V22.5659Z" fill="white"/>
<path d="M20.8316 22.5659H19.0957V24.3018H20.8316V22.5659Z" fill="white"/>
<path d="M27.7749 22.5659H26.0391V24.3018H27.7749V22.5659Z" fill="white"/>
<path d="M29.5112 22.5659H27.7754V24.3018H29.5112V22.5659Z" fill="white"/>
<path d="M31.2456 22.5659H29.5098V24.3018H31.2456V22.5659Z" fill="white"/>
<path d="M36.4546 22.5659H34.7188V24.3018H36.4546V22.5659Z" fill="white"/>
<path d="M41.6616 22.5659H39.9258V24.3018H41.6616V22.5659Z" fill="white"/>
<path d="M45.1323 22.5659H43.3965V24.3018H45.1323V22.5659Z" fill="white"/>
<path d="M48.605 22.5659H46.8691V24.3018H48.605V22.5659Z" fill="white"/>
<path d="M53.812 22.5659H52.0762V24.3018H53.812V22.5659Z" fill="white"/>
<path d="M57.2847 22.5659H55.5488V24.3018H57.2847V22.5659Z" fill="white"/>
<path d="M60.7554 22.5659H59.0195V24.3018H60.7554V22.5659Z" fill="white"/>
<path d="M79.8491 22.5659H78.1133V24.3018H79.8491V22.5659Z" fill="white"/>
<path d="M81.5855 22.5659H79.8496V24.3018H81.5855V22.5659Z" fill="white"/>
<path d="M83.3218 22.5659H81.5859V24.3018H83.3218V22.5659Z" fill="white"/>
<path d="M86.7925 22.5659H85.0566V24.3018H86.7925V22.5659Z" fill="white"/>
<path d="M8.68116 24.3018H6.94531V26.0376H8.68116V24.3018Z" fill="white"/>
<path d="M10.4155 24.3018H8.67969V26.0376H10.4155V24.3018Z" fill="white"/>
<path d="M13.8882 24.3018H12.1523V26.0376H13.8882V24.3018Z" fill="white"/>
<path d="M15.6245 24.3018H13.8887V26.0376H15.6245V24.3018Z" fill="white"/>
<path d="M17.3589 24.3018H15.623V26.0376H17.3589V24.3018Z" fill="white"/>
<path d="M19.0952 24.3018H17.3594V26.0376H19.0952V24.3018Z" fill="white"/>
<path d="M32.9819 24.3018H31.2461V26.0376H32.9819V24.3018Z" fill="white"/>
<path d="M36.4546 24.3018H34.7188V26.0376H36.4546V24.3018Z" fill="white"/>
<path d="M38.189 24.3018H36.4531V26.0376H38.189V24.3018Z" fill="white"/>
<path d="M43.398 24.3018H41.6621V26.0376H43.398V24.3018Z" fill="white"/>
<path d="M46.8687 24.3018H45.1328V26.0376H46.8687V24.3018Z" fill="white"/>
<path d="M48.605 24.3018H46.8691V26.0376H48.605V24.3018Z" fill="white"/>
<path d="M50.3413 24.3018H48.6055V26.0376H50.3413V24.3018Z" fill="white"/>
<path d="M59.0191 24.3018H57.2832V26.0376H59.0191V24.3018Z" fill="white"/>
<path d="M65.9624 24.3018H64.2266V26.0376H65.9624V24.3018Z" fill="white"/>
<path d="M67.6987 24.3018H65.9629V26.0376H67.6987V24.3018Z" fill="white"/>
<path d="M71.1714 24.3018H69.4355V26.0376H71.1714V24.3018Z" fill="white"/>
<path d="M74.6421 24.3018H72.9062V26.0376H74.6421V24.3018Z" fill="white"/>
<path d="M85.0581 24.3018H83.3223V26.0376H85.0581V24.3018Z" fill="white"/>
<path d="M86.7925 24.3018H85.0566V26.0376H86.7925V24.3018Z" fill="white"/>
<path d="M6.94483 26.0376H5.20898V27.7734H6.94483V26.0376Z" fill="white"/>
<path d="M10.4155 26.0376H8.67969V27.7734H10.4155V26.0376Z" fill="white"/>
<path d="M12.1519 26.0376H10.416V27.7734H12.1519V26.0376Z" fill="white"/>
<path d="M13.8882 26.0376H12.1523V27.7734H13.8882V26.0376Z" fill="white"/>
<path d="M19.0952 26.0376H17.3594V27.7734H19.0952V26.0376Z" fill="white"/>
<path d="M20.8316 26.0376H19.0957V27.7734H20.8316V26.0376Z" fill="white"/>
<path d="M22.5679 26.0376H20.832V27.7734H22.5679V26.0376Z" fill="white"/>
<path d="M26.0386 26.0376H24.3027V27.7734H26.0386V26.0376Z" fill="white"/>
<path d="M27.7749 26.0376H26.0391V27.7734H27.7749V26.0376Z" fill="white"/>
<path d="M31.2456 26.0376H29.5098V27.7734H31.2456V26.0376Z" fill="white"/>
<path d="M32.9819 26.0376H31.2461V27.7734H32.9819V26.0376Z" fill="white"/>
<path d="M34.7183 26.0376H32.9824V27.7734H34.7183V26.0376Z" fill="white"/>
<path d="M36.4546 26.0376H34.7188V27.7734H36.4546V26.0376Z" fill="white"/>
<path d="M41.6616 26.0376H39.9258V27.7734H41.6616V26.0376Z" fill="white"/>
<path d="M45.1323 26.0376H43.3965V27.7734H45.1323V26.0376Z" fill="white"/>
<path d="M57.2847 26.0376H55.5488V27.7734H57.2847V26.0376Z" fill="white"/>
<path d="M59.0191 26.0376H57.2832V27.7734H59.0191V26.0376Z" fill="white"/>
<path d="M60.7554 26.0376H59.0195V27.7734H60.7554V26.0376Z" fill="white"/>
<path d="M65.9624 26.0376H64.2266V27.7734H65.9624V26.0376Z" fill="white"/>
<path d="M69.4351 26.0376H67.6992V27.7734H69.4351V26.0376Z" fill="white"/>
<path d="M78.1148 26.0376H76.3789V27.7734H78.1148V26.0376Z" fill="white"/>
<path d="M86.7925 26.0376H85.0566V27.7734H86.7925V26.0376Z" fill="white"/>
<path d="M5.20851 27.7734H3.47266V29.5093H5.20851V27.7734Z" fill="white"/>
<path d="M6.94483 27.7734H5.20898V29.5093H6.94483V27.7734Z" fill="white"/>
<path d="M8.68116 27.7734H6.94531V29.5093H8.68116V27.7734Z" fill="white"/>
<path d="M10.4155 27.7734H8.67969V29.5093H10.4155V27.7734Z" fill="white"/>
<path d="M12.1519 27.7734H10.416V29.5093H12.1519V27.7734Z" fill="white"/>
<path d="M13.8882 27.7734H12.1523V29.5093H13.8882V27.7734Z" fill="white"/>
<path d="M15.6245 27.7734H13.8887V29.5093H15.6245V27.7734Z" fill="white"/>
<path d="M17.3589 27.7734H15.623V29.5093H17.3589V27.7734Z" fill="white"/>
<path d="M19.0952 27.7734H17.3594V29.5093H19.0952V27.7734Z" fill="white"/>
<path d="M20.8316 27.7734H19.0957V29.5093H20.8316V27.7734Z" fill="white"/>
<path d="M22.5679 27.7734H20.832V29.5093H22.5679V27.7734Z" fill="white"/>
<path d="M36.4546 27.7734H34.7188V29.5093H36.4546V27.7734Z" fill="white"/>
<path d="M38.189 27.7734H36.4531V29.5093H38.189V27.7734Z" fill="white"/>
<path d="M46.8687 27.7734H45.1328V29.5093H46.8687V27.7734Z" fill="white"/>
<path d="M48.605 27.7734H46.8691V29.5093H48.605V27.7734Z" fill="white"/>
<path d="M50.3413 27.7734H48.6055V29.5093H50.3413V27.7734Z" fill="white"/>
<path d="M55.5483 27.7734H53.8125V29.5093H55.5483V27.7734Z" fill="white"/>
<path d="M62.4917 27.7734H60.7559V29.5093H62.4917V27.7734Z" fill="white"/>
<path d="M64.228 27.7734H62.4922V29.5093H64.228V27.7734Z" fill="white"/>
<path d="M65.9624 27.7734H64.2266V29.5093H65.9624V27.7734Z" fill="white"/>
<path d="M71.1714 27.7734H69.4355V29.5093H71.1714V27.7734Z" fill="white"/>
<path d="M83.3218 27.7734H81.5859V29.5093H83.3218V27.7734Z" fill="white"/>
<path d="M86.7925 27.7734H85.0566V29.5093H86.7925V27.7734Z" fill="white"/>
<path d="M88.5288 27.7734H86.793V29.5093H88.5288V27.7734Z" fill="white"/>
<path d="M6.94483 29.5093H5.20898V31.2451H6.94483V29.5093Z" fill="white"/>
<path d="M26.0386 29.5093H24.3027V31.2451H26.0386V29.5093Z" fill="white"/>
<path d="M34.7183 29.5093H32.9824V31.2451H34.7183V29.5093Z" fill="white"/>
<path d="M36.4546 29.5093H34.7188V31.2451H36.4546V29.5093Z" fill="white"/>
<path d="M41.6616 29.5093H39.9258V31.2451H41.6616V29.5093Z" fill="white"/>
<path d="M45.1323 29.5093H43.3965V31.2451H45.1323V29.5093Z" fill="white"/>
<path d="M57.2847 29.5093H55.5488V31.2451H57.2847V29.5093Z" fill="white"/>
<path d="M64.228 29.5093H62.4922V31.2451H64.228V29.5093Z" fill="white"/>
<path d="M72.9058 29.5093H71.1699V31.2451H72.9058V29.5093Z" fill="white"/>
<path d="M76.3784 29.5093H74.6426V31.2451H76.3784V29.5093Z" fill="white"/>
<path d="M78.1148 29.5093H76.3789V31.2451H78.1148V29.5093Z" fill="white"/>
<path d="M79.8491 29.5093H78.1133V31.2451H79.8491V29.5093Z" fill="white"/>
<path d="M81.5855 29.5093H79.8496V31.2451H81.5855V29.5093Z" fill="white"/>
<path d="M83.3218 29.5093H81.5859V31.2451H83.3218V29.5093Z" fill="white"/>
<path d="M88.5288 29.5093H86.793V31.2451H88.5288V29.5093Z" fill="white"/>
<path d="M6.94483 31.2451H5.20898V32.981H6.94483V31.2451Z" fill="white"/>
<path d="M12.1519 31.2451H10.416V32.981H12.1519V31.2451Z" fill="white"/>
<path d="M15.6245 31.2451H13.8887V32.981H15.6245V31.2451Z" fill="white"/>
<path d="M24.3023 31.2451H22.5664V32.981H24.3023V31.2451Z" fill="white"/>
<path d="M26.0386 31.2451H24.3027V32.981H26.0386V31.2451Z" fill="white"/>
<path d="M32.9819 31.2451H31.2461V32.981H32.9819V31.2451Z" fill="white"/>
<path d="M36.4546 31.2451H34.7188V32.981H36.4546V31.2451Z" fill="white"/>
<path d="M38.189 31.2451H36.4531V32.981H38.189V31.2451Z" fill="white"/>
<path d="M39.9253 31.2451H38.1895V32.981H39.9253V31.2451Z" fill="white"/>
<path d="M45.1323 31.2451H43.3965V32.981H45.1323V31.2451Z" fill="white"/>
<path d="M46.8687 31.2451H45.1328V32.981H46.8687V31.2451Z" fill="white"/>
<path d="M48.605 31.2451H46.8691V32.981H48.605V31.2451Z" fill="white"/>
<path d="M50.3413 31.2451H48.6055V32.981H50.3413V31.2451Z" fill="white"/>
<path d="M52.0757 31.2451H50.3398V32.981H52.0757V31.2451Z" fill="white"/>
<path d="M55.5483 31.2451H53.8125V32.981H55.5483V31.2451Z" fill="white"/>
<path d="M57.2847 31.2451H55.5488V32.981H57.2847V31.2451Z" fill="white"/>
<path d="M65.9624 31.2451H64.2266V32.981H65.9624V31.2451Z" fill="white"/>
<path d="M67.6987 31.2451H65.9629V32.981H67.6987V31.2451Z" fill="white"/>
<path d="M71.1714 31.2451H69.4355V32.981H71.1714V31.2451Z" fill="white"/>
<path d="M72.9058 31.2451H71.1699V32.981H72.9058V31.2451Z" fill="white"/>
<path d="M79.8491 31.2451H78.1133V32.981H79.8491V31.2451Z" fill="white"/>
<path d="M83.3218 31.2451H81.5859V32.981H83.3218V31.2451Z" fill="white"/>
<path d="M85.0581 31.2451H83.3223V32.981H85.0581V31.2451Z" fill="white"/>
<path d="M5.20851 32.981H3.47266V34.7168H5.20851V32.981Z" fill="white"/>
<path d="M6.94483 32.981H5.20898V34.7168H6.94483V32.981Z" fill="white"/>
<path d="M8.68116 32.981H6.94531V34.7168H8.68116V32.981Z" fill="white"/>
<path d="M10.4155 32.981H8.67969V34.7168H10.4155V32.981Z" fill="white"/>
<path d="M13.8882 32.981H12.1523V34.7168H13.8882V32.981Z" fill="white"/>
<path d="M17.3589 32.981H15.623V34.7168H17.3589V32.981Z" fill="white"/>
<path d="M26.0386 32.981H24.3027V34.7168H26.0386V32.981Z" fill="white"/>
<path d="M32.9819 32.981H31.2461V34.7168H32.9819V32.981Z" fill="white"/>
<path d="M57.2847 32.981H55.5488V34.7168H57.2847V32.981Z" fill="white"/>
<path d="M59.0191 32.981H57.2832V34.7168H59.0191V32.981Z" fill="white"/>
<path d="M65.9624 32.981H64.2266V34.7168H65.9624V32.981Z" fill="white"/>
<path d="M69.4351 32.981H67.6992V34.7168H69.4351V32.981Z" fill="white"/>
<path d="M78.1148 32.981H76.3789V34.7168H78.1148V32.981Z" fill="white"/>
<path d="M86.7925 32.981H85.0566V34.7168H86.7925V32.981Z" fill="white"/>
<path d="M5.20851 34.7168H3.47266V36.4526H5.20851V34.7168Z" fill="white"/>
<path d="M6.94483 34.7168H5.20898V36.4526H6.94483V34.7168Z" fill="white"/>
<path d="M8.68116 34.7168H6.94531V36.4526H8.68116V34.7168Z" fill="white"/>
<path d="M12.1519 34.7168H10.416V36.4526H12.1519V34.7168Z" fill="white"/>
<path d="M15.6245 34.7168H13.8887V36.4526H15.6245V34.7168Z" fill="white"/>
<path d="M24.3023 34.7168H22.5664V36.4526H24.3023V34.7168Z" fill="white"/>
<path d="M26.0386 34.7168H24.3027V36.4526H26.0386V34.7168Z" fill="white"/>
<path d="M27.7749 34.7168H26.0391V36.4526H27.7749V34.7168Z" fill="white"/>
<path d="M29.5112 34.7168H27.7754V36.4526H29.5112V34.7168Z" fill="white"/>
<path d="M32.9819 34.7168H31.2461V36.4526H32.9819V34.7168Z" fill="white"/>
<path d="M34.7183 34.7168H32.9824V36.4526H34.7183V34.7168Z" fill="white"/>
<path d="M36.4546 34.7168H34.7188V36.4526H36.4546V34.7168Z" fill="white"/>
<path d="M41.6616 34.7168H39.9258V36.4526H41.6616V34.7168Z" fill="white"/>
<path d="M45.1323 34.7168H43.3965V36.4526H45.1323V34.7168Z" fill="white"/>
<path d="M46.8687 34.7168H45.1328V36.4526H46.8687V34.7168Z" fill="white"/>
<path d="M48.605 34.7168H46.8691V36.4526H48.605V34.7168Z" fill="white"/>
<path d="M50.3413 34.7168H48.6055V36.4526H50.3413V34.7168Z" fill="white"/>
<path d="M52.0757 34.7168H50.3398V36.4526H52.0757V34.7168Z" fill="white"/>
<path d="M55.5483 34.7168H53.8125V36.4526H55.5483V34.7168Z" fill="white"/>
<path d="M57.2847 34.7168H55.5488V36.4526H57.2847V34.7168Z" fill="white"/>
<path d="M59.0191 34.7168H57.2832V36.4526H59.0191V34.7168Z" fill="white"/>
<path d="M64.228 34.7168H62.4922V36.4526H64.228V34.7168Z" fill="white"/>
<path d="M67.6987 34.7168H65.9629V36.4526H67.6987V34.7168Z" fill="white"/>
<path d="M69.4351 34.7168H67.6992V36.4526H69.4351V34.7168Z" fill="white"/>
<path d="M71.1714 34.7168H69.4355V36.4526H71.1714V34.7168Z" fill="white"/>
<path d="M76.3784 34.7168H74.6426V36.4526H76.3784V34.7168Z" fill="white"/>
<path d="M79.8491 34.7168H78.1133V36.4526H79.8491V34.7168Z" fill="white"/>
<path d="M81.5855 34.7168H79.8496V36.4526H81.5855V34.7168Z" fill="white"/>
<path d="M83.3218 34.7168H81.5859V36.4526H83.3218V34.7168Z" fill="white"/>
<path d="M88.5288 34.7168H86.793V36.4526H88.5288V34.7168Z" fill="white"/>
<path d="M6.94483 36.4526H5.20898V38.1885H6.94483V36.4526Z" fill="white"/>
<path d="M8.68116 36.4526H6.94531V38.1885H8.68116V36.4526Z" fill="white"/>
<path d="M12.1519 36.4526H10.416V38.1885H12.1519V36.4526Z" fill="white"/>
<path d="M17.3589 36.4526H15.623V38.1885H17.3589V36.4526Z" fill="white"/>
<path d="M20.8316 36.4526H19.0957V38.1885H20.8316V36.4526Z" fill="white"/>
<path d="M22.5679 36.4526H20.832V38.1885H22.5679V36.4526Z" fill="white"/>
<path d="M24.3023 36.4526H22.5664V38.1885H24.3023V36.4526Z" fill="white"/>
<path d="M26.0386 36.4526H24.3027V38.1885H26.0386V36.4526Z" fill="white"/>
<path d="M27.7749 36.4526H26.0391V38.1885H27.7749V36.4526Z" fill="white"/>
<path d="M29.5112 36.4526H27.7754V38.1885H29.5112V36.4526Z" fill="white"/>
<path d="M31.2456 36.4526H29.5098V38.1885H31.2456V36.4526Z" fill="white"/>
<path d="M34.7183 36.4526H32.9824V38.1885H34.7183V36.4526Z" fill="white"/>
<path d="M39.9253 36.4526H38.1895V38.1885H39.9253V36.4526Z" fill="white"/>
<path d="M53.812 36.4526H52.0762V38.1885H53.812V36.4526Z" fill="white"/>
<path d="M55.5483 36.4526H53.8125V38.1885H55.5483V36.4526Z" fill="white"/>
<path d="M59.0191 36.4526H57.2832V38.1885H59.0191V36.4526Z" fill="white"/>
<path d="M60.7554 36.4526H59.0195V38.1885H60.7554V36.4526Z" fill="white"/>
<path d="M72.9058 36.4526H71.1699V38.1885H72.9058V36.4526Z" fill="white"/>
<path d="M74.6421 36.4526H72.9062V38.1885H74.6421V36.4526Z" fill="white"/>
<path d="M76.3784 36.4526H74.6426V38.1885H76.3784V36.4526Z" fill="white"/>
<path d="M79.8491 36.4526H78.1133V38.1885H79.8491V36.4526Z" fill="white"/>
<path d="M81.5855 36.4526H79.8496V38.1885H81.5855V36.4526Z" fill="white"/>
<path d="M86.7925 36.4526H85.0566V38.1885H86.7925V36.4526Z" fill="white"/>
<path d="M5.20851 38.1885H3.47266V39.9243H5.20851V38.1885Z" fill="white"/>
<path d="M6.94483 38.1885H5.20898V39.9243H6.94483V38.1885Z" fill="white"/>
<path d="M8.68116 38.1885H6.94531V39.9243H8.68116V38.1885Z" fill="white"/>
<path d="M10.4155 38.1885H8.67969V39.9243H10.4155V38.1885Z" fill="white"/>
<path d="M13.8882 38.1885H12.1523V39.9243H13.8882V38.1885Z" fill="white"/>
<path d="M15.6245 38.1885H13.8887V39.9243H15.6245V38.1885Z" fill="white"/>
<path d="M19.0952 38.1885H17.3594V39.9243H19.0952V38.1885Z" fill="white"/>
<path d="M24.3023 38.1885H22.5664V39.9243H24.3023V38.1885Z" fill="white"/>
<path d="M29.5112 38.1885H27.7754V39.9243H29.5112V38.1885Z" fill="white"/>
<path d="M36.4546 38.1885H34.7188V39.9243H36.4546V38.1885Z" fill="white"/>
<path d="M39.9253 38.1885H38.1895V39.9243H39.9253V38.1885Z" fill="white"/>
<path d="M41.6616 38.1885H39.9258V39.9243H41.6616V38.1885Z" fill="white"/>
<path d="M43.398 38.1885H41.6621V39.9243H43.398V38.1885Z" fill="white"/>
<path d="M45.1323 38.1885H43.3965V39.9243H45.1323V38.1885Z" fill="white"/>
<path d="M46.8687 38.1885H45.1328V39.9243H46.8687V38.1885Z" fill="white"/>
<path d="M48.605 38.1885H46.8691V39.9243H48.605V38.1885Z" fill="white"/>
<path d="M52.0757 38.1885H50.3398V39.9243H52.0757V38.1885Z" fill="white"/>
<path d="M55.5483 38.1885H53.8125V39.9243H55.5483V38.1885Z" fill="white"/>
<path d="M57.2847 38.1885H55.5488V39.9243H57.2847V38.1885Z" fill="white"/>
<path d="M64.228 38.1885H62.4922V39.9243H64.228V38.1885Z" fill="white"/>
<path d="M65.9624 38.1885H64.2266V39.9243H65.9624V38.1885Z" fill="white"/>
<path d="M67.6987 38.1885H65.9629V39.9243H67.6987V38.1885Z" fill="white"/>
<path d="M69.4351 38.1885H67.6992V39.9243H69.4351V38.1885Z" fill="white"/>
<path d="M71.1714 38.1885H69.4355V39.9243H71.1714V38.1885Z" fill="white"/>
<path d="M72.9058 38.1885H71.1699V39.9243H72.9058V38.1885Z" fill="white"/>
<path d="M74.6421 38.1885H72.9062V39.9243H74.6421V38.1885Z" fill="white"/>
<path d="M76.3784 38.1885H74.6426V39.9243H76.3784V38.1885Z" fill="white"/>
<path d="M78.1148 38.1885H76.3789V39.9243H78.1148V38.1885Z" fill="white"/>
<path d="M85.0581 38.1885H83.3223V39.9243H85.0581V38.1885Z" fill="white"/>
<path d="M86.7925 38.1885H85.0566V39.9243H86.7925V38.1885Z" fill="white"/>
<path d="M88.5288 38.1885H86.793V39.9243H88.5288V38.1885Z" fill="white"/>
<path d="M5.20851 39.9243H3.47266V41.6602H5.20851V39.9243Z" fill="white"/>
<path d="M6.94483 39.9243H5.20898V41.6602H6.94483V39.9243Z" fill="white"/>
<path d="M10.4155 39.9243H8.67969V41.6602H10.4155V39.9243Z" fill="white"/>
<path d="M17.3589 39.9243H15.623V41.6602H17.3589V39.9243Z" fill="white"/>
<path d="M19.0952 39.9243H17.3594V41.6602H19.0952V39.9243Z" fill="white"/>
<path d="M20.8316 39.9243H19.0957V41.6602H20.8316V39.9243Z" fill="white"/>
<path d="M22.5679 39.9243H20.832V41.6602H22.5679V39.9243Z" fill="white"/>
<path d="M29.5112 39.9243H27.7754V41.6602H29.5112V39.9243Z" fill="white"/>
<path d="M31.2456 39.9243H29.5098V41.6602H31.2456V39.9243Z" fill="white"/>
<path d="M32.9819 39.9243H31.2461V41.6602H32.9819V39.9243Z" fill="white"/>
<path d="M36.4546 39.9243H34.7188V41.6602H36.4546V39.9243Z" fill="white"/>
<path d="M38.189 39.9243H36.4531V41.6602H38.189V39.9243Z" fill="white"/>
<path d="M41.6616 39.9243H39.9258V41.6602H41.6616V39.9243Z" fill="white"/>
<path d="M46.8687 39.9243H45.1328V41.6602H46.8687V39.9243Z" fill="white"/>
<path d="M57.2847 39.9243H55.5488V41.6602H57.2847V39.9243Z" fill="white"/>
<path d="M59.0191 39.9243H57.2832V41.6602H59.0191V39.9243Z" fill="white"/>
<path d="M69.4351 39.9243H67.6992V41.6602H69.4351V39.9243Z" fill="white"/>
<path d="M76.3784 39.9243H74.6426V41.6602H76.3784V39.9243Z" fill="white"/>
<path d="M78.1148 39.9243H76.3789V41.6602H78.1148V39.9243Z" fill="white"/>
<path d="M79.8491 39.9243H78.1133V41.6602H79.8491V39.9243Z" fill="white"/>
<path d="M81.5855 39.9243H79.8496V41.6602H81.5855V39.9243Z" fill="white"/>
<path d="M83.3218 39.9243H81.5859V41.6602H83.3218V39.9243Z" fill="white"/>
<path d="M86.7925 39.9243H85.0566V41.6602H86.7925V39.9243Z" fill="white"/>
<path d="M5.20851 41.6602H3.47266V43.396H5.20851V41.6602Z" fill="white"/>
<path d="M6.94483 41.6602H5.20898V43.396H6.94483V41.6602Z" fill="white"/>
<path d="M8.68116 41.6602H6.94531V43.396H8.68116V41.6602Z" fill="white"/>
<path d="M12.1519 41.6602H10.416V43.396H12.1519V41.6602Z" fill="white"/>
<path d="M13.8882 41.6602H12.1523V43.396H13.8882V41.6602Z" fill="white"/>
<path d="M15.6245 41.6602H13.8887V43.396H15.6245V41.6602Z" fill="white"/>
<path d="M17.3589 41.6602H15.623V43.396H17.3589V41.6602Z" fill="white"/>
<path d="M19.0952 41.6602H17.3594V43.396H19.0952V41.6602Z" fill="white"/>
<path d="M26.0386 41.6602H24.3027V43.396H26.0386V41.6602Z" fill="white"/>
<path d="M29.5112 41.6602H27.7754V43.396H29.5112V41.6602Z" fill="white"/>
<path d="M38.189 41.6602H36.4531V43.396H38.189V41.6602Z" fill="white"/>
<path d="M41.6616 41.6602H39.9258V43.396H41.6616V41.6602Z" fill="white"/>
<path d="M43.398 41.6602H41.6621V43.396H43.398V41.6602Z" fill="white"/>
<path d="M45.1323 41.6602H43.3965V43.396H45.1323V41.6602Z" fill="white"/>
<path d="M46.8687 41.6602H45.1328V43.396H46.8687V41.6602Z" fill="white"/>
<path d="M48.605 41.6602H46.8691V43.396H48.605V41.6602Z" fill="white"/>
<path d="M50.3413 41.6602H48.6055V43.396H50.3413V41.6602Z" fill="white"/>
<path d="M52.0757 41.6602H50.3398V43.396H52.0757V41.6602Z" fill="white"/>
<path d="M53.812 41.6602H52.0762V43.396H53.812V41.6602Z" fill="white"/>
<path d="M62.4917 41.6602H60.7559V43.396H62.4917V41.6602Z" fill="white"/>
<path d="M64.228 41.6602H62.4922V43.396H64.228V41.6602Z" fill="white"/>
<path d="M65.9624 41.6602H64.2266V43.396H65.9624V41.6602Z" fill="white"/>
<path d="M67.6987 41.6602H65.9629V43.396H67.6987V41.6602Z" fill="white"/>
<path d="M69.4351 41.6602H67.6992V43.396H69.4351V41.6602Z" fill="white"/>
<path d="M71.1714 41.6602H69.4355V43.396H71.1714V41.6602Z" fill="white"/>
<path d="M72.9058 41.6602H71.1699V43.396H72.9058V41.6602Z" fill="white"/>
<path d="M74.6421 41.6602H72.9062V43.396H74.6421V41.6602Z" fill="white"/>
<path d="M76.3784 41.6602H74.6426V43.396H76.3784V41.6602Z" fill="white"/>
<path d="M78.1148 41.6602H76.3789V43.396H78.1148V41.6602Z" fill="white"/>
<path d="M79.8491 41.6602H78.1133V43.396H79.8491V41.6602Z" fill="white"/>
<path d="M81.5855 41.6602H79.8496V43.396H81.5855V41.6602Z" fill="white"/>
<path d="M86.7925 41.6602H85.0566V43.396H86.7925V41.6602Z" fill="white"/>
<path d="M88.5288 41.6602H86.793V43.396H88.5288V41.6602Z" fill="white"/>
<path d="M6.94483 43.396H5.20898V45.1318H6.94483V43.396Z" fill="white"/>
<path d="M10.4155 43.396H8.67969V45.1318H10.4155V43.396Z" fill="white"/>
<path d="M12.1519 43.396H10.416V45.1318H12.1519V43.396Z" fill="white"/>
<path d="M19.0952 43.396H17.3594V45.1318H19.0952V43.396Z" fill="white"/>
<path d="M22.5679 43.396H20.832V45.1318H22.5679V43.396Z" fill="white"/>
<path d="M31.2456 43.396H29.5098V45.1318H31.2456V43.396Z" fill="white"/>
<path d="M32.9819 43.396H31.2461V45.1318H32.9819V43.396Z" fill="white"/>
<path d="M38.189 43.396H36.4531V45.1318H38.189V43.396Z" fill="white"/>
<path d="M43.398 43.396H41.6621V45.1318H43.398V43.396Z" fill="white"/>
<path d="M50.3413 43.396H48.6055V45.1318H50.3413V43.396Z" fill="white"/>
<path d="M52.0757 43.396H50.3398V45.1318H52.0757V43.396Z" fill="white"/>
<path d="M53.812 43.396H52.0762V45.1318H53.812V43.396Z" fill="white"/>
<path d="M57.2847 43.396H55.5488V45.1318H57.2847V43.396Z" fill="white"/>
<path d="M59.0191 43.396H57.2832V45.1318H59.0191V43.396Z" fill="white"/>
<path d="M71.1714 43.396H69.4355V45.1318H71.1714V43.396Z" fill="white"/>
<path d="M72.9058 43.396H71.1699V45.1318H72.9058V43.396Z" fill="white"/>
<path d="M74.6421 43.396H72.9062V45.1318H74.6421V43.396Z" fill="white"/>
<path d="M81.5855 43.396H79.8496V45.1318H81.5855V43.396Z" fill="white"/>
<path d="M83.3218 43.396H81.5859V45.1318H83.3218V43.396Z" fill="white"/>
<path d="M86.7925 43.396H85.0566V45.1318H86.7925V43.396Z" fill="white"/>
<path d="M88.5288 43.396H86.793V45.1318H88.5288V43.396Z" fill="white"/>
<path d="M6.94483 45.1318H5.20898V46.8677H6.94483V45.1318Z" fill="white"/>
<path d="M8.68116 45.1318H6.94531V46.8677H8.68116V45.1318Z" fill="white"/>
<path d="M12.1519 45.1318H10.416V46.8677H12.1519V45.1318Z" fill="white"/>
<path d="M15.6245 45.1318H13.8887V46.8677H15.6245V45.1318Z" fill="white"/>
<path d="M19.0952 45.1318H17.3594V46.8677H19.0952V45.1318Z" fill="white"/>
<path d="M22.5679 45.1318H20.832V46.8677H22.5679V45.1318Z" fill="white"/>
<path d="M27.7749 45.1318H26.0391V46.8677H27.7749V45.1318Z" fill="white"/>
<path d="M29.5112 45.1318H27.7754V46.8677H29.5112V45.1318Z" fill="white"/>
<path d="M39.9253 45.1318H38.1895V46.8677H39.9253V45.1318Z" fill="white"/>
<path d="M41.6616 45.1318H39.9258V46.8677H41.6616V45.1318Z" fill="white"/>
<path d="M43.398 45.1318H41.6621V46.8677H43.398V45.1318Z" fill="white"/>
<path d="M46.8687 45.1318H45.1328V46.8677H46.8687V45.1318Z" fill="white"/>
<path d="M50.3413 45.1318H48.6055V46.8677H50.3413V45.1318Z" fill="white"/>
<path d="M59.0191 45.1318H57.2832V46.8677H59.0191V45.1318Z" fill="white"/>
<path d="M65.9624 45.1318H64.2266V46.8677H65.9624V45.1318Z" fill="white"/>
<path d="M67.6987 45.1318H65.9629V46.8677H67.6987V45.1318Z" fill="white"/>
<path d="M74.6421 45.1318H72.9062V46.8677H74.6421V45.1318Z" fill="white"/>
<path d="M78.1148 45.1318H76.3789V46.8677H78.1148V45.1318Z" fill="white"/>
<path d="M81.5855 45.1318H79.8496V46.8677H81.5855V45.1318Z" fill="white"/>
<path d="M85.0581 45.1318H83.3223V46.8677H85.0581V45.1318Z" fill="white"/>
<path d="M6.94483 46.8677H5.20898V48.6035H6.94483V46.8677Z" fill="white"/>
<path d="M10.4155 46.8677H8.67969V48.6035H10.4155V46.8677Z" fill="white"/>
<path d="M12.1519 46.8677H10.416V48.6035H12.1519V46.8677Z" fill="white"/>
<path d="M19.0952 46.8677H17.3594V48.6035H19.0952V46.8677Z" fill="white"/>
<path d="M20.8316 46.8677H19.0957V48.6035H20.8316V46.8677Z" fill="white"/>
<path d="M24.3023 46.8677H22.5664V48.6035H24.3023V46.8677Z" fill="white"/>
<path d="M26.0386 46.8677H24.3027V48.6035H26.0386V46.8677Z" fill="white"/>
<path d="M27.7749 46.8677H26.0391V48.6035H27.7749V46.8677Z" fill="white"/>
<path d="M31.2456 46.8677H29.5098V48.6035H31.2456V46.8677Z" fill="white"/>
<path d="M34.7183 46.8677H32.9824V48.6035H34.7183V46.8677Z" fill="white"/>
<path d="M36.4546 46.8677H34.7188V48.6035H36.4546V46.8677Z" fill="white"/>
<path d="M43.398 46.8677H41.6621V48.6035H43.398V46.8677Z" fill="white"/>
<path d="M50.3413 46.8677H48.6055V48.6035H50.3413V46.8677Z" fill="white"/>
<path d="M53.812 46.8677H52.0762V48.6035H53.812V46.8677Z" fill="white"/>
<path d="M55.5483 46.8677H53.8125V48.6035H55.5483V46.8677Z" fill="white"/>
<path d="M57.2847 46.8677H55.5488V48.6035H57.2847V46.8677Z" fill="white"/>
<path d="M59.0191 46.8677H57.2832V48.6035H59.0191V46.8677Z" fill="white"/>
<path d="M67.6987 46.8677H65.9629V48.6035H67.6987V46.8677Z" fill="white"/>
<path d="M69.4351 46.8677H67.6992V48.6035H69.4351V46.8677Z" fill="white"/>
<path d="M72.9058 46.8677H71.1699V48.6035H72.9058V46.8677Z" fill="white"/>
<path d="M74.6421 46.8677H72.9062V48.6035H74.6421V46.8677Z" fill="white"/>
<path d="M81.5855 46.8677H79.8496V48.6035H81.5855V46.8677Z" fill="white"/>
<path d="M85.0581 46.8677H83.3223V48.6035H85.0581V46.8677Z" fill="white"/>
<path d="M5.20851 48.6035H3.47266V50.3394H5.20851V48.6035Z" fill="white"/>
<path d="M10.4155 48.6035H8.67969V50.3394H10.4155V48.6035Z" fill="white"/>
<path d="M12.1519 48.6035H10.416V50.3394H12.1519V48.6035Z" fill="white"/>
<path d="M13.8882 48.6035H12.1523V50.3394H13.8882V48.6035Z" fill="white"/>
<path d="M15.6245 48.6035H13.8887V50.3394H15.6245V48.6035Z" fill="white"/>
<path d="M17.3589 48.6035H15.623V50.3394H17.3589V48.6035Z" fill="white"/>
<path d="M19.0952 48.6035H17.3594V50.3394H19.0952V48.6035Z" fill="white"/>
<path d="M27.7749 48.6035H26.0391V50.3394H27.7749V48.6035Z" fill="white"/>
<path d="M29.5112 48.6035H27.7754V50.3394H29.5112V48.6035Z" fill="white"/>
<path d="M31.2456 48.6035H29.5098V50.3394H31.2456V48.6035Z" fill="white"/>
<path d="M32.9819 48.6035H31.2461V50.3394H32.9819V48.6035Z" fill="white"/>
<path d="M34.7183 48.6035H32.9824V50.3394H34.7183V48.6035Z" fill="white"/>
<path d="M36.4546 48.6035H34.7188V50.3394H36.4546V48.6035Z" fill="white"/>
<path d="M39.9253 48.6035H38.1895V50.3394H39.9253V48.6035Z" fill="white"/>
<path d="M43.398 48.6035H41.6621V50.3394H43.398V48.6035Z" fill="white"/>
<path d="M45.1323 48.6035H43.3965V50.3394H45.1323V48.6035Z" fill="white"/>
<path d="M46.8687 48.6035H45.1328V50.3394H46.8687V48.6035Z" fill="white"/>
<path d="M48.605 48.6035H46.8691V50.3394H48.605V48.6035Z" fill="white"/>
<path d="M50.3413 48.6035H48.6055V50.3394H50.3413V48.6035Z" fill="white"/>
<path d="M60.7554 48.6035H59.0195V50.3394H60.7554V48.6035Z" fill="white"/>
<path d="M69.4351 48.6035H67.6992V50.3394H69.4351V48.6035Z" fill="white"/>
<path d="M71.1714 48.6035H69.4355V50.3394H71.1714V48.6035Z" fill="white"/>
<path d="M74.6421 48.6035H72.9062V50.3394H74.6421V48.6035Z" fill="white"/>
<path d="M76.3784 48.6035H74.6426V50.3394H76.3784V48.6035Z" fill="white"/>
<path d="M78.1148 48.6035H76.3789V50.3394H78.1148V48.6035Z" fill="white"/>
<path d="M79.8491 48.6035H78.1133V50.3394H79.8491V48.6035Z" fill="white"/>
<path d="M81.5855 48.6035H79.8496V50.3394H81.5855V48.6035Z" fill="white"/>
<path d="M85.0581 48.6035H83.3223V50.3394H85.0581V48.6035Z" fill="white"/>
<path d="M88.5288 48.6035H86.793V50.3394H88.5288V48.6035Z" fill="white"/>
<path d="M6.94483 50.3398H5.20898V52.0757H6.94483V50.3398Z" fill="white"/>
<path d="M13.8882 50.3398H12.1523V52.0757H13.8882V50.3398Z" fill="white"/>
<path d="M19.0952 50.3398H17.3594V52.0757H19.0952V50.3398Z" fill="white"/>
<path d="M20.8316 50.3398H19.0957V52.0757H20.8316V50.3398Z" fill="white"/>
<path d="M27.7749 50.3398H26.0391V52.0757H27.7749V50.3398Z" fill="white"/>
<path d="M29.5112 50.3398H27.7754V52.0757H29.5112V50.3398Z" fill="white"/>
<path d="M38.189 50.3398H36.4531V52.0757H38.189V50.3398Z" fill="white"/>
<path d="M39.9253 50.3398H38.1895V52.0757H39.9253V50.3398Z" fill="white"/>
<path d="M41.6616 50.3398H39.9258V52.0757H41.6616V50.3398Z" fill="white"/>
<path d="M43.398 50.3398H41.6621V52.0757H43.398V50.3398Z" fill="white"/>
<path d="M45.1323 50.3398H43.3965V52.0757H45.1323V50.3398Z" fill="white"/>
<path d="M46.8687 50.3398H45.1328V52.0757H46.8687V50.3398Z" fill="white"/>
<path d="M48.605 50.3398H46.8691V52.0757H48.605V50.3398Z" fill="white"/>
<path d="M52.0757 50.3398H50.3398V52.0757H52.0757V50.3398Z" fill="white"/>
<path d="M53.812 50.3398H52.0762V52.0757H53.812V50.3398Z" fill="white"/>
<path d="M55.5483 50.3398H53.8125V52.0757H55.5483V50.3398Z" fill="white"/>
<path d="M57.2847 50.3398H55.5488V52.0757H57.2847V50.3398Z" fill="white"/>
<path d="M60.7554 50.3398H59.0195V52.0757H60.7554V50.3398Z" fill="white"/>
<path d="M62.4917 50.3398H60.7559V52.0757H62.4917V50.3398Z" fill="white"/>
<path d="M64.228 50.3398H62.4922V52.0757H64.228V50.3398Z" fill="white"/>
<path d="M71.1714 50.3398H69.4355V52.0757H71.1714V50.3398Z" fill="white"/>
<path d="M74.6421 50.3398H72.9062V52.0757H74.6421V50.3398Z" fill="white"/>
<path d="M76.3784 50.3398H74.6426V52.0757H76.3784V50.3398Z" fill="white"/>
<path d="M88.5288 50.3398H86.793V52.0757H88.5288V50.3398Z" fill="white"/>
<path d="M6.94483 52.0757H5.20898V53.8115H6.94483V52.0757Z" fill="white"/>
<path d="M8.68116 52.0757H6.94531V53.8115H8.68116V52.0757Z" fill="white"/>
<path d="M10.4155 52.0757H8.67969V53.8115H10.4155V52.0757Z" fill="white"/>
<path d="M15.6245 52.0757H13.8887V53.8115H15.6245V52.0757Z" fill="white"/>
<path d="M19.0952 52.0757H17.3594V53.8115H19.0952V52.0757Z" fill="white"/>
<path d="M20.8316 52.0757H19.0957V53.8115H20.8316V52.0757Z" fill="white"/>
<path d="M22.5679 52.0757H20.832V53.8115H22.5679V52.0757Z" fill="white"/>
<path d="M24.3023 52.0757H22.5664V53.8115H24.3023V52.0757Z" fill="white"/>
<path d="M27.7749 52.0757H26.0391V53.8115H27.7749V52.0757Z" fill="white"/>
<path d="M34.7183 52.0757H32.9824V53.8115H34.7183V52.0757Z" fill="white"/>
<path d="M41.6616 52.0757H39.9258V53.8115H41.6616V52.0757Z" fill="white"/>
<path d="M43.398 52.0757H41.6621V53.8115H43.398V52.0757Z" fill="white"/>
<path d="M45.1323 52.0757H43.3965V53.8115H45.1323V52.0757Z" fill="white"/>
<path d="M46.8687 52.0757H45.1328V53.8115H46.8687V52.0757Z" fill="white"/>
<path d="M48.605 52.0757H46.8691V53.8115H48.605V52.0757Z" fill="white"/>
<path d="M55.5483 52.0757H53.8125V53.8115H55.5483V52.0757Z" fill="white"/>
<path d="M59.0191 52.0757H57.2832V53.8115H59.0191V52.0757Z" fill="white"/>
<path d="M65.9624 52.0757H64.2266V53.8115H65.9624V52.0757Z" fill="white"/>
<path d="M67.6987 52.0757H65.9629V53.8115H67.6987V52.0757Z" fill="white"/>
<path d="M69.4351 52.0757H67.6992V53.8115H69.4351V52.0757Z" fill="white"/>
<path d="M72.9058 52.0757H71.1699V53.8115H72.9058V52.0757Z" fill="white"/>
<path d="M74.6421 52.0757H72.9062V53.8115H74.6421V52.0757Z" fill="white"/>
<path d="M76.3784 52.0757H74.6426V53.8115H76.3784V52.0757Z" fill="white"/>
<path d="M79.8491 52.0757H78.1133V53.8115H79.8491V52.0757Z" fill="white"/>
<path d="M81.5855 52.0757H79.8496V53.8115H81.5855V52.0757Z" fill="white"/>
<path d="M85.0581 52.0757H83.3223V53.8115H85.0581V52.0757Z" fill="white"/>
<path d="M86.7925 52.0757H85.0566V53.8115H86.7925V52.0757Z" fill="white"/>
<path d="M88.5288 52.0757H86.793V53.8115H88.5288V52.0757Z" fill="white"/>
<path d="M8.68116 53.8115H6.94531V55.5474H8.68116V53.8115Z" fill="white"/>
<path d="M12.1519 53.8115H10.416V55.5474H12.1519V53.8115Z" fill="white"/>
<path d="M19.0952 53.8115H17.3594V55.5474H19.0952V53.8115Z" fill="white"/>
<path d="M22.5679 53.8115H20.832V55.5474H22.5679V53.8115Z" fill="white"/>
<path d="M24.3023 53.8115H22.5664V55.5474H24.3023V53.8115Z" fill="white"/>
<path d="M26.0386 53.8115H24.3027V55.5474H26.0386V53.8115Z" fill="white"/>
<path d="M36.4546 53.8115H34.7188V55.5474H36.4546V53.8115Z" fill="white"/>
<path d="M38.189 53.8115H36.4531V55.5474H38.189V53.8115Z" fill="white"/>
<path d="M39.9253 53.8115H38.1895V55.5474H39.9253V53.8115Z" fill="white"/>
<path d="M41.6616 53.8115H39.9258V55.5474H41.6616V53.8115Z" fill="white"/>
<path d="M43.398 53.8115H41.6621V55.5474H43.398V53.8115Z" fill="white"/>
<path d="M46.8687 53.8115H45.1328V55.5474H46.8687V53.8115Z" fill="white"/>
<path d="M48.605 53.8115H46.8691V55.5474H48.605V53.8115Z" fill="white"/>
<path d="M52.0757 53.8115H50.3398V55.5474H52.0757V53.8115Z" fill="white"/>
<path d="M53.812 53.8115H52.0762V55.5474H53.812V53.8115Z" fill="white"/>
<path d="M57.2847 53.8115H55.5488V55.5474H57.2847V53.8115Z" fill="white"/>
<path d="M60.7554 53.8115H59.0195V55.5474H60.7554V53.8115Z" fill="white"/>
<path d="M65.9624 53.8115H64.2266V55.5474H65.9624V53.8115Z" fill="white"/>
<path d="M69.4351 53.8115H67.6992V55.5474H69.4351V53.8115Z" fill="white"/>
<path d="M72.9058 53.8115H71.1699V55.5474H72.9058V53.8115Z" fill="white"/>
<path d="M74.6421 53.8115H72.9062V55.5474H74.6421V53.8115Z" fill="white"/>
<path d="M76.3784 53.8115H74.6426V55.5474H76.3784V53.8115Z" fill="white"/>
<path d="M79.8491 53.8115H78.1133V55.5474H79.8491V53.8115Z" fill="white"/>
<path d="M8.68116 55.5474H6.94531V57.2832H8.68116V55.5474Z" fill="white"/>
<path d="M10.4155 55.5474H8.67969V57.2832H10.4155V55.5474Z" fill="white"/>
<path d="M13.8882 55.5474H12.1523V57.2832H13.8882V55.5474Z" fill="white"/>
<path d="M15.6245 55.5474H13.8887V57.2832H15.6245V55.5474Z" fill="white"/>
<path d="M22.5679 55.5474H20.832V57.2832H22.5679V55.5474Z" fill="white"/>
<path d="M26.0386 55.5474H24.3027V57.2832H26.0386V55.5474Z" fill="white"/>
<path d="M27.7749 55.5474H26.0391V57.2832H27.7749V55.5474Z" fill="white"/>
<path d="M32.9819 55.5474H31.2461V57.2832H32.9819V55.5474Z" fill="white"/>
<path d="M39.9253 55.5474H38.1895V57.2832H39.9253V55.5474Z" fill="white"/>
<path d="M45.1323 55.5474H43.3965V57.2832H45.1323V55.5474Z" fill="white"/>
<path d="M46.8687 55.5474H45.1328V57.2832H46.8687V55.5474Z" fill="white"/>
<path d="M48.605 55.5474H46.8691V57.2832H48.605V55.5474Z" fill="white"/>
<path d="M52.0757 55.5474H50.3398V57.2832H52.0757V55.5474Z" fill="white"/>
<path d="M55.5483 55.5474H53.8125V57.2832H55.5483V55.5474Z" fill="white"/>
<path d="M59.0191 55.5474H57.2832V57.2832H59.0191V55.5474Z" fill="white"/>
<path d="M60.7554 55.5474H59.0195V57.2832H60.7554V55.5474Z" fill="white"/>
<path d="M62.4917 55.5474H60.7559V57.2832H62.4917V55.5474Z" fill="white"/>
<path d="M64.228 55.5474H62.4922V57.2832H64.228V55.5474Z" fill="white"/>
<path d="M65.9624 55.5474H64.2266V57.2832H65.9624V55.5474Z" fill="white"/>
<path d="M67.6987 55.5474H65.9629V57.2832H67.6987V55.5474Z" fill="white"/>
<path d="M71.1714 55.5474H69.4355V57.2832H71.1714V55.5474Z" fill="white"/>
<path d="M76.3784 55.5474H74.6426V57.2832H76.3784V55.5474Z" fill="white"/>
<path d="M78.1148 55.5474H76.3789V57.2832H78.1148V55.5474Z" fill="white"/>
<path d="M83.3218 55.5474H81.5859V57.2832H83.3218V55.5474Z" fill="white"/>
<path d="M85.0581 55.5474H83.3223V57.2832H85.0581V55.5474Z" fill="white"/>
<path d="M86.7925 55.5474H85.0566V57.2832H86.7925V55.5474Z" fill="white"/>
<path d="M88.5288 55.5474H86.793V57.2832H88.5288V55.5474Z" fill="white"/>
<path d="M6.94483 57.2832H5.20898V59.0191H6.94483V57.2832Z" fill="white"/>
<path d="M8.68116 57.2832H6.94531V59.0191H8.68116V57.2832Z" fill="white"/>
<path d="M19.0952 57.2832H17.3594V59.0191H19.0952V57.2832Z" fill="white"/>
<path d="M22.5679 57.2832H20.832V59.0191H22.5679V57.2832Z" fill="white"/>
<path d="M24.3023 57.2832H22.5664V59.0191H24.3023V57.2832Z" fill="white"/>
<path d="M27.7749 57.2832H26.0391V59.0191H27.7749V57.2832Z" fill="white"/>
<path d="M29.5112 57.2832H27.7754V59.0191H29.5112V57.2832Z" fill="white"/>
<path d="M34.7183 57.2832H32.9824V59.0191H34.7183V57.2832Z" fill="white"/>
<path d="M36.4546 57.2832H34.7188V59.0191H36.4546V57.2832Z" fill="white"/>
<path d="M38.189 57.2832H36.4531V59.0191H38.189V57.2832Z" fill="white"/>
<path d="M39.9253 57.2832H38.1895V59.0191H39.9253V57.2832Z" fill="white"/>
<path d="M43.398 57.2832H41.6621V59.0191H43.398V57.2832Z" fill="white"/>
<path d="M46.8687 57.2832H45.1328V59.0191H46.8687V57.2832Z" fill="white"/>
<path d="M50.3413 57.2832H48.6055V59.0191H50.3413V57.2832Z" fill="white"/>
<path d="M52.0757 57.2832H50.3398V59.0191H52.0757V57.2832Z" fill="white"/>
<path d="M55.5483 57.2832H53.8125V59.0191H55.5483V57.2832Z" fill="white"/>
<path d="M60.7554 57.2832H59.0195V59.0191H60.7554V57.2832Z" fill="white"/>
<path d="M65.9624 57.2832H64.2266V59.0191H65.9624V57.2832Z" fill="white"/>
<path d="M69.4351 57.2832H67.6992V59.0191H69.4351V57.2832Z" fill="white"/>
<path d="M74.6421 57.2832H72.9062V59.0191H74.6421V57.2832Z" fill="white"/>
<path d="M79.8491 57.2832H78.1133V59.0191H79.8491V57.2832Z" fill="white"/>
<path d="M86.7925 57.2832H85.0566V59.0191H86.7925V57.2832Z" fill="white"/>
<path d="M5.20851 59.019H3.47266V60.7549H5.20851V59.019Z" fill="white"/>
<path d="M12.1519 59.019H10.416V60.7549H12.1519V59.019Z" fill="white"/>
<path d="M15.6245 59.019H13.8887V60.7549H15.6245V59.019Z" fill="white"/>
<path d="M17.3589 59.019H15.623V60.7549H17.3589V59.019Z" fill="white"/>
<path d="M19.0952 59.019H17.3594V60.7549H19.0952V59.019Z" fill="white"/>
<path d="M20.8316 59.019H19.0957V60.7549H20.8316V59.019Z" fill="white"/>
<path d="M22.5679 59.019H20.832V60.7549H22.5679V59.019Z" fill="white"/>
<path d="M24.3023 59.019H22.5664V60.7549H24.3023V59.019Z" fill="white"/>
<path d="M27.7749 59.019H26.0391V60.7549H27.7749V59.019Z" fill="white"/>
<path d="M31.2456 59.019H29.5098V60.7549H31.2456V59.019Z" fill="white"/>
<path d="M34.7183 59.019H32.9824V60.7549H34.7183V59.019Z" fill="white"/>
<path d="M38.189 59.019H36.4531V60.7549H38.189V59.019Z" fill="white"/>
<path d="M39.9253 59.019H38.1895V60.7549H39.9253V59.019Z" fill="white"/>
<path d="M43.398 59.019H41.6621V60.7549H43.398V59.019Z" fill="white"/>
<path d="M45.1323 59.019H43.3965V60.7549H45.1323V59.019Z" fill="white"/>
<path d="M48.605 59.019H46.8691V60.7549H48.605V59.019Z" fill="white"/>
<path d="M53.812 59.019H52.0762V60.7549H53.812V59.019Z" fill="white"/>
<path d="M59.0191 59.019H57.2832V60.7549H59.0191V59.019Z" fill="white"/>
<path d="M62.4917 59.019H60.7559V60.7549H62.4917V59.019Z" fill="white"/>
<path d="M65.9624 59.019H64.2266V60.7549H65.9624V59.019Z" fill="white"/>
<path d="M67.6987 59.019H65.9629V60.7549H67.6987V59.019Z" fill="white"/>
<path d="M69.4351 59.019H67.6992V60.7549H69.4351V59.019Z" fill="white"/>
<path d="M72.9058 59.019H71.1699V60.7549H72.9058V59.019Z" fill="white"/>
<path d="M76.3784 59.019H74.6426V60.7549H76.3784V59.019Z" fill="white"/>
<path d="M79.8491 59.019H78.1133V60.7549H79.8491V59.019Z" fill="white"/>
<path d="M81.5855 59.019H79.8496V60.7549H81.5855V59.019Z" fill="white"/>
<path d="M85.0581 59.019H83.3223V60.7549H85.0581V59.019Z" fill="white"/>
<path d="M86.7925 59.019H85.0566V60.7549H86.7925V59.019Z" fill="white"/>
<path d="M88.5288 59.019H86.793V60.7549H88.5288V59.019Z" fill="white"/>
<path d="M8.68116 60.7549H6.94531V62.4907H8.68116V60.7549Z" fill="white"/>
<path d="M17.3589 60.7549H15.623V62.4907H17.3589V60.7549Z" fill="white"/>
<path d="M20.8316 60.7549H19.0957V62.4907H20.8316V60.7549Z" fill="white"/>
<path d="M22.5679 60.7549H20.832V62.4907H22.5679V60.7549Z" fill="white"/>
<path d="M24.3023 60.7549H22.5664V62.4907H24.3023V60.7549Z" fill="white"/>
<path d="M26.0386 60.7549H24.3027V62.4907H26.0386V60.7549Z" fill="white"/>
<path d="M31.2456 60.7549H29.5098V62.4907H31.2456V60.7549Z" fill="white"/>
<path d="M46.8687 60.7549H45.1328V62.4907H46.8687V60.7549Z" fill="white"/>
<path d="M48.605 60.7549H46.8691V62.4907H48.605V60.7549Z" fill="white"/>
<path d="M52.0757 60.7549H50.3398V62.4907H52.0757V60.7549Z" fill="white"/>
<path d="M53.812 60.7549H52.0762V62.4907H53.812V60.7549Z" fill="white"/>
<path d="M55.5483 60.7549H53.8125V62.4907H55.5483V60.7549Z" fill="white"/>
<path d="M59.0191 60.7549H57.2832V62.4907H59.0191V60.7549Z" fill="white"/>
<path d="M69.4351 60.7549H67.6992V62.4907H69.4351V60.7549Z" fill="white"/>
<path d="M72.9058 60.7549H71.1699V62.4907H72.9058V60.7549Z" fill="white"/>
<path d="M76.3784 60.7549H74.6426V62.4907H76.3784V60.7549Z" fill="white"/>
<path d="M79.8491 60.7549H78.1133V62.4907H79.8491V60.7549Z" fill="white"/>
<path d="M86.7925 60.7549H85.0566V62.4907H86.7925V60.7549Z" fill="white"/>
<path d="M5.20851 62.4907H3.47266V64.2266H5.20851V62.4907Z" fill="white"/>
<path d="M10.4155 62.4907H8.67969V64.2266H10.4155V62.4907Z" fill="white"/>
<path d="M12.1519 62.4907H10.416V64.2266H12.1519V62.4907Z" fill="white"/>
<path d="M13.8882 62.4907H12.1523V64.2266H13.8882V62.4907Z" fill="white"/>
<path d="M15.6245 62.4907H13.8887V64.2266H15.6245V62.4907Z" fill="white"/>
<path d="M17.3589 62.4907H15.623V64.2266H17.3589V62.4907Z" fill="white"/>
<path d="M24.3023 62.4907H22.5664V64.2266H24.3023V62.4907Z" fill="white"/>
<path d="M27.7749 62.4907H26.0391V64.2266H27.7749V62.4907Z" fill="white"/>
<path d="M29.5112 62.4907H27.7754V64.2266H29.5112V62.4907Z" fill="white"/>
<path d="M31.2456 62.4907H29.5098V64.2266H31.2456V62.4907Z" fill="white"/>
<path d="M39.9253 62.4907H38.1895V64.2266H39.9253V62.4907Z" fill="white"/>
<path d="M41.6616 62.4907H39.9258V64.2266H41.6616V62.4907Z" fill="white"/>
<path d="M43.398 62.4907H41.6621V64.2266H43.398V62.4907Z" fill="white"/>
<path d="M45.1323 62.4907H43.3965V64.2266H45.1323V62.4907Z" fill="white"/>
<path d="M46.8687 62.4907H45.1328V64.2266H46.8687V62.4907Z" fill="white"/>
<path d="M53.812 62.4907H52.0762V64.2266H53.812V62.4907Z" fill="white"/>
<path d="M57.2847 62.4907H55.5488V64.2266H57.2847V62.4907Z" fill="white"/>
<path d="M59.0191 62.4907H57.2832V64.2266H59.0191V62.4907Z" fill="white"/>
<path d="M64.228 62.4907H62.4922V64.2266H64.228V62.4907Z" fill="white"/>
<path d="M65.9624 62.4907H64.2266V64.2266H65.9624V62.4907Z" fill="white"/>
<path d="M67.6987 62.4907H65.9629V64.2266H67.6987V62.4907Z" fill="white"/>
<path d="M71.1714 62.4907H69.4355V64.2266H71.1714V62.4907Z" fill="white"/>
<path d="M78.1148 62.4907H76.3789V64.2266H78.1148V62.4907Z" fill="white"/>
<path d="M79.8491 62.4907H78.1133V64.2266H79.8491V62.4907Z" fill="white"/>
<path d="M81.5855 62.4907H79.8496V64.2266H81.5855V62.4907Z" fill="white"/>
<path d="M83.3218 62.4907H81.5859V64.2266H83.3218V62.4907Z" fill="white"/>
<path d="M88.5288 62.4907H86.793V64.2266H88.5288V62.4907Z" fill="white"/>
<path d="M6.94483 64.2266H5.20898V65.9624H6.94483V64.2266Z" fill="white"/>
<path d="M10.4155 64.2266H8.67969V65.9624H10.4155V64.2266Z" fill="white"/>
<path d="M17.3589 64.2266H15.623V65.9624H17.3589V64.2266Z" fill="white"/>
<path d="M19.0952 64.2266H17.3594V65.9624H19.0952V64.2266Z" fill="white"/>
<path d="M20.8316 64.2266H19.0957V65.9624H20.8316V64.2266Z" fill="white"/>
<path d="M27.7749 64.2266H26.0391V65.9624H27.7749V64.2266Z" fill="white"/>
<path d="M29.5112 64.2266H27.7754V65.9624H29.5112V64.2266Z" fill="white"/>
<path d="M31.2456 64.2266H29.5098V65.9624H31.2456V64.2266Z" fill="white"/>
<path d="M32.9819 64.2266H31.2461V65.9624H32.9819V64.2266Z" fill="white"/>
<path d="M34.7183 64.2266H32.9824V65.9624H34.7183V64.2266Z" fill="white"/>
<path d="M38.189 64.2266H36.4531V65.9624H38.189V64.2266Z" fill="white"/>
<path d="M48.605 64.2266H46.8691V65.9624H48.605V64.2266Z" fill="white"/>
<path d="M50.3413 64.2266H48.6055V65.9624H50.3413V64.2266Z" fill="white"/>
<path d="M53.812 64.2266H52.0762V65.9624H53.812V64.2266Z" fill="white"/>
<path d="M55.5483 64.2266H53.8125V65.9624H55.5483V64.2266Z" fill="white"/>
<path d="M59.0191 64.2266H57.2832V65.9624H59.0191V64.2266Z" fill="white"/>
<path d="M60.7554 64.2266H59.0195V65.9624H60.7554V64.2266Z" fill="white"/>
<path d="M64.228 64.2266H62.4922V65.9624H64.228V64.2266Z" fill="white"/>
<path d="M72.9058 64.2266H71.1699V65.9624H72.9058V64.2266Z" fill="white"/>
<path d="M74.6421 64.2266H72.9062V65.9624H74.6421V64.2266Z" fill="white"/>
<path d="M86.7925 64.2266H85.0566V65.9624H86.7925V64.2266Z" fill="white"/>
<path d="M88.5288 64.2266H86.793V65.9624H88.5288V64.2266Z" fill="white"/>
<path d="M6.94483 65.9624H5.20898V67.6983H6.94483V65.9624Z" fill="white"/>
<path d="M8.68116 65.9624H6.94531V67.6983H8.68116V65.9624Z" fill="white"/>
<path d="M12.1519 65.9624H10.416V67.6983H12.1519V65.9624Z" fill="white"/>
<path d="M13.8882 65.9624H12.1523V67.6983H13.8882V65.9624Z" fill="white"/>
<path d="M15.6245 65.9624H13.8887V67.6983H15.6245V65.9624Z" fill="white"/>
<path d="M17.3589 65.9624H15.623V67.6983H17.3589V65.9624Z" fill="white"/>
<path d="M22.5679 65.9624H20.832V67.6983H22.5679V65.9624Z" fill="white"/>
<path d="M26.0386 65.9624H24.3027V67.6983H26.0386V65.9624Z" fill="white"/>
<path d="M31.2456 65.9624H29.5098V67.6983H31.2456V65.9624Z" fill="white"/>
<path d="M34.7183 65.9624H32.9824V67.6983H34.7183V65.9624Z" fill="white"/>
<path d="M39.9253 65.9624H38.1895V67.6983H39.9253V65.9624Z" fill="white"/>
<path d="M41.6616 65.9624H39.9258V67.6983H41.6616V65.9624Z" fill="white"/>
<path d="M52.0757 65.9624H50.3398V67.6983H52.0757V65.9624Z" fill="white"/>
<path d="M55.5483 65.9624H53.8125V67.6983H55.5483V65.9624Z" fill="white"/>
<path d="M62.4917 65.9624H60.7559V67.6983H62.4917V65.9624Z" fill="white"/>
<path d="M67.6987 65.9624H65.9629V67.6983H67.6987V65.9624Z" fill="white"/>
<path d="M69.4351 65.9624H67.6992V67.6983H69.4351V65.9624Z" fill="white"/>
<path d="M71.1714 65.9624H69.4355V67.6983H71.1714V65.9624Z" fill="white"/>
<path d="M72.9058 65.9624H71.1699V67.6983H72.9058V65.9624Z" fill="white"/>
<path d="M78.1148 65.9624H76.3789V67.6983H78.1148V65.9624Z" fill="white"/>
<path d="M85.0581 65.9624H83.3223V67.6983H85.0581V65.9624Z" fill="white"/>
<path d="M5.20851 67.6982H3.47266V69.4341H5.20851V67.6982Z" fill="white"/>
<path d="M8.68116 67.6982H6.94531V69.4341H8.68116V67.6982Z" fill="white"/>
<path d="M10.4155 67.6982H8.67969V69.4341H10.4155V67.6982Z" fill="white"/>
<path d="M13.8882 67.6982H12.1523V69.4341H13.8882V67.6982Z" fill="white"/>
<path d="M20.8316 67.6982H19.0957V69.4341H20.8316V67.6982Z" fill="white"/>
<path d="M22.5679 67.6982H20.832V69.4341H22.5679V67.6982Z" fill="white"/>
<path d="M26.0386 67.6982H24.3027V69.4341H26.0386V67.6982Z" fill="white"/>
<path d="M27.7749 67.6982H26.0391V69.4341H27.7749V67.6982Z" fill="white"/>
<path d="M29.5112 67.6982H27.7754V69.4341H29.5112V67.6982Z" fill="white"/>
<path d="M31.2456 67.6982H29.5098V69.4341H31.2456V67.6982Z" fill="white"/>
<path d="M34.7183 67.6982H32.9824V69.4341H34.7183V67.6982Z" fill="white"/>
<path d="M38.189 67.6982H36.4531V69.4341H38.189V67.6982Z" fill="white"/>
<path d="M41.6616 67.6982H39.9258V69.4341H41.6616V67.6982Z" fill="white"/>
<path d="M43.398 67.6982H41.6621V69.4341H43.398V67.6982Z" fill="white"/>
<path d="M45.1323 67.6982H43.3965V69.4341H45.1323V67.6982Z" fill="white"/>
<path d="M46.8687 67.6982H45.1328V69.4341H46.8687V67.6982Z" fill="white"/>
<path d="M50.3413 67.6982H48.6055V69.4341H50.3413V67.6982Z" fill="white"/>
<path d="M53.812 67.6982H52.0762V69.4341H53.812V67.6982Z" fill="white"/>
<path d="M55.5483 67.6982H53.8125V69.4341H55.5483V67.6982Z" fill="white"/>
<path d="M57.2847 67.6982H55.5488V69.4341H57.2847V67.6982Z" fill="white"/>
<path d="M59.0191 67.6982H57.2832V69.4341H59.0191V67.6982Z" fill="white"/>
<path d="M65.9624 67.6982H64.2266V69.4341H65.9624V67.6982Z" fill="white"/>
<path d="M72.9058 67.6982H71.1699V69.4341H72.9058V67.6982Z" fill="white"/>
<path d="M79.8491 67.6982H78.1133V69.4341H79.8491V67.6982Z" fill="white"/>
<path d="M6.94483 69.4341H5.20898V71.1699H6.94483V69.4341Z" fill="white"/>
<path d="M13.8882 69.4341H12.1523V71.1699H13.8882V69.4341Z" fill="white"/>
<path d="M15.6245 69.4341H13.8887V71.1699H15.6245V69.4341Z" fill="white"/>
<path d="M17.3589 69.4341H15.623V71.1699H17.3589V69.4341Z" fill="white"/>
<path d="M19.0952 69.4341H17.3594V71.1699H19.0952V69.4341Z" fill="white"/>
<path d="M20.8316 69.4341H19.0957V71.1699H20.8316V69.4341Z" fill="white"/>
<path d="M22.5679 69.4341H20.832V71.1699H22.5679V69.4341Z" fill="white"/>
<path d="M24.3023 69.4341H22.5664V71.1699H24.3023V69.4341Z" fill="white"/>
<path d="M26.0386 69.4341H24.3027V71.1699H26.0386V69.4341Z" fill="white"/>
<path d="M34.7183 69.4341H32.9824V71.1699H34.7183V69.4341Z" fill="white"/>
<path d="M36.4546 69.4341H34.7188V71.1699H36.4546V69.4341Z" fill="white"/>
<path d="M38.189 69.4341H36.4531V71.1699H38.189V69.4341Z" fill="white"/>
<path d="M39.9253 69.4341H38.1895V71.1699H39.9253V69.4341Z" fill="white"/>
<path d="M43.398 69.4341H41.6621V71.1699H43.398V69.4341Z" fill="white"/>
<path d="M46.8687 69.4341H45.1328V71.1699H46.8687V69.4341Z" fill="white"/>
<path d="M55.5483 69.4341H53.8125V71.1699H55.5483V69.4341Z" fill="white"/>
<path d="M59.0191 69.4341H57.2832V71.1699H59.0191V69.4341Z" fill="white"/>
<path d="M60.7554 69.4341H59.0195V71.1699H60.7554V69.4341Z" fill="white"/>
<path d="M62.4917 69.4341H60.7559V71.1699H62.4917V69.4341Z" fill="white"/>
<path d="M64.228 69.4341H62.4922V71.1699H64.228V69.4341Z" fill="white"/>
<path d="M65.9624 69.4341H64.2266V71.1699H65.9624V69.4341Z" fill="white"/>
<path d="M67.6987 69.4341H65.9629V71.1699H67.6987V69.4341Z" fill="white"/>
<path d="M71.1714 69.4341H69.4355V71.1699H71.1714V69.4341Z" fill="white"/>
<path d="M78.1148 69.4341H76.3789V71.1699H78.1148V69.4341Z" fill="white"/>
<path d="M79.8491 69.4341H78.1133V71.1699H79.8491V69.4341Z" fill="white"/>
<path d="M86.7925 69.4341H85.0566V71.1699H86.7925V69.4341Z" fill="white"/>
<path d="M88.5288 69.4341H86.793V71.1699H88.5288V69.4341Z" fill="white"/>
<path d="M6.94483 71.1699H5.20898V72.9058H6.94483V71.1699Z" fill="white"/>
<path d="M8.68116 71.1699H6.94531V72.9058H8.68116V71.1699Z" fill="white"/>
<path d="M10.4155 71.1699H8.67969V72.9058H10.4155V71.1699Z" fill="white"/>
<path d="M24.3023 71.1699H22.5664V72.9058H24.3023V71.1699Z" fill="white"/>
<path d="M26.0386 71.1699H24.3027V72.9058H26.0386V71.1699Z" fill="white"/>
<path d="M29.5112 71.1699H27.7754V72.9058H29.5112V71.1699Z" fill="white"/>
<path d="M32.9819 71.1699H31.2461V72.9058H32.9819V71.1699Z" fill="white"/>
<path d="M34.7183 71.1699H32.9824V72.9058H34.7183V71.1699Z" fill="white"/>
<path d="M38.189 71.1699H36.4531V72.9058H38.189V71.1699Z" fill="white"/>
<path d="M39.9253 71.1699H38.1895V72.9058H39.9253V71.1699Z" fill="white"/>
<path d="M41.6616 71.1699H39.9258V72.9058H41.6616V71.1699Z" fill="white"/>
<path d="M46.8687 71.1699H45.1328V72.9058H46.8687V71.1699Z" fill="white"/>
<path d="M48.605 71.1699H46.8691V72.9058H48.605V71.1699Z" fill="white"/>
<path d="M50.3413 71.1699H48.6055V72.9058H50.3413V71.1699Z" fill="white"/>
<path d="M60.7554 71.1699H59.0195V72.9058H60.7554V71.1699Z" fill="white"/>
<path d="M65.9624 71.1699H64.2266V72.9058H65.9624V71.1699Z" fill="white"/>
<path d="M69.4351 71.1699H67.6992V72.9058H69.4351V71.1699Z" fill="white"/>
<path d="M74.6421 71.1699H72.9062V72.9058H74.6421V71.1699Z" fill="white"/>
<path d="M76.3784 71.1699H74.6426V72.9058H76.3784V71.1699Z" fill="white"/>
<path d="M81.5855 71.1699H79.8496V72.9058H81.5855V71.1699Z" fill="white"/>
<path d="M88.5288 71.1699H86.793V72.9058H88.5288V71.1699Z" fill="white"/>
<path d="M5.20851 72.9058H3.47266V74.6416H5.20851V72.9058Z" fill="white"/>
<path d="M6.94483 72.9058H5.20898V74.6416H6.94483V72.9058Z" fill="white"/>
<path d="M8.68116 72.9058H6.94531V74.6416H8.68116V72.9058Z" fill="white"/>
<path d="M15.6245 72.9058H13.8887V74.6416H15.6245V72.9058Z" fill="white"/>
<path d="M20.8316 72.9058H19.0957V74.6416H20.8316V72.9058Z" fill="white"/>
<path d="M26.0386 72.9058H24.3027V74.6416H26.0386V72.9058Z" fill="white"/>
<path d="M27.7749 72.9058H26.0391V74.6416H27.7749V72.9058Z" fill="white"/>
<path d="M39.9253 72.9058H38.1895V74.6416H39.9253V72.9058Z" fill="white"/>
<path d="M41.6616 72.9058H39.9258V74.6416H41.6616V72.9058Z" fill="white"/>
<path d="M43.398 72.9058H41.6621V74.6416H43.398V72.9058Z" fill="white"/>
<path d="M45.1323 72.9058H43.3965V74.6416H45.1323V72.9058Z" fill="white"/>
<path d="M46.8687 72.9058H45.1328V74.6416H46.8687V72.9058Z" fill="white"/>
<path d="M48.605 72.9058H46.8691V74.6416H48.605V72.9058Z" fill="white"/>
<path d="M50.3413 72.9058H48.6055V74.6416H50.3413V72.9058Z" fill="white"/>
<path d="M55.5483 72.9058H53.8125V74.6416H55.5483V72.9058Z" fill="white"/>
<path d="M59.0191 72.9058H57.2832V74.6416H59.0191V72.9058Z" fill="white"/>
<path d="M62.4917 72.9058H60.7559V74.6416H62.4917V72.9058Z" fill="white"/>
<path d="M67.6987 72.9058H65.9629V74.6416H67.6987V72.9058Z" fill="white"/>
<path d="M69.4351 72.9058H67.6992V74.6416H69.4351V72.9058Z" fill="white"/>
<path d="M72.9058 72.9058H71.1699V74.6416H72.9058V72.9058Z" fill="white"/>
<path d="M74.6421 72.9058H72.9062V74.6416H74.6421V72.9058Z" fill="white"/>
<path d="M76.3784 72.9058H74.6426V74.6416H76.3784V72.9058Z" fill="white"/>
<path d="M78.1148 72.9058H76.3789V74.6416H78.1148V72.9058Z" fill="white"/>
<path d="M79.8491 72.9058H78.1133V74.6416H79.8491V72.9058Z" fill="white"/>
<path d="M81.5855 72.9058H79.8496V74.6416H81.5855V72.9058Z" fill="white"/>
<path d="M83.3218 72.9058H81.5859V74.6416H83.3218V72.9058Z" fill="white"/>
<path d="M86.7925 72.9058H85.0566V74.6416H86.7925V72.9058Z" fill="white"/>
<path d="M88.5288 72.9058H86.793V74.6416H88.5288V72.9058Z" fill="white"/>
<path d="M19.0952 74.6416H17.3594V76.3775H19.0952V74.6416Z" fill="white"/>
<path d="M20.8316 74.6416H19.0957V76.3775H20.8316V74.6416Z" fill="white"/>
<path d="M22.5679 74.6416H20.832V76.3775H22.5679V74.6416Z" fill="white"/>
<path d="M26.0386 74.6416H24.3027V76.3775H26.0386V74.6416Z" fill="white"/>
<path d="M27.7749 74.6416H26.0391V76.3775H27.7749V74.6416Z" fill="white"/>
<path d="M31.2456 74.6416H29.5098V76.3775H31.2456V74.6416Z" fill="white"/>
<path d="M32.9819 74.6416H31.2461V76.3775H32.9819V74.6416Z" fill="white"/>
<path d="M34.7183 74.6416H32.9824V76.3775H34.7183V74.6416Z" fill="white"/>
<path d="M38.189 74.6416H36.4531V76.3775H38.189V74.6416Z" fill="white"/>
<path d="M41.6616 74.6416H39.9258V76.3775H41.6616V74.6416Z" fill="white"/>
<path d="M43.398 74.6416H41.6621V76.3775H43.398V74.6416Z" fill="white"/>
<path d="M50.3413 74.6416H48.6055V76.3775H50.3413V74.6416Z" fill="white"/>
<path d="M52.0757 74.6416H50.3398V76.3775H52.0757V74.6416Z" fill="white"/>
<path d="M57.2847 74.6416H55.5488V76.3775H57.2847V74.6416Z" fill="white"/>
<path d="M60.7554 74.6416H59.0195V76.3775H60.7554V74.6416Z" fill="white"/>
<path d="M67.6987 74.6416H65.9629V76.3775H67.6987V74.6416Z" fill="white"/>
<path d="M69.4351 74.6416H67.6992V76.3775H69.4351V74.6416Z" fill="white"/>
<path d="M74.6421 74.6416H72.9062V76.3775H74.6421V74.6416Z" fill="white"/>
<path d="M81.5855 74.6416H79.8496V76.3775H81.5855V74.6416Z" fill="white"/>
<path d="M20.8316 76.3774H19.0957V78.1133H20.8316V76.3774Z" fill="white"/>
<path d="M22.5679 76.3774H20.832V78.1133H22.5679V76.3774Z" fill="white"/>
<path d="M24.3023 76.3774H22.5664V78.1133H24.3023V76.3774Z" fill="white"/>
<path d="M27.7749 76.3774H26.0391V78.1133H27.7749V76.3774Z" fill="white"/>
<path d="M29.5112 76.3774H27.7754V78.1133H29.5112V76.3774Z" fill="white"/>
<path d="M31.2456 76.3774H29.5098V78.1133H31.2456V76.3774Z" fill="white"/>
<path d="M36.4546 76.3774H34.7188V78.1133H36.4546V76.3774Z" fill="white"/>
<path d="M38.189 76.3774H36.4531V78.1133H38.189V76.3774Z" fill="white"/>
<path d="M39.9253 76.3774H38.1895V78.1133H39.9253V76.3774Z" fill="white"/>
<path d="M43.398 76.3774H41.6621V78.1133H43.398V76.3774Z" fill="white"/>
<path d="M46.8687 76.3774H45.1328V78.1133H46.8687V76.3774Z" fill="white"/>
<path d="M50.3413 76.3774H48.6055V78.1133H50.3413V76.3774Z" fill="white"/>
<path d="M55.5483 76.3774H53.8125V78.1133H55.5483V76.3774Z" fill="white"/>
<path d="M60.7554 76.3774H59.0195V78.1133H60.7554V76.3774Z" fill="white"/>
<path d="M62.4917 76.3774H60.7559V78.1133H62.4917V76.3774Z" fill="white"/>
<path d="M64.228 76.3774H62.4922V78.1133H64.228V76.3774Z" fill="white"/>
<path d="M65.9624 76.3774H64.2266V78.1133H65.9624V76.3774Z" fill="white"/>
<path d="M74.6421 76.3774H72.9062V78.1133H74.6421V76.3774Z" fill="white"/>
<path d="M78.1148 76.3774H76.3789V78.1133H78.1148V76.3774Z" fill="white"/>
<path d="M81.5855 76.3774H79.8496V78.1133H81.5855V76.3774Z" fill="white"/>
<path d="M86.7925 76.3774H85.0566V78.1133H86.7925V76.3774Z" fill="white"/>
<path d="M88.5288 76.3774H86.793V78.1133H88.5288V76.3774Z" fill="white"/>
<path d="M19.0952 78.1133H17.3594V79.8491H19.0952V78.1133Z" fill="white"/>
<path d="M20.8316 78.1133H19.0957V79.8491H20.8316V78.1133Z" fill="white"/>
<path d="M22.5679 78.1133H20.832V79.8491H22.5679V78.1133Z" fill="white"/>
<path d="M24.3023 78.1133H22.5664V79.8491H24.3023V78.1133Z" fill="white"/>
<path d="M27.7749 78.1133H26.0391V79.8491H27.7749V78.1133Z" fill="white"/>
<path d="M29.5112 78.1133H27.7754V79.8491H29.5112V78.1133Z" fill="white"/>
<path d="M31.2456 78.1133H29.5098V79.8491H31.2456V78.1133Z" fill="white"/>
<path d="M34.7183 78.1133H32.9824V79.8491H34.7183V78.1133Z" fill="white"/>
<path d="M36.4546 78.1133H34.7188V79.8491H36.4546V78.1133Z" fill="white"/>
<path d="M38.189 78.1133H36.4531V79.8491H38.189V78.1133Z" fill="white"/>
<path d="M39.9253 78.1133H38.1895V79.8491H39.9253V78.1133Z" fill="white"/>
<path d="M41.6616 78.1133H39.9258V79.8491H41.6616V78.1133Z" fill="white"/>
<path d="M43.398 78.1133H41.6621V79.8491H43.398V78.1133Z" fill="white"/>
<path d="M50.3413 78.1133H48.6055V79.8491H50.3413V78.1133Z" fill="white"/>
<path d="M53.812 78.1133H52.0762V79.8491H53.812V78.1133Z" fill="white"/>
<path d="M57.2847 78.1133H55.5488V79.8491H57.2847V78.1133Z" fill="white"/>
<path d="M60.7554 78.1133H59.0195V79.8491H60.7554V78.1133Z" fill="white"/>
<path d="M69.4351 78.1133H67.6992V79.8491H69.4351V78.1133Z" fill="white"/>
<path d="M71.1714 78.1133H69.4355V79.8491H71.1714V78.1133Z" fill="white"/>
<path d="M74.6421 78.1133H72.9062V79.8491H74.6421V78.1133Z" fill="white"/>
<path d="M81.5855 78.1133H79.8496V79.8491H81.5855V78.1133Z" fill="white"/>
<path d="M86.7925 78.1133H85.0566V79.8491H86.7925V78.1133Z" fill="white"/>
<path d="M19.0952 79.8491H17.3594V81.585H19.0952V79.8491Z" fill="white"/>
<path d="M26.0386 79.8491H24.3027V81.585H26.0386V79.8491Z" fill="white"/>
<path d="M27.7749 79.8491H26.0391V81.585H27.7749V79.8491Z" fill="white"/>
<path d="M29.5112 79.8491H27.7754V81.585H29.5112V79.8491Z" fill="white"/>
<path d="M31.2456 79.8491H29.5098V81.585H31.2456V79.8491Z" fill="white"/>
<path d="M38.189 79.8491H36.4531V81.585H38.189V79.8491Z" fill="white"/>
<path d="M41.6616 79.8491H39.9258V81.585H41.6616V79.8491Z" fill="white"/>
<path d="M43.398 79.8491H41.6621V81.585H43.398V79.8491Z" fill="white"/>
<path d="M45.1323 79.8491H43.3965V81.585H45.1323V79.8491Z" fill="white"/>
<path d="M46.8687 79.8491H45.1328V81.585H46.8687V79.8491Z" fill="white"/>
<path d="M48.605 79.8491H46.8691V81.585H48.605V79.8491Z" fill="white"/>
<path d="M50.3413 79.8491H48.6055V81.585H50.3413V79.8491Z" fill="white"/>
<path d="M55.5483 79.8491H53.8125V81.585H55.5483V79.8491Z" fill="white"/>
<path d="M62.4917 79.8491H60.7559V81.585H62.4917V79.8491Z" fill="white"/>
<path d="M65.9624 79.8491H64.2266V81.585H65.9624V79.8491Z" fill="white"/>
<path d="M67.6987 79.8491H65.9629V81.585H67.6987V79.8491Z" fill="white"/>
<path d="M71.1714 79.8491H69.4355V81.585H71.1714V79.8491Z" fill="white"/>
<path d="M74.6421 79.8491H72.9062V81.585H74.6421V79.8491Z" fill="white"/>
<path d="M76.3784 79.8491H74.6426V81.585H76.3784V79.8491Z" fill="white"/>
<path d="M78.1148 79.8491H76.3789V81.585H78.1148V79.8491Z" fill="white"/>
<path d="M79.8491 79.8491H78.1133V81.585H79.8491V79.8491Z" fill="white"/>
<path d="M81.5855 79.8491H79.8496V81.585H81.5855V79.8491Z" fill="white"/>
<path d="M85.0581 79.8491H83.3223V81.585H85.0581V79.8491Z" fill="white"/>
<path d="M86.7925 79.8491H85.0566V81.585H86.7925V79.8491Z" fill="white"/>
<path d="M19.0952 81.585H17.3594V83.3208H19.0952V81.585Z" fill="white"/>
<path d="M22.5679 81.585H20.832V83.3208H22.5679V81.585Z" fill="white"/>
<path d="M24.3023 81.585H22.5664V83.3208H24.3023V81.585Z" fill="white"/>
<path d="M27.7749 81.585H26.0391V83.3208H27.7749V81.585Z" fill="white"/>
<path d="M31.2456 81.585H29.5098V83.3208H31.2456V81.585Z" fill="white"/>
<path d="M32.9819 81.585H31.2461V83.3208H32.9819V81.585Z" fill="white"/>
<path d="M36.4546 81.585H34.7188V83.3208H36.4546V81.585Z" fill="white"/>
<path d="M41.6616 81.585H39.9258V83.3208H41.6616V81.585Z" fill="white"/>
<path d="M43.398 81.585H41.6621V83.3208H43.398V81.585Z" fill="white"/>
<path d="M45.1323 81.585H43.3965V83.3208H45.1323V81.585Z" fill="white"/>
<path d="M48.605 81.585H46.8691V83.3208H48.605V81.585Z" fill="white"/>
<path d="M50.3413 81.585H48.6055V83.3208H50.3413V81.585Z" fill="white"/>
<path d="M52.0757 81.585H50.3398V83.3208H52.0757V81.585Z" fill="white"/>
<path d="M57.2847 81.585H55.5488V83.3208H57.2847V81.585Z" fill="white"/>
<path d="M59.0191 81.585H57.2832V83.3208H59.0191V81.585Z" fill="white"/>
<path d="M62.4917 81.585H60.7559V83.3208H62.4917V81.585Z" fill="white"/>
<path d="M69.4351 81.585H67.6992V83.3208H69.4351V81.585Z" fill="white"/>
<path d="M74.6421 81.585H72.9062V83.3208H74.6421V81.585Z" fill="white"/>
<path d="M78.1148 81.585H76.3789V83.3208H78.1148V81.585Z" fill="white"/>
<path d="M79.8491 81.585H78.1133V83.3208H79.8491V81.585Z" fill="white"/>
<path d="M81.5855 81.585H79.8496V83.3208H81.5855V81.585Z" fill="white"/>
<path d="M83.3218 81.585H81.5859V83.3208H83.3218V81.585Z" fill="white"/>
<path d="M88.5288 81.585H86.793V83.3208H88.5288V81.585Z" fill="white"/>
<path d="M19.0952 83.3208H17.3594V85.0566H19.0952V83.3208Z" fill="white"/>
<path d="M20.8316 83.3208H19.0957V85.0566H20.8316V83.3208Z" fill="white"/>
<path d="M29.5112 83.3208H27.7754V85.0566H29.5112V83.3208Z" fill="white"/>
<path d="M32.9819 83.3208H31.2461V85.0566H32.9819V83.3208Z" fill="white"/>
<path d="M38.189 83.3208H36.4531V85.0566H38.189V83.3208Z" fill="white"/>
<path d="M41.6616 83.3208H39.9258V85.0566H41.6616V83.3208Z" fill="white"/>
<path d="M45.1323 83.3208H43.3965V85.0566H45.1323V83.3208Z" fill="white"/>
<path d="M46.8687 83.3208H45.1328V85.0566H46.8687V83.3208Z" fill="white"/>
<path d="M50.3413 83.3208H48.6055V85.0566H50.3413V83.3208Z" fill="white"/>
<path d="M52.0757 83.3208H50.3398V85.0566H52.0757V83.3208Z" fill="white"/>
<path d="M55.5483 83.3208H53.8125V85.0566H55.5483V83.3208Z" fill="white"/>
<path d="M59.0191 83.3208H57.2832V85.0566H59.0191V83.3208Z" fill="white"/>
<path d="M64.228 83.3208H62.4922V85.0566H64.228V83.3208Z" fill="white"/>
<path d="M65.9624 83.3208H64.2266V85.0566H65.9624V83.3208Z" fill="white"/>
<path d="M71.1714 83.3208H69.4355V85.0566H71.1714V83.3208Z" fill="white"/>
<path d="M72.9058 83.3208H71.1699V85.0566H72.9058V83.3208Z" fill="white"/>
<path d="M76.3784 83.3208H74.6426V85.0566H76.3784V83.3208Z" fill="white"/>
<path d="M79.8491 83.3208H78.1133V85.0566H79.8491V83.3208Z" fill="white"/>
<path d="M83.3218 83.3208H81.5859V85.0566H83.3218V83.3208Z" fill="white"/>
<path d="M85.0581 83.3208H83.3223V85.0566H85.0581V83.3208Z" fill="white"/>
<path d="M22.5679 85.0566H20.832V86.7925H22.5679V85.0566Z" fill="white"/>
<path d="M26.0386 85.0566H24.3027V86.7925H26.0386V85.0566Z" fill="white"/>
<path d="M29.5112 85.0566H27.7754V86.7925H29.5112V85.0566Z" fill="white"/>
<path d="M31.2456 85.0566H29.5098V86.7925H31.2456V85.0566Z" fill="white"/>
<path d="M34.7183 85.0566H32.9824V86.7925H34.7183V85.0566Z" fill="white"/>
<path d="M36.4546 85.0566H34.7188V86.7925H36.4546V85.0566Z" fill="white"/>
<path d="M41.6616 85.0566H39.9258V86.7925H41.6616V85.0566Z" fill="white"/>
<path d="M48.605 85.0566H46.8691V86.7925H48.605V85.0566Z" fill="white"/>
<path d="M50.3413 85.0566H48.6055V86.7925H50.3413V85.0566Z" fill="white"/>
<path d="M57.2847 85.0566H55.5488V86.7925H57.2847V85.0566Z" fill="white"/>
<path d="M59.0191 85.0566H57.2832V86.7925H59.0191V85.0566Z" fill="white"/>
<path d="M60.7554 85.0566H59.0195V86.7925H60.7554V85.0566Z" fill="white"/>
<path d="M62.4917 85.0566H60.7559V86.7925H62.4917V85.0566Z" fill="white"/>
<path d="M69.4351 85.0566H67.6992V86.7925H69.4351V85.0566Z" fill="white"/>
<path d="M72.9058 85.0566H71.1699V86.7925H72.9058V85.0566Z" fill="white"/>
<path d="M74.6421 85.0566H72.9062V86.7925H74.6421V85.0566Z" fill="white"/>
<path d="M76.3784 85.0566H74.6426V86.7925H76.3784V85.0566Z" fill="white"/>
<path d="M78.1148 85.0566H76.3789V86.7925H78.1148V85.0566Z" fill="white"/>
<path d="M88.5288 85.0566H86.793V86.7925H88.5288V85.0566Z" fill="white"/>
<path d="M19.0952 86.7925H17.3594V88.5283H19.0952V86.7925Z" fill="white"/>
<path d="M20.8316 86.7925H19.0957V88.5283H20.8316V86.7925Z" fill="white"/>
<path d="M26.0386 86.7925H24.3027V88.5283H26.0386V86.7925Z" fill="white"/>
<path d="M27.7749 86.7925H26.0391V88.5283H27.7749V86.7925Z" fill="white"/>
<path d="M29.5112 86.7925H27.7754V88.5283H29.5112V86.7925Z" fill="white"/>
<path d="M34.7183 86.7925H32.9824V88.5283H34.7183V86.7925Z" fill="white"/>
<path d="M36.4546 86.7925H34.7188V88.5283H36.4546V86.7925Z" fill="white"/>
<path d="M38.189 86.7925H36.4531V88.5283H38.189V86.7925Z" fill="white"/>
<path d="M39.9253 86.7925H38.1895V88.5283H39.9253V86.7925Z" fill="white"/>
<path d="M41.6616 86.7925H39.9258V88.5283H41.6616V86.7925Z" fill="white"/>
<path d="M45.1323 86.7925H43.3965V88.5283H45.1323V86.7925Z" fill="white"/>
<path d="M52.0757 86.7925H50.3398V88.5283H52.0757V86.7925Z" fill="white"/>
<path d="M55.5483 86.7925H53.8125V88.5283H55.5483V86.7925Z" fill="white"/>
<path d="M57.2847 86.7925H55.5488V88.5283H57.2847V86.7925Z" fill="white"/>
<path d="M59.0191 86.7925H57.2832V88.5283H59.0191V86.7925Z" fill="white"/>
<path d="M62.4917 86.7925H60.7559V88.5283H62.4917V86.7925Z" fill="white"/>
<path d="M64.228 86.7925H62.4922V88.5283H64.228V86.7925Z" fill="white"/>
<path d="M67.6987 86.7925H65.9629V88.5283H67.6987V86.7925Z" fill="white"/>
<path d="M69.4351 86.7925H67.6992V88.5283H69.4351V86.7925Z" fill="white"/>
<path d="M85.0581 86.7925H83.3223V88.5283H85.0581V86.7925Z" fill="white"/>
<path d="M86.7925 86.7925H85.0566V88.5283H86.7925V86.7925Z" fill="white"/>
<path d="M88.5288 86.7925H86.793V88.5283H88.5288V86.7925Z" fill="white"/>
<path d="M11.4751 3.47266H7.62111C5.74282 3.47266 4.15153 4.71363 3.64277 6.40978C3.59016 6.58524 3.54909 6.76556 3.52053 6.94989C3.48906 7.1533 3.47266 7.36157 3.47266 7.5736V11.5191C3.47266 13.7815 5.33418 15.6213 7.62111 15.6213L9.54813 15.6217L11.4751 15.6212C13.762 15.6212 15.6236 13.7814 15.6236 11.519V7.5736C15.6236 5.31231 13.7621 3.47266 11.4751 3.47266ZM13.801 11.5191C13.801 12.776 12.7577 13.7986 11.4747 13.7986L9.54813 13.799L7.6216 13.7985C6.33858 13.7985 5.2953 12.7759 5.2953 11.5191V7.5736C5.2953 7.181 5.39712 6.81137 5.57635 6.4884C5.74889 6.1777 5.99301 5.9105 6.28694 5.70819C6.66483 5.44804 7.12499 5.2953 7.62099 5.2953H11.4751C12.7577 5.2953 13.801 6.31731 13.801 7.5736V11.5191Z" fill="white"/>
<path d="M84.3814 3.47266H80.5274C78.6491 3.47266 77.0578 4.71363 76.549 6.40978C76.4964 6.58524 76.4553 6.76556 76.4268 6.94989C76.3953 7.1533 76.3789 7.36157 76.3789 7.5736V11.5191C76.3789 13.7815 78.2404 15.6213 80.5274 15.6213L82.4544 15.6217L84.3814 15.6212C86.6682 15.6212 88.5299 13.7814 88.5299 11.519V7.5736C88.5299 5.31231 86.6683 3.47266 84.3814 3.47266ZM86.7072 11.5191C86.7072 12.776 85.6639 13.7986 84.3809 13.7986L82.4544 13.799L80.5278 13.7985C79.2448 13.7985 78.2015 12.7759 78.2015 11.5191V7.5736C78.2015 7.181 78.3034 6.81137 78.4826 6.4884C78.6551 6.1777 78.8993 5.9105 79.1932 5.70819C79.5711 5.44804 80.0312 5.2953 80.5272 5.2953H84.3814C85.6639 5.2953 86.7072 6.31731 86.7072 7.5736V11.5191Z" fill="white"/>
<path d="M11.4751 76.3784H7.62111C5.74282 76.3784 4.15153 77.6194 3.64277 79.3155C3.59016 79.491 3.54909 79.6713 3.52053 79.8557C3.48906 80.0591 3.47266 80.2673 3.47266 80.4794V84.4249C3.47266 86.6873 5.33418 88.5271 7.62111 88.5271L9.54813 88.5274L11.4751 88.5269C13.762 88.5269 15.6236 86.6872 15.6236 84.4248V80.4794C15.6236 78.2181 13.7621 76.3784 11.4751 76.3784ZM13.801 84.4249C13.801 85.6818 12.7577 86.7044 11.4747 86.7044L9.54813 86.7048L7.6216 86.7043C6.33858 86.7043 5.2953 85.6817 5.2953 84.4249V80.4794C5.2953 80.0868 5.39712 79.7171 5.57635 79.3942C5.74889 79.0835 5.99301 78.8163 6.28694 78.6139C6.66483 78.3538 7.12499 78.2011 7.62099 78.2011H11.4751C12.7577 78.2011 13.801 79.2231 13.801 80.4794V84.4249Z" fill="white"/>
<path d="M9.49803 12.0488C10.9079 12.0488 12.0508 10.9059 12.0508 9.49608C12.0508 8.08625 10.9079 6.94336 9.49803 6.94336C8.0882 6.94336 6.94531 8.08625 6.94531 9.49608C6.94531 10.9059 8.0882 12.0488 9.49803 12.0488Z" fill="white"/>
<path d="M82.4023 12.0488C83.8122 12.0488 84.955 10.9059 84.955 9.49608C84.955 8.08625 83.8122 6.94336 82.4023 6.94336C80.9925 6.94336 79.8496 8.08625 79.8496 9.49608C79.8496 10.9059 80.9925 12.0488 82.4023 12.0488Z" fill="white"/>
<path d="M9.49803 84.9546C10.9079 84.9546 12.0508 83.8117 12.0508 82.4018C12.0508 80.992 10.9079 79.8491 9.49803 79.8491C8.0882 79.8491 6.94531 80.992 6.94531 82.4018C6.94531 83.8117 8.0882 84.9546 9.49803 84.9546Z" fill="white"/>
</svg>
