<svg width="56" height="56" viewBox="0 0 56 56" fill="none" xmlns="http://www.w3.org/2000/svg">
  <rect width="56" height="56" rx="28" fill="#0057FF" />
  <g clip-path="url(#clip0_550_83799)">
    <path fill-rule="evenodd" clip-rule="evenodd"
      d="M30 18C30.5304 18 31.0391 18.2107 31.4142 18.5858C31.7893 18.9609 32 19.4696 32 20C32.0005 20.6911 32.2393 21.3609 32.6761 21.8965C33.113 22.432 33.7211 22.8006 34.398 22.94C34.9178 23.0456 35.3744 23.3533 35.6674 23.7955C35.9603 24.2377 36.0656 24.7782 35.96 25.298C35.8544 25.8178 35.5467 26.2744 35.1045 26.5674C34.6623 26.8603 34.1218 26.9656 33.602 26.86C33.0483 26.7473 32.5103 26.5677 32 26.325V32C32 33.1222 31.6852 34.222 31.0914 35.1743C30.4976 36.1265 29.6487 36.8932 28.641 37.3872C27.6334 37.8812 26.5074 38.0827 25.3909 37.9687C24.2745 37.8548 23.2124 37.4301 22.3253 36.7428C21.4381 36.0554 20.7615 35.1331 20.3724 34.0805C19.9832 33.0279 19.897 31.8873 20.1236 30.7881C20.3502 29.689 20.8805 28.6755 21.6543 27.8627C22.4281 27.0499 23.4144 26.4704 24.501 26.19C25.0114 26.0669 25.5498 26.1495 25.9998 26.4198C26.4499 26.6902 26.7756 27.1268 26.9066 27.6352C27.0376 28.1436 26.9635 28.6832 26.7001 29.1374C26.4368 29.5917 26.0053 29.9241 25.499 30.063C25.0302 30.1874 24.6225 30.4778 24.3516 30.8802C24.0808 31.2826 23.9652 31.7696 24.0265 32.2508C24.0877 32.7319 24.3215 33.1745 24.6845 33.4962C25.0475 33.818 25.515 33.997 26 34C26.5304 34 27.0391 33.7893 27.4142 33.4142C27.7893 33.0391 28 32.5304 28 32V20C28 19.4696 28.2107 18.9609 28.5858 18.5858C28.9609 18.2107 29.4696 18 30 18Z"
      fill="white" />
  </g>
  <defs>
    <clipPath id="clip0_550_83799">
      <rect width="24" height="24" fill="white" transform="translate(16 16)" />
    </clipPath>
  </defs>
</svg>